<?xml version="1.0" encoding="UTF-8" standalone="no"?>
<!-- Created with Inkscape (http://www.inkscape.org/) -->

<svg
   xmlns:dc="http://purl.org/dc/elements/1.1/"
   xmlns:cc="http://creativecommons.org/ns#"
   xmlns:rdf="http://www.w3.org/1999/02/22-rdf-syntax-ns#"
   xmlns:svg="http://www.w3.org/2000/svg"
   xmlns="http://www.w3.org/2000/svg"
   xmlns:xlink="http://www.w3.org/1999/xlink"
   xmlns:sodipodi="http://sodipodi.sourceforge.net/DTD/sodipodi-0.dtd"
   xmlns:inkscape="http://www.inkscape.org/namespaces/inkscape"
   width="1206"
   height="1566"
   id="svg3222"
   version="1.1"
   inkscape:version="0.48.4 r9939"
   sodipodi:docname="american_waltz.svg">
  <defs
     id="defs3224" />
  <sodipodi:namedview
     id="base"
     pagecolor="#ffffff"
     bordercolor="#666666"
     borderopacity="1.0"
     inkscape:pageopacity="0.0"
     inkscape:pageshadow="2"
     inkscape:zoom="5.6"
     inkscape:cx="526.17569"
     inkscape:cy="1161.245"
     inkscape:document-units="px"
     inkscape:current-layer="layer1"
     showgrid="false"
     fit-margin-top="0"
     fit-margin-left="0"
     fit-margin-right="0"
     fit-margin-bottom="0"
     inkscape:window-width="2495"
     inkscape:window-height="1056"
     inkscape:window-x="1985"
     inkscape:window-y="24"
     inkscape:window-maximized="1" />
  <metadata
     id="metadata3227">
    <rdf:RDF>
      <cc:Work
         rdf:about="">
        <dc:format>image/svg+xml</dc:format>
        <dc:type
           rdf:resource="http://purl.org/dc/dcmitype/StillImage" />
        <dc:title />
      </cc:Work>
    </rdf:RDF>
  </metadata>
  <g
     inkscape:label="Layer 1"
     inkscape:groupmode="layer"
     id="layer1"
     transform="translate(-251.28572,-3.647897)">
    <image
       y="3.647897"
       x="251.28572"
       id="image3321"
       xlink:href="file:///home/shawn/Desktop/danceDiagrams/raw/page-404.png"
       height="1566"
       width="1206" />
    <path
       style="fill:none;stroke:#800000"
       d="m 311.07143,817.07143 619.28571,0"
       id="path3043"
       inkscape:connector-curvature="0"
       transform="translate(251.28572,3.647897)" />
    <path
       style="fill:none;stroke:#800000"
       d="m 620.53572,214.21428 0,1204.64282"
       id="path3045"
       inkscape:connector-curvature="0"
       transform="translate(251.28572,3.647897)" />
    <path
       style="fill:none;stroke:#800000"
       d="M 467.14286,461 C 513.27143,465.00905 547.68082,484.25302 570,519.21428"
       id="path3047"
       inkscape:connector-curvature="0"
       transform="translate(251.28572,3.647897)"
       sodipodi:nodetypes="cc" />
    <path
       style="fill:none;stroke:#800000"
       d="m 575,524.21428 c 17.88975,33.7793 19.05431,61.60933 7.5,72.14286"
       id="path3049"
       inkscape:connector-curvature="0"
       transform="translate(251.28572,3.647897)"
       sodipodi:nodetypes="cc" />
    <path
       style="fill:none;stroke:#800000"
       d="m 583.21428,596 c 13.33157,18.13301 7.00187,34.66792 -3.39285,48.03571"
       id="path3051"
       inkscape:connector-curvature="0"
       transform="translate(251.28572,3.647897)"
       sodipodi:nodetypes="cc" />
    <path
       style="fill:none;stroke:#800000"
       d="M 570.71429,644.92857 C 557.9365,674.43197 535.17014,698.1166 467.5,695.64286"
       id="path3053"
       inkscape:connector-curvature="0"
       transform="translate(251.28572,3.647897)"
       sodipodi:nodetypes="cc" />
    <path
       style="fill:none;stroke:#800000"
       d="m 464.64286,706.35714 c -43.40593,-3.26112 -78.69267,8.70126 -99.28572,48.21429"
       id="path3055"
       inkscape:connector-curvature="0"
       transform="translate(251.28572,3.647897)"
       sodipodi:nodetypes="cc" />
    <path
       style="fill:none;stroke:#800000"
       d="m 361.07143,760.64286 c -27.85501,22.54148 -29.81529,44.48075 -16.78572,66.07142"
       id="path3057"
       inkscape:connector-curvature="0"
       transform="translate(251.28572,3.647897)"
       sodipodi:nodetypes="cc" />
    <path
       style="fill:none;stroke:#800000"
       d="M 343.92857,826.53571 C 336.81515,843.22962 340.20948,857.63924 355,869.57143"
       id="path3059"
       inkscape:connector-curvature="0"
       transform="translate(251.28572,3.647897)"
       sodipodi:nodetypes="cc" />
    <path
       style="fill:none;stroke:#800000"
       d="m 353.21429,876 c 20.45764,31.61413 52.74002,52.96447 107.14285,47.14286"
       id="path3061"
       inkscape:connector-curvature="0"
       transform="translate(251.28572,3.647897)"
       sodipodi:nodetypes="cc" />
    <path
       style="fill:none;stroke:#800000"
       d="m 464.28572,931 c 48.778,0.51483 80.97032,20.33431 100.71428,54.64286"
       id="path3063"
       inkscape:connector-curvature="0"
       transform="translate(251.28572,3.647897)"
       sodipodi:nodetypes="cc" />
    <path
       style="fill:none;stroke:#800000"
       d="m 567.14286,990.28571 c 9.31394,12.99179 25.62763,56.08829 8.21428,71.42859"
       id="path3065"
       inkscape:connector-curvature="0"
       transform="translate(251.28572,3.647897)"
       sodipodi:nodetypes="cc" />
    <path
       style="fill:none;stroke:#800000"
       d="m 575.53571,1061.3572 c 14.02252,12.0716 8.65588,42.214 0.17858,52.1428"
       id="path3067"
       inkscape:connector-curvature="0"
       transform="translate(251.28572,3.647897)"
       sodipodi:nodetypes="cc" />
    <path
       style="fill:none;stroke:#800000"
       d="m 568.21429,1112.4286 c -17.80907,35.663 -55.97261,54.2635 -101.42857,59.6428"
       id="path3069"
       inkscape:connector-curvature="0"
       transform="translate(251.28572,3.647897)"
       sodipodi:nodetypes="cc" />
    <path
       style="fill:none;stroke:#800000"
       d="m 462.14286,1179.2143 c -62.53627,0.7537 -106.63768,21.2709 -116.42857,78.5714"
       id="path3071"
       inkscape:connector-curvature="0"
       transform="translate(251.28572,3.647897)"
       sodipodi:nodetypes="cc" />
    <path
       style="fill:none;stroke:#800000"
       d="m 343.21429,1266.3571 c -7.06088,30.7385 -3.10332,73.142 35.53571,83.5715"
       id="path3073"
       inkscape:connector-curvature="0"
       transform="translate(251.28572,3.647897)"
       sodipodi:nodetypes="cc" />
    <path
       style="fill:none;stroke:#800000"
       d="m 378.21429,1349.75 c -1.13382,16.3637 2.47599,31.2294 28.21428,39.1071"
       id="path3075"
       inkscape:connector-curvature="0"
       transform="translate(251.28572,3.647897)"
       sodipodi:nodetypes="cc" />
    <path
       style="fill:none;stroke:#800000"
       d="m 416.07143,1386 c 46.44876,19.0649 108.75043,-3.3018 123.57143,-59.2857"
       id="path3079"
       inkscape:connector-curvature="0"
       transform="translate(251.28572,3.647897)"
       sodipodi:nodetypes="cc" />
    <path
       style="fill:none;stroke:#800000"
       d="m 545.35714,1327.4286 c 27.54132,-67.2434 130.37541,-64.2431 155.71429,3.2143"
       id="path3081"
       inkscape:connector-curvature="0"
       transform="translate(251.28572,3.647897)"
       sodipodi:nodetypes="cc" />
    <path
       style="fill:none;stroke:#800000"
       d="m 707.14286,1328.5 c 8.95663,49.9095 72.82042,84.2121 120.35715,65.1786"
       id="path3083"
       inkscape:connector-curvature="0"
       transform="translate(251.28572,3.647897)"
       sodipodi:nodetypes="cc" />
    <path
       style="fill:none;stroke:#800000"
       d="m 835,1389.2143 c 29.94886,-2.3466 65.96588,-36.4392 56.07143,-68.2143"
       id="path3085"
       inkscape:connector-curvature="0"
       transform="translate(251.28572,3.647897)"
       sodipodi:nodetypes="cc" />
    <path
       style="fill:none;stroke:#800000"
       d="m 890.89286,1321.3571 c 18.92475,-4.4163 27.20016,-21.1859 22.32143,-53.2142"
       id="path3087"
       inkscape:connector-curvature="0"
       transform="translate(251.28572,3.647897)"
       sodipodi:nodetypes="cc" />
    <path
       style="fill:none;stroke:#800000"
       d="M 906.07143,1268.8571 C 894.59587,1209.057 848.30176,1188.7625 787.5,1184.9286"
       id="path3089"
       inkscape:connector-curvature="0"
       transform="translate(251.28572,3.647897)"
       sodipodi:nodetypes="cc" />
    <path
       style="fill:none;stroke:#800000"
       d="m 774.64286,1184.2143 c -32.84251,-5.5432 -66.40357,-20.7071 -65.35714,-41.4286"
       id="path3091"
       inkscape:connector-curvature="0"
       transform="translate(251.28572,3.647897)"
       sodipodi:nodetypes="cc" />
    <path
       style="fill:none;stroke:#800000"
       d="m 709.10714,1142.7857 c -20.96571,1.8888 -35.16092,-5.1087 -40.89285,-23.2143"
       id="path3093"
       inkscape:connector-curvature="0"
       transform="translate(251.28572,3.647897)"
       sodipodi:nodetypes="cc" />
    <path
       style="fill:none;stroke:#800000"
       d="m 671.78572,1115.6429 c -19.37632,-39.1515 -21.09177,-77.8722 -1.42858,-116.07147"
       id="path3095"
       inkscape:connector-curvature="0"
       transform="translate(251.28572,3.647897)"
       sodipodi:nodetypes="cc" />
    <path
       style="fill:none;stroke:#800000"
       d="m 673.21429,992.07143 c 16.05647,-34.66639 48.79599,-58.43678 102.85714,-53.92857"
       id="path3097"
       inkscape:connector-curvature="0"
       transform="translate(251.28572,3.647897)"
       sodipodi:nodetypes="cc" />
    <path
       style="fill:none;stroke:#800000"
       d="M 778.57143,932.42857 C 808.97101,937.06267 847.1483,926.88781 847.85714,906"
       id="path3099"
       inkscape:connector-curvature="0"
       transform="translate(251.28572,3.647897)"
       sodipodi:nodetypes="cc" />
    <path
       style="fill:none;stroke:#800000"
       d="m 847.85714,906.89285 c 18.07014,1.61196 33.78603,-3.9627 42.85715,-29.82142"
       id="path3101"
       inkscape:connector-curvature="0"
       transform="translate(251.28572,3.647897)"
       sodipodi:nodetypes="cc" />
    <path
       style="fill:none;stroke:#800000"
       d="M 886.07143,871.71428 C 917.96593,835.00706 907.18072,775.77861 885,756.35714"
       id="path3103"
       inkscape:connector-curvature="0"
       transform="translate(251.28572,3.647897)"
       sodipodi:nodetypes="cc" />
    <path
       style="fill:none;stroke:#800000"
       d="M 880.35714,751.35714 C 865.81799,718.37826 834.53888,705.05063 787.14286,710.64286"
       id="path3105"
       inkscape:connector-curvature="0"
       transform="translate(251.28572,3.647897)"
       sodipodi:nodetypes="cc" />
    <path
       style="fill:none;stroke:#800000"
       d="M 784.28572,703.85714 C 753.02665,703.68045 722.20146,683.35003 720.35714,664.75"
       id="path3107"
       inkscape:connector-curvature="0"
       transform="translate(251.28572,3.647897)"
       sodipodi:nodetypes="cc" />
    <path
       style="fill:none;stroke:#800000"
       d="m 720.17858,665.10714 c -25.30568,0.8979 -38.52364,-11.27242 -43.39286,-24.46428"
       id="path3109"
       inkscape:connector-curvature="0"
       transform="translate(251.28572,3.647897)"
       sodipodi:nodetypes="cc" />
    <path
       style="fill:none;stroke:#800000"
       d="M 681.07143,634.92857 C 660,593.85714 659.40477,555.16666 679.28572,518.85714"
       id="path3111"
       inkscape:connector-curvature="0"
       transform="translate(251.28572,3.647897)"
       sodipodi:nodetypes="cc" />
    <path
       style="fill:none;stroke:#800000"
       d="m 682.14286,512.42857 c 17.89658,-39.55361 51.98498,-57.82654 103.21428,-53.57143"
       id="path3113"
       inkscape:connector-curvature="0"
       transform="translate(251.28572,3.647897)"
       sodipodi:nodetypes="cc" />
    <path
       style="fill:none;stroke:#800000"
       d="m 788.21429,451 c 45.59346,0.41369 71.54911,-9.52099 75,-30.71429"
       id="path3115"
       inkscape:connector-curvature="0"
       transform="translate(251.28572,3.647897)"
       sodipodi:nodetypes="cc" />
    <path
       style="fill:none;stroke:#800000"
       d="m 863.03571,421 c 10.16586,5.20541 32.55891,1.11067 35.35715,-23.57143"
       id="path3117"
       inkscape:connector-curvature="0"
       transform="translate(251.28572,3.647897)"
       sodipodi:nodetypes="cc" />
    <path
       style="fill:none;stroke:#800000"
       d="M 893.57143,393.14286 C 939.48607,321.31985 887.56411,250.3125 843.92857,241.35714"
       id="path3119"
       inkscape:connector-curvature="0"
       transform="translate(251.28572,3.647897)"
       sodipodi:nodetypes="cc" />
    <path
       style="fill:none;stroke:#800000"
       d="M 828.92857,237.78571 C 770.90039,224.92739 721.73193,255.83868 708.21429,307.42857"
       id="path3121"
       inkscape:connector-curvature="0"
       transform="translate(251.28572,3.647897)"
       sodipodi:nodetypes="cc" />
    <path
       style="fill:none;stroke:#800000"
       d="M 702.14286,304.92857 C 677.2543,373.23592 568.2218,368.02158 547.5,302.07143"
       id="path3123"
       inkscape:connector-curvature="0"
       transform="translate(251.28572,3.647897)"
       sodipodi:nodetypes="cc" />
    <path
       style="fill:none;stroke:#800000"
       d="M 541.78572,304.57143 C 536.79706,282.02052 500.90515,236.87847 470,248.5"
       id="path3125"
       inkscape:connector-curvature="0"
       transform="translate(251.28572,3.647897)"
       sodipodi:nodetypes="cc" />
    <path
       style="fill:none;stroke:#800000"
       d="m 470.35714,248.5 c -15.70429,-22.30523 -37.22356,-19.41221 -60,-11.07143"
       id="path3127"
       inkscape:connector-curvature="0"
       transform="translate(251.28572,3.647897)"
       sodipodi:nodetypes="cc" />
    <path
       style="fill:none;stroke:#800000"
       d="M 406.78571,247.07143 C 353.07738,267.15574 332.75911,305.67934 342.85714,361"
       id="path3129"
       inkscape:connector-curvature="0"
       transform="translate(251.28572,3.647897)"
       sodipodi:nodetypes="cc" />
    <path
       style="fill:none;stroke:#800000"
       d="m 343.57143,368.14286 c 10.35309,59.20297 52.55615,85.9821 115.71429,91.42857"
       id="path3131"
       inkscape:connector-curvature="0"
       transform="translate(251.28572,3.647897)"
       sodipodi:nodetypes="cc" />
  </g>
</svg>
