<?xml version="1.0" encoding="UTF-8" standalone="no"?>
<!-- Created with Inkscape (http://www.inkscape.org/) -->

<svg
   xmlns:dc="http://purl.org/dc/elements/1.1/"
   xmlns:cc="http://creativecommons.org/ns#"
   xmlns:rdf="http://www.w3.org/1999/02/22-rdf-syntax-ns#"
   xmlns:svg="http://www.w3.org/2000/svg"
   xmlns="http://www.w3.org/2000/svg"
   xmlns:xlink="http://www.w3.org/1999/xlink"
   xmlns:sodipodi="http://sodipodi.sourceforge.net/DTD/sodipodi-0.dtd"
   xmlns:inkscape="http://www.inkscape.org/namespaces/inkscape"
   width="1206"
   height="1566"
   id="svg2"
   version="1.1"
   inkscape:version="0.48.4 r9939"
   sodipodi:docname="argentine_tango_man.svg">
  <defs
     id="defs4" />
  <sodipodi:namedview
     id="base"
     pagecolor="#ffffff"
     bordercolor="#666666"
     borderopacity="1.0"
     inkscape:pageopacity="0.0"
     inkscape:pageshadow="2"
     inkscape:zoom="2.8"
     inkscape:cx="524.45021"
     inkscape:cy="256.49744"
     inkscape:document-units="px"
     inkscape:current-layer="layer1"
     showgrid="false"
     fit-margin-top="0"
     fit-margin-left="0"
     fit-margin-right="0"
     fit-margin-bottom="0"
     inkscape:window-width="2495"
     inkscape:window-height="1056"
     inkscape:window-x="1985"
     inkscape:window-y="24"
     inkscape:window-maximized="1" />
  <metadata
     id="metadata7">
    <rdf:RDF>
      <cc:Work
         rdf:about="">
        <dc:format>image/svg+xml</dc:format>
        <dc:type
           rdf:resource="http://purl.org/dc/dcmitype/StillImage" />
        <dc:title></dc:title>
      </cc:Work>
    </rdf:RDF>
  </metadata>
  <g
     inkscape:label="Layer 1"
     inkscape:groupmode="layer"
     id="layer1"
     transform="translate(-228.42857,-37.933613)">
    <image
       y="37.933613"
       x="228.42857"
       id="image3044"
       xlink:href="file:///home/shawn/Desktop/danceDiagrams/raw/page-438.png"
       height="1566"
       width="1206" />
    <path
       style="fill:none;stroke:#800000"
       d="m 310,821.71428 624.28572,0"
       id="path3138"
       inkscape:connector-curvature="0"
       transform="translate(228.42857,37.933613)" />
    <path
       style="fill:none;stroke:#800000"
       d="m 622.14286,213.85714 0,1214.28576"
       id="path3140"
       inkscape:connector-curvature="0"
       transform="translate(228.42857,37.933613)" />
    <path
       style="fill:none;stroke:#800000"
       d="m 796.42857,327.25 c -8.32444,-16.8202 -18.5257,-31.3882 -31.60714,-42.5"
       id="path3047"
       inkscape:connector-curvature="0"
       transform="translate(228.42857,37.933613)"
       sodipodi:nodetypes="cc" />
    <path
       style="fill:none;stroke:#800000"
       d="m 768.39286,278.85714 c -13.57229,-13.98638 -28.40876,-25.44438 -46.25,-30.89286"
       id="path3049"
       inkscape:connector-curvature="0"
       transform="translate(228.42857,37.933613)"
       sodipodi:nodetypes="cc" />
    <path
       style="fill:none;stroke:#800000"
       d="m 716.07143,253.67857 c -18.28446,-9.88758 -38.38281,-15.11088 -60,-16.42857"
       id="path3051"
       inkscape:connector-curvature="0"
       transform="translate(228.42857,37.933613)"
       sodipodi:nodetypes="cc" />
    <path
       style="fill:none;stroke:#800000"
       d="m 656.42857,228.32143 c -23.67071,-4.20554 -47.52805,-6.35811 -72.14285,-0.17858"
       id="path3053"
       inkscape:connector-curvature="0"
       transform="translate(228.42857,37.933613)"
       sodipodi:nodetypes="cc" />
    <path
       style="fill:none;stroke:#800000"
       d="m 585.89286,235.82143 c -33.70163,0.42763 -51.83268,7.4113 -67.67857,15.35714"
       id="path3055"
       inkscape:connector-curvature="0"
       transform="translate(228.42857,37.933613)"
       sodipodi:nodetypes="cc" />
    <path
       style="fill:none;stroke:#800000"
       d="m 514.28572,241 c -25.80816,9.12651 -47.78117,21.20313 -61.25,39.82143"
       id="path3057"
       inkscape:connector-curvature="0"
       transform="translate(228.42857,37.933613)"
       sodipodi:nodetypes="cc" />
    <path
       style="fill:none;stroke:#800000"
       d="m 458.92857,286.89285 c -41.50587,42.27314 -20.4679,122.3971 38.92857,128.92858"
       id="path3059"
       inkscape:connector-curvature="0"
       transform="translate(228.42857,37.933613)"
       sodipodi:nodetypes="cc" />
    <path
       style="fill:none;stroke:#800000"
       d="m 500.53572,405.64285 c 23.72432,1.72907 42.19412,10.51892 50.71428,32.67858"
       id="path3061"
       inkscape:connector-curvature="0"
       transform="translate(228.42857,37.933613)"
       sodipodi:nodetypes="cc" />
    <path
       style="fill:none;stroke:#800000"
       d="m 545,444.57143 c 22.40456,18.10539 17.59428,54.45392 -13.39286,69.10714"
       id="path3063"
       inkscape:connector-curvature="0"
       transform="translate(228.42857,37.933613)"
       sodipodi:nodetypes="cc" />
    <path
       style="fill:none;stroke:#800000"
       d="M 531.78572,513.67857 C 464.77097,528.4461 427.13227,583.0699 472.14286,631.71428"
       id="path3065"
       inkscape:connector-curvature="0"
       transform="translate(228.42857,37.933613)"
       sodipodi:nodetypes="cc" />
    <path
       style="fill:none;stroke:#800000"
       d="m 480.35714,624.21428 c -1.9504,57.51683 45.27845,45.32147 42.85715,70.71429"
       id="path3086"
       inkscape:connector-curvature="0"
       transform="translate(228.42857,37.933613)"
       sodipodi:nodetypes="cc" />
    <path
       style="fill:none;stroke:#800000"
       d="m 523.57143,694.03572 c 20.75447,-7.33355 45.29908,10.85583 47.14286,59.46428"
       id="path3088"
       inkscape:connector-curvature="0"
       transform="translate(228.42857,37.933613)"
       sodipodi:nodetypes="cc" />
    <path
       style="fill:none;stroke:#800000"
       d="m 562.67857,753.67857 c -16.00198,49.0719 -50.56983,64.8309 -94.82143,63.21429"
       id="path3090"
       inkscape:connector-curvature="0"
       transform="translate(228.42857,37.933613)"
       sodipodi:nodetypes="cc" />
    <path
       style="fill:none;stroke:#800000"
       d="m 467.67857,827.78571 c -88.1994,-2.50551 -98.11768,100.02237 -35.35714,118.57143"
       id="path3092"
       inkscape:connector-curvature="0"
       transform="translate(228.42857,37.933613)"
       sodipodi:nodetypes="cc" />
    <path
       style="fill:none;stroke:#800000"
       d="m 438.21429,940.46428 c 42.15292,2.47904 97.27444,37.7947 101.78571,67.50002"
       id="path3094"
       inkscape:connector-curvature="0"
       transform="translate(228.42857,37.933613)"
       sodipodi:nodetypes="cc" />
    <path
       style="fill:none;stroke:#800000"
       d="m 548.03571,1003.6786 c 21.79446,21.5168 32.13514,42.6337 19.28572,77.8572"
       id="path3096"
       inkscape:connector-curvature="0"
       transform="translate(228.42857,37.933613)"
       sodipodi:nodetypes="cc" />
    <path
       style="fill:none;stroke:#800000"
       d="m 566.96429,1080.6429 c 15.00615,25.4866 0.93708,53.4025 -8.21429,65.3571"
       id="path3098"
       inkscape:connector-curvature="0"
       transform="translate(228.42857,37.933613)"
       sodipodi:nodetypes="cc" />
    <path
       style="fill:none;stroke:#800000"
       d="m 548.57143,1145.8214 c -35.31754,43.4846 -70.99505,54.2122 -106.78571,54.6429"
       id="path3100"
       inkscape:connector-curvature="0"
       transform="translate(228.42857,37.933613)"
       sodipodi:nodetypes="cc" />
    <path
       style="fill:none;stroke:#800000"
       d="m 441.78572,1208.5 c -32.83445,2.6123 -64.93849,12.9462 -94.46429,50.5357"
       id="path3102"
       inkscape:connector-curvature="0"
       transform="translate(228.42857,37.933613)"
       sodipodi:nodetypes="cc" />
    <path
       style="fill:none;stroke:#800000"
       d="m 344.28572,1267.25 c -12.70432,22.0455 -13.52751,42.9412 -11.60715,63.5714"
       id="path3104"
       inkscape:connector-curvature="0"
       transform="translate(228.42857,37.933613)"
       sodipodi:nodetypes="cc" />
    <path
       style="fill:none;stroke:#800000"
       d="m 326.42857,1330.8214 c 4.91574,27.8912 17.64494,47.4648 37.32143,59.6429"
       id="path3106"
       inkscape:connector-curvature="0"
       transform="translate(228.42857,37.933613)"
       sodipodi:nodetypes="cc" />
    <path
       style="fill:none;stroke:#800000"
       d="m 368.92857,1381.7143 c 33.91536,30.5748 114.88098,47.7835 137.14286,-25.5357"
       id="path3108"
       inkscape:connector-curvature="0"
       transform="translate(228.42857,37.933613)"
       sodipodi:nodetypes="cc" />
    <path
       style="fill:none;stroke:#800000"
       d="m 497.67857,1350.2857 c 18.74601,-122.0456 207.38496,-132.0462 221.42857,0.5357"
       id="path3110"
       inkscape:connector-curvature="0"
       transform="translate(228.42857,37.933613)"
       sodipodi:nodetypes="cc" />
    <path
       style="fill:none;stroke:#800000"
       d="m 725,1352.4286 c 11.69477,20.0665 22.10173,36.4053 57.32143,48.0357"
       id="path3112"
       inkscape:connector-curvature="0"
       transform="translate(228.42857,37.933613)"
       sodipodi:nodetypes="cc" />
    <path
       style="fill:none;stroke:#800000"
       d="m 779.64286,1409.2143 c 22.79011,5.361 46.94665,8.2168 78.21428,-1.9643"
       id="path3114"
       inkscape:connector-curvature="0"
       transform="translate(228.42857,37.933613)"
       sodipodi:nodetypes="cc" />
    <path
       style="fill:none;stroke:#800000"
       d="m 846.60714,1400.1071 c 85.07508,-7.38 111.02143,-165.4748 -28.21428,-170"
       id="path3116"
       inkscape:connector-curvature="0"
       transform="translate(228.42857,37.933613)"
       sodipodi:nodetypes="cc" />
    <path
       style="fill:none;stroke:#800000"
       d="m 818.92857,1230.1071 c -37.96599,4.813 -34.60527,-5.2516 -38.57143,-12.6785"
       id="path3118"
       inkscape:connector-curvature="0"
       transform="translate(228.42857,37.933613)"
       sodipodi:nodetypes="cc" />
    <path
       style="fill:none;stroke:#800000"
       d="m 769.64286,1226.8929 c 7.02565,0.7985 12.57668,5.6522 25,-8.3929"
       id="path3120"
       inkscape:connector-curvature="0"
       transform="translate(228.42857,37.933613)"
       sodipodi:nodetypes="cc" />
    <path
       style="fill:none;stroke:#800000"
       d="m 769.28572,1217.0714 c -116.44044,-3.0448 -113.65366,-175.1708 33.92857,-186.7857"
       id="path3122"
       inkscape:connector-curvature="0"
       transform="translate(228.42857,37.933613)"
       sodipodi:nodetypes="cc" />
    <path
       style="fill:none;stroke:#800000"
       d="m 806.07143,1016.7143 c 65.52714,-2.6887 96.9625,-34.82028 99.64286,-91.78573"
       id="path3124"
       inkscape:connector-curvature="0"
       transform="translate(228.42857,37.933613)"
       sodipodi:nodetypes="cc" />
    <path
       style="fill:none;stroke:#800000"
       d="M 906.42857,912.07143 C 893.28737,852.22077 843.93947,824.13679 787.5,841"
       id="path3126"
       inkscape:connector-curvature="0"
       transform="translate(228.42857,37.933613)"
       sodipodi:nodetypes="cc" />
    <path
       style="fill:none;stroke:#800000"
       d="M 783.92857,855.64286 C 721.75222,853.55058 677.17934,779.33222 762.14286,736.71428"
       id="path3128"
       inkscape:connector-curvature="0"
       transform="translate(228.42857,37.933613)"
       sodipodi:nodetypes="cc" />
    <path
       style="fill:none;stroke:#800000"
       d="m 770,742.07143 c 17.84484,-28.21905 23.23904,-55.43402 -17.5,-78.92857"
       id="path3130"
       inkscape:connector-curvature="0"
       transform="translate(228.42857,37.933613)"
       sodipodi:nodetypes="cc" />
    <path
       style="fill:none;stroke:#800000"
       d="M 746.78572,669.92857 C 711.81393,652.01013 706.54117,626.53194 723.92857,595.28571"
       id="path3132"
       inkscape:connector-curvature="0"
       transform="translate(228.42857,37.933613)"
       sodipodi:nodetypes="cc" />
    <path
       style="fill:none;stroke:#800000"
       d="m 733.57143,596.35714 c 10.79296,-34.66358 3.57267,-59.36238 -30.35714,-69.28571"
       id="path3134"
       inkscape:connector-curvature="0"
       transform="translate(228.42857,37.933613)"
       sodipodi:nodetypes="cc" />
    <path
       style="fill:none;stroke:#800000"
       d="M 692.5,533.85714 C 631.24932,411.0026 733.87392,354.79672 797.85714,349.92857"
       id="path3136"
       inkscape:connector-curvature="0"
       transform="translate(228.42857,37.933613)"
       sodipodi:nodetypes="cc" />
  </g>
</svg>
