<?xml version="1.0" encoding="UTF-8" standalone="no"?>
<!-- Created with Inkscape (http://www.inkscape.org/) -->

<svg
   xmlns:dc="http://purl.org/dc/elements/1.1/"
   xmlns:cc="http://creativecommons.org/ns#"
   xmlns:rdf="http://www.w3.org/1999/02/22-rdf-syntax-ns#"
   xmlns:svg="http://www.w3.org/2000/svg"
   xmlns="http://www.w3.org/2000/svg"
   xmlns:xlink="http://www.w3.org/1999/xlink"
   xmlns:sodipodi="http://sodipodi.sourceforge.net/DTD/sodipodi-0.dtd"
   xmlns:inkscape="http://www.inkscape.org/namespaces/inkscape"
   width="1206"
   height="1566"
   id="svg2"
   version="1.1"
   inkscape:version="0.48.4 r9939"
   sodipodi:docname="New document 1">
  <defs
     id="defs4" />
  <sodipodi:namedview
     id="base"
     pagecolor="#ffffff"
     bordercolor="#666666"
     borderopacity="1.0"
     inkscape:pageopacity="0.0"
     inkscape:pageshadow="2"
     inkscape:zoom="1.979899"
     inkscape:cx="623.07725"
     inkscape:cy="1333.0571"
     inkscape:document-units="px"
     inkscape:current-layer="layer1"
     showgrid="false"
     fit-margin-top="0"
     fit-margin-left="0"
     fit-margin-right="0"
     fit-margin-bottom="0"
     inkscape:window-width="1855"
     inkscape:window-height="1056"
     inkscape:window-x="65"
     inkscape:window-y="24"
     inkscape:window-maximized="1" />
  <metadata
     id="metadata7">
    <rdf:RDF>
      <cc:Work
         rdf:about="">
        <dc:format>image/svg+xml</dc:format>
        <dc:type
           rdf:resource="http://purl.org/dc/dcmitype/StillImage" />
        <dc:title></dc:title>
      </cc:Work>
    </rdf:RDF>
  </metadata>
  <g
     inkscape:label="Layer 1"
     inkscape:groupmode="layer"
     id="layer1"
     transform="translate(-205.57143,-20.790754)">
    <image
       y="20.790754"
       x="205.57143"
       id="image3044"
       xlink:href="file:///home/shawn/Desktop/danceDiagrams/raw/page-439.png"
       height="1566"
       width="1206" />
    <path
       style="fill:none;stroke:#800000"
       d="m 270.72088,818.48712 629.32504,0"
       id="path3129"
       inkscape:connector-curvature="0"
       transform="translate(205.57143,20.790754)" />
    <path
       style="fill:none;stroke:#800000"
       d="m 584.87832,205.32452 0,1225.82008"
       id="path3131"
       inkscape:connector-curvature="0"
       transform="translate(205.57143,20.790754)" />
    <path
       style="fill:none;stroke:#800000"
       d="M 760.08929,319.03571 C 753.50958,301.12228 742.42619,288.32642 728.30357,275.375"
       id="path3049"
       inkscape:connector-curvature="0"
       transform="translate(205.57143,20.790754)"
       sodipodi:nodetypes="cc" />
    <path
       style="fill:none;stroke:#800000"
       d="M 731.78572,270.19643 C 716.22398,250.78759 697.26325,241.96156 685.35714,239.30357"
       id="path3051"
       inkscape:connector-curvature="0"
       transform="translate(205.57143,20.790754)"
       sodipodi:nodetypes="cc" />
    <path
       style="fill:none;stroke:#800000"
       d="M 679.73214,245.10714 C 648.00227,228.31277 635.63358,230.58171 618.39286,228.05357"
       id="path3053"
       inkscape:connector-curvature="0"
       transform="translate(205.57143,20.790754)"
       sodipodi:nodetypes="cc" />
    <path
       style="fill:none;stroke:#800000"
       d="M 619.55357,219.48214 C 592.41313,212.76747 568.67613,214.86166 545.53572,218.5"
       id="path3055"
       inkscape:connector-curvature="0"
       transform="translate(205.57143,20.790754)"
       sodipodi:nodetypes="cc" />
    <path
       style="fill:none;stroke:#800000"
       d="m 548.83929,226.80357 c -34.98144,-0.27265 -54.20818,6.68334 -69.10715,15.625"
       id="path3057"
       inkscape:connector-curvature="0"
       transform="translate(205.57143,20.790754)"
       sodipodi:nodetypes="cc" />
    <path
       style="fill:none;stroke:#800000"
       d="m 475.98214,232.78571 c -25.20581,5.83752 -45.89538,19.16249 -62.05357,40"
       id="path3059"
       inkscape:connector-curvature="0"
       transform="translate(205.57143,20.790754)"
       sodipodi:nodetypes="cc" />
    <path
       style="fill:none;stroke:#800000"
       d="M 419.64286,279.03572 C 394.69334,292.35526 377.36587,395.30068 458.75,408.67857"
       id="path3061"
       inkscape:connector-curvature="0"
       transform="translate(205.57143,20.790754)"
       sodipodi:nodetypes="cc" />
    <path
       style="fill:none;stroke:#800000"
       d="m 461.96429,397.78571 c 21.14293,3.39606 41.7744,7.77411 51.25,33.57143"
       id="path3063"
       inkscape:connector-curvature="0"
       transform="translate(205.57143,20.790754)"
       sodipodi:nodetypes="cc" />
    <path
       style="fill:none;stroke:#800000"
       d="m 506.60714,437.60714 c 34.48368,28.8406 0.90022,67.16646 -17.14285,70.71429"
       id="path3065"
       inkscape:connector-curvature="0"
       transform="translate(205.57143,20.790754)"
       sodipodi:nodetypes="cc" />
    <path
       style="fill:none;stroke:#800000"
       d="M 489.64286,508.32143 C 427.11657,523.63938 385.1285,578.68777 433.75,626.71428"
       id="path3067"
       inkscape:connector-curvature="0"
       transform="translate(205.57143,20.790754)"
       sodipodi:nodetypes="cc" />
    <path
       style="fill:none;stroke:#800000"
       d="m 443.39286,617.25 c 0.84165,20.18401 1.56056,35.05386 50.89286,67.14286"
       id="path3071"
       inkscape:connector-curvature="0"
       transform="translate(205.57143,20.790754)"
       sodipodi:nodetypes="cc" />
    <path
       style="fill:none;stroke:#800000"
       d="m 494.28572,684.39286 c 20.32165,12.39973 39.12394,26.62269 38.39285,64.28571"
       id="path3073"
       inkscape:connector-curvature="0"
       transform="translate(205.57143,20.790754)"
       sodipodi:nodetypes="cc" />
    <path
       style="fill:none;stroke:#800000"
       d="m 524.82143,749.39286 c -17.80446,44.53666 -42.62707,66.28019 -95.89286,63.57142"
       id="path3075"
       inkscape:connector-curvature="0"
       transform="translate(205.57143,20.790754)"
       sodipodi:nodetypes="cc" />
    <path
       style="fill:none;stroke:#800000"
       d="m 426.25,804.57143 c -7.07931,-0.79462 -10.58216,-0.24807 -13.92857,0.35714"
       id="path3077"
       inkscape:connector-curvature="0"
       transform="translate(205.57143,20.790754)"
       sodipodi:nodetypes="cc" />
    <path
       style="fill:none;stroke:#800000"
       d="m 409.46429,813.85714 c -67.00848,6.73169 -95.99475,97.86885 -16.42857,130.35714"
       id="path3079"
       inkscape:connector-curvature="0"
       transform="translate(205.57143,20.790754)"
       sodipodi:nodetypes="cc" />
    <path
       style="fill:none;stroke:#800000"
       d="m 401.42857,936 c 24.78639,0.48864 55.83072,9.37033 62.5,37.14286"
       id="path3081"
       inkscape:connector-curvature="0"
       transform="translate(205.57143,20.790754)"
       sodipodi:nodetypes="cc" />
    <path
       style="fill:none;stroke:#800000"
       d="m 463.75,972.78571 c 17.88536,-1.77265 35.82311,-1.97341 54.64286,24.28572"
       id="path3083"
       inkscape:connector-curvature="0"
       transform="translate(205.57143,20.790754)"
       sodipodi:nodetypes="cc" />
    <path
       style="fill:none;stroke:#800000"
       d="m 510,1001.3571 c 38.64016,26.8378 42.82428,109.1425 21.60714,142.3215"
       id="path3085"
       inkscape:connector-curvature="0"
       transform="translate(205.57143,20.790754)"
       sodipodi:nodetypes="cc" />
    <path
       style="fill:none;stroke:#800000"
       d="m 526.42857,1151.7143 c -21.44277,40.4259 -66.49569,57.5968 -124.10714,48.0357"
       id="path3087"
       inkscape:connector-curvature="0"
       transform="translate(205.57143,20.790754)"
       sodipodi:nodetypes="cc" />
    <path
       style="fill:none;stroke:#800000"
       d="m 402.5,1209.75 c -26.72241,-3.8769 -45.23435,3.3125 -61.07143,14.1071"
       id="path3089"
       inkscape:connector-curvature="0"
       transform="translate(205.57143,20.790754)"
       sodipodi:nodetypes="cc" />
    <path
       style="fill:none;stroke:#800000"
       d="m 338.03572,1215.2858 c -33.0618,17.6692 -35.68951,38.7751 -39.64286,48.0356"
       id="path3091"
       inkscape:connector-curvature="0"
       transform="translate(205.57143,20.790754)"
       sodipodi:nodetypes="cc" />
    <path
       style="fill:none;stroke:#800000"
       d="m 304.46429,1268.6786 c -13.53306,20.8845 -13.06016,42.2208 -12.14286,63.5714"
       id="path3093"
       inkscape:connector-curvature="0"
       transform="translate(205.57143,20.790754)"
       sodipodi:nodetypes="cc" />
    <path
       style="fill:none;stroke:#800000"
       d="m 286.42858,1333.3214 c 5.02832,32.3026 21.17805,49.9836 36.7857,58.3929"
       id="path3095"
       inkscape:connector-curvature="0"
       transform="translate(205.57143,20.790754)"
       sodipodi:nodetypes="cc" />
    <path
       style="fill:none;stroke:#800000"
       d="m 328.21429,1384.0357 c 37.58764,31.446 117.87261,44.6753 138.92857,-25.5357"
       id="path3097"
       inkscape:connector-curvature="0"
       transform="translate(205.57143,20.790754)"
       sodipodi:nodetypes="cc" />
    <path
       style="fill:none;stroke:#800000"
       d="m 459.10714,1351.8929 c 18.44369,-124.5003 210.01431,-130.5313 223.57143,-0.3572"
       id="path3099"
       inkscape:connector-curvature="0"
       transform="translate(205.57143,20.790754)"
       sodipodi:nodetypes="cc" />
    <path
       style="fill:none;stroke:#800000"
       d="m 688.75,1353.6786 c 12.94151,26.3055 32.84019,41.4795 57.67857,48.75"
       id="path3101"
       inkscape:connector-curvature="0"
       transform="translate(205.57143,20.790754)"
       sodipodi:nodetypes="cc" />
    <path
       style="fill:none;stroke:#800000"
       d="m 743.21429,1411 c 26.17469,5.9097 52.45949,7.9656 79.10714,-2.6786"
       id="path3103"
       inkscape:connector-curvature="0"
       transform="translate(205.57143,20.790754)"
       sodipodi:nodetypes="cc" />
    <path
       style="fill:none;stroke:#800000"
       d="m 811.78572,1402.6071 c 98.82308,-17.4863 100.12902,-183.8608 -43.92858,-171.25"
       id="path3105"
       inkscape:connector-curvature="0"
       transform="translate(205.57143,20.790754)"
       sodipodi:nodetypes="cc" />
    <path
       style="fill:none;stroke:#800000"
       d="m 768.21429,1231.1786 c -3.23542,11.4069 -16.95672,12.306 -19.82143,0"
       id="path3107"
       inkscape:connector-curvature="0"
       transform="translate(205.57143,20.790754)"
       sodipodi:nodetypes="cc" />
    <path
       style="fill:none;stroke:#800000"
       d="m 748.57143,1231.7143 c -8.90701,7.3096 -19.14723,-2.4351 -16.07143,-11.7857"
       id="path3109"
       inkscape:connector-curvature="0"
       transform="translate(205.57143,20.790754)"
       sodipodi:nodetypes="cc" />
    <path
       style="fill:none;stroke:#800000"
       d="m 729.33014,1212.1941 c -109.64864,1.5008 -122.61047,-183.9289 38.89087,-183.3427"
       id="path3111"
       inkscape:connector-curvature="0"
       transform="translate(205.57143,20.790754)"
       sodipodi:nodetypes="cc" />
    <path
       style="fill:none;stroke:#800000"
       d="m 768.47355,1017.9922 c 26.16972,10.9554 83.80504,-4.0337 87.12566,-38.6383"
       id="path3113"
       inkscape:connector-curvature="0"
       transform="translate(205.57143,20.790754)"
       sodipodi:nodetypes="cc" />
    <path
       style="fill:none;stroke:#800000"
       d="m 855.34667,979.35391 c 18.79608,-2.53735 23.49373,-29.09427 24.24366,-62.37692"
       id="path3115"
       inkscape:connector-curvature="0"
       transform="translate(205.57143,20.790754)"
       sodipodi:nodetypes="cc" />
    <path
       style="fill:none;stroke:#800000"
       d="M 872.01419,909.90592 C 867.10042,868.06821 821.45033,817.11447 751.04842,837.68001"
       id="path3117"
       inkscape:connector-curvature="0"
       transform="translate(205.57143,20.790754)"
       sodipodi:nodetypes="cc" />
    <path
       style="fill:none;stroke:#800000"
       d="M 747.51288,853.08484 C 664.48903,845.26043 655.2967,756.88838 726.04714,732.87669"
       id="path3119"
       inkscape:connector-curvature="0"
       transform="translate(205.57143,20.790754)"
       sodipodi:nodetypes="cc" />
    <path
       style="fill:none;stroke:#800000"
       d="m 733.37075,737.92745 c 18.40377,-23.51541 25.68113,-57.97507 -17.93021,-80.8122"
       id="path3121"
       inkscape:connector-curvature="0"
       transform="translate(205.57143,20.790754)"
       sodipodi:nodetypes="cc" />
    <path
       style="fill:none;stroke:#800000"
       d="M 710.13724,665.19647 C 677.19342,647.31316 668.33798,620.55218 687.91388,589.9401"
       id="path3123"
       inkscape:connector-curvature="0"
       transform="translate(205.57143,20.790754)"
       sodipodi:nodetypes="cc" />
    <path
       style="fill:none;stroke:#800000"
       d="m 697.00526,590.95025 c 12.38732,-32.18065 0.42492,-67.36095 -30.30458,-69.70052"
       id="path3125"
       inkscape:connector-curvature="0"
       transform="translate(205.57143,20.790754)"
       sodipodi:nodetypes="cc" />
    <path
       style="fill:none;stroke:#800000"
       d="M 655.33646,527.56318 C 605.06577,426.62189 663.9406,357.04346 752.05858,342.45272"
       id="path3127"
       inkscape:connector-curvature="0"
       transform="translate(205.57143,20.790754)"
       sodipodi:nodetypes="cc" />
    <path
       style="fill:none;stroke:#800000"
       d="m 770.44643,337.33928 c -0.0532,-4.67367 -1.75674,-8.32824 -3.21429,-12.76786"
       id="path3047"
       inkscape:connector-curvature="0"
       transform="translate(205.57143,20.790754)"
       sodipodi:nodetypes="cc" />
  </g>
</svg>
