<?xml version="1.0" encoding="UTF-8" standalone="no"?>
<!-- Created with Inkscape (http://www.inkscape.org/) -->

<svg
   xmlns:dc="http://purl.org/dc/elements/1.1/"
   xmlns:cc="http://creativecommons.org/ns#"
   xmlns:rdf="http://www.w3.org/1999/02/22-rdf-syntax-ns#"
   xmlns:svg="http://www.w3.org/2000/svg"
   xmlns="http://www.w3.org/2000/svg"
   xmlns:xlink="http://www.w3.org/1999/xlink"
   xmlns:sodipodi="http://sodipodi.sourceforge.net/DTD/sodipodi-0.dtd"
   xmlns:inkscape="http://www.inkscape.org/namespaces/inkscape"
   width="1206"
   height="1566"
   id="svg3160"
   version="1.1"
   inkscape:version="0.48.4 r9939"
   sodipodi:docname="cha_cha.svg">
  <defs
     id="defs3162" />
  <sodipodi:namedview
     id="base"
     pagecolor="#ffffff"
     bordercolor="#666666"
     borderopacity="1.0"
     inkscape:pageopacity="0.0"
     inkscape:pageshadow="2"
     inkscape:zoom="5.6"
     inkscape:cx="814.26785"
     inkscape:cy="870.66464"
     inkscape:document-units="px"
     inkscape:current-layer="layer1"
     showgrid="false"
     fit-margin-top="0"
     fit-margin-left="0"
     fit-margin-right="0"
     fit-margin-bottom="0"
     inkscape:window-width="1855"
     inkscape:window-height="1056"
     inkscape:window-x="65"
     inkscape:window-y="24"
     inkscape:window-maximized="1" />
  <metadata
     id="metadata3165">
    <rdf:RDF>
      <cc:Work
         rdf:about="">
        <dc:format>image/svg+xml</dc:format>
        <dc:type
           rdf:resource="http://purl.org/dc/dcmitype/StillImage" />
        <dc:title />
      </cc:Work>
    </rdf:RDF>
  </metadata>
  <g
     inkscape:label="Layer 1"
     inkscape:groupmode="layer"
     id="layer1"
     transform="translate(-225.57143,-17.933611)">
    <image
       y="17.933611"
       x="225.57143"
       id="image3275"
       xlink:href="file:///home/shawn/Desktop/danceDiagrams/raw/page-384.png"
       height="1566"
       width="1206" />
    <path
       style="fill:none;stroke:#800000"
       d="m 307.08637,816.97189 619.72859,0"
       id="path3278"
       inkscape:connector-curvature="0"
       transform="translate(225.57143,17.933611)" />
    <path
       style="fill:none;stroke:#800000"
       d="m 617.20321,213.91082 0,1204.60688"
       id="path3280"
       inkscape:connector-curvature="0"
       transform="translate(225.57143,17.933611)" />
    <path
       style="fill:none;stroke:#800000"
       d="m 902.88252,1296.0934 c 14.04726,-30.653 14.87378,-57.0739 1.4032,-97.5934"
       id="path3282"
       inkscape:connector-curvature="0"
       transform="translate(225.57143,17.933611)"
       sodipodi:nodetypes="cc" />
    <path
       style="fill:none;stroke:#800000"
       d="m 896.42857,1203.8571 c -7.50703,-33.1372 -25.5936,-57.8108 -52.14285,-75.7142"
       id="path3284"
       inkscape:connector-curvature="0"
       transform="translate(225.57143,17.933611)"
       sodipodi:nodetypes="cc" />
    <path
       style="fill:none;stroke:#800000"
       d="m 847.85714,1139.5714 c -17.8496,-1.2005 -33.17904,-5.7613 -48.21428,-10.7143"
       id="path3286"
       inkscape:connector-curvature="0"
       transform="translate(225.57143,17.933611)"
       sodipodi:nodetypes="cc" />
    <path
       style="fill:none;stroke:#800000"
       d="M 803.21429,1120.6429 C 782.19444,1114.503 765.18702,1105.3538 751.78572,1093.5"
       id="path3288"
       inkscape:connector-curvature="0"
       transform="translate(225.57143,17.933611)"
       sodipodi:nodetypes="cc" />
    <path
       style="fill:none;stroke:#800000"
       d="M 746.07143,1098.1429 C 710.46994,1073.0609 696.99651,1037.231 694.64286,996"
       id="path3290"
       inkscape:connector-curvature="0"
       transform="translate(225.57143,17.933611)"
       sodipodi:nodetypes="cc" />
    <path
       style="fill:none;stroke:#800000"
       d="m 704.28571,996.35714 c 0.92487,-64.38954 13.79117,-111.56061 110,-160.35714"
       id="path3292"
       inkscape:connector-curvature="0"
       transform="translate(225.57143,17.933611)"
       sodipodi:nodetypes="cccc" />
    <path
       style="fill:none;stroke:#800000"
       d="m 813.57147,836.53575 c 57.4928,-33.9385 52.0495,-91.44312 24.1072,-115.89291"
       id="path3293"
       inkscape:connector-curvature="0"
       transform="translate(225.57143,17.933611)"
       sodipodi:nodetypes="cc" />
    <path
       style="fill:none;stroke:#800000"
       d="m 807.14286,819.57143 c 30.72227,-13.87413 49.78047,-59.99253 14.64285,-89.10715"
       id="path3294"
       inkscape:connector-curvature="0"
       transform="translate(225.57143,17.933611)"
       sodipodi:nodetypes="cc" />
    <path
       style="fill:none;stroke:#800000"
       d="m 822.5,731 c -36.0066,-26.92232 -46.39272,-77.63919 -15,-123.21429"
       id="path3298"
       inkscape:connector-curvature="0"
       transform="translate(225.57143,17.933611)"
       sodipodi:nodetypes="cc" />
    <path
       style="fill:none;stroke:#800000"
       d="m 838.75001,721 c -36.91974,-22.26033 -47.3935,-75.34623 -5.89287,-115"
       id="path3296"
       inkscape:connector-curvature="0"
       transform="translate(225.57143,17.933611)"
       sodipodi:nodetypes="cc" />
    <path
       style="fill:none;stroke:#800000"
       d="m 832.85714,606 c 14.29005,-3.88731 47.49355,-59.31736 5.71429,-93.21429"
       id="path3300"
       inkscape:connector-curvature="0"
       transform="translate(225.57143,17.933611)"
       sodipodi:nodetypes="cc" />
    <path
       style="fill:none;stroke:#800000"
       d="m 807.14286,609.21428 c 19.55195,-17.24349 62.0694,-56.71014 6.42857,-95.71428"
       id="path3302"
       inkscape:connector-curvature="0"
       transform="translate(225.57143,17.933611)"
       sodipodi:nodetypes="cc" />
    <path
       style="fill:none;stroke:#800000"
       d="M 813.57143,513.85714 C 793.12241,487.78571 794.69789,461.71429 807.5,435.64286"
       id="path3306"
       inkscape:connector-curvature="0"
       transform="translate(225.57143,17.933611)"
       sodipodi:nodetypes="cc" />
    <path
       style="fill:none;stroke:#800000"
       d="m 838.57143,512.78571 c -27.45093,-15.75089 -36.17177,-60.29173 4.28571,-90.35714"
       id="path3304"
       inkscape:connector-curvature="0"
       transform="translate(225.57143,17.933611)"
       sodipodi:nodetypes="cc" />
    <path
       style="fill:none;stroke:#800000"
       d="m 838.57143,414.92857 c 2.94399,-3.80032 4.624,-7.23951 13.92857,-12.85714"
       id="path3308"
       inkscape:connector-curvature="0"
       transform="translate(225.57143,17.933611)"
       sodipodi:nodetypes="cc" />
    <path
       style="fill:none;stroke:#800000"
       d="m 858.21429,409.92857 c 41.58324,-31.54525 49.0813,-65.36284 33.57143,-100.71429"
       id="path3310"
       inkscape:connector-curvature="0"
       transform="translate(225.57143,17.933611)"
       sodipodi:nodetypes="cc" />
    <path
       style="fill:none;stroke:#800000"
       d="m 883.57143,312.07143 c -34.68401,-59.02849 -116.08167,-69.41221 -177.85714,-20"
       id="path3312"
       inkscape:connector-curvature="0"
       transform="translate(225.57143,17.933611)"
       sodipodi:nodetypes="cc" />
    <path
       style="fill:none;stroke:#800000"
       d="m 697.85714,283.85714 c -16.31204,27.19975 -39.83173,46.89154 -78.92857,50.35714"
       id="path3314"
       inkscape:connector-curvature="0"
       transform="translate(225.57143,17.933611)"
       sodipodi:nodetypes="cc" />
    <path
       style="fill:none;stroke:#800000"
       d="m 711.07143,306 c -26.99468,23.66261 -58.87392,29.18259 -92.5,28.21428"
       id="path3316"
       inkscape:connector-curvature="0"
       transform="translate(225.57143,17.933611)"
       sodipodi:nodetypes="cc" />
    <path
       style="fill:none;stroke:#800000"
       d="m 617.5,327.78571 c -41.36583,-2.92438 -74.0781,-26.91882 -96.07143,-53.21428"
       id="path3318"
       inkscape:connector-curvature="0"
       transform="translate(225.57143,17.933611)"
       sodipodi:nodetypes="cc" />
    <path
       style="fill:none;stroke:#800000"
       d="M 517.85714,281.71428 C 419.93266,231.58825 361.89525,279.70361 334.54569,327.18283"
       id="path3320"
       inkscape:connector-curvature="0"
       transform="translate(225.57143,17.933611)"
       sodipodi:nodetypes="cc" />
  </g>
</svg>
