<?xml version="1.0" encoding="UTF-8" standalone="no"?>
<!-- Created with Inkscape (http://www.inkscape.org/) -->

<svg
   xmlns:dc="http://purl.org/dc/elements/1.1/"
   xmlns:cc="http://creativecommons.org/ns#"
   xmlns:rdf="http://www.w3.org/1999/02/22-rdf-syntax-ns#"
   xmlns:svg="http://www.w3.org/2000/svg"
   xmlns="http://www.w3.org/2000/svg"
   xmlns:xlink="http://www.w3.org/1999/xlink"
   xmlns:sodipodi="http://sodipodi.sourceforge.net/DTD/sodipodi-0.dtd"
   xmlns:inkscape="http://www.inkscape.org/namespaces/inkscape"
   width="1206"
   height="1566"
   id="svg2"
   version="1.1"
   inkscape:version="0.48.4 r9939"
   sodipodi:docname="New document 1">
  <defs
     id="defs4" />
  <sodipodi:namedview
     id="base"
     pagecolor="#ffffff"
     bordercolor="#666666"
     borderopacity="1.0"
     inkscape:pageopacity="0.0"
     inkscape:pageshadow="2"
     inkscape:zoom="2.8"
     inkscape:cx="767.0462"
     inkscape:cy="1471.5194"
     inkscape:document-units="px"
     inkscape:current-layer="layer1"
     showgrid="false"
     fit-margin-top="0"
     fit-margin-left="0"
     fit-margin-right="0"
     fit-margin-bottom="0"
     inkscape:window-width="2495"
     inkscape:window-height="1056"
     inkscape:window-x="1985"
     inkscape:window-y="24"
     inkscape:window-maximized="1" />
  <metadata
     id="metadata7">
    <rdf:RDF>
      <cc:Work
         rdf:about="">
        <dc:format>image/svg+xml</dc:format>
        <dc:type
           rdf:resource="http://purl.org/dc/dcmitype/StillImage" />
        <dc:title></dc:title>
      </cc:Work>
    </rdf:RDF>
  </metadata>
  <g
     inkscape:label="Layer 1"
     inkscape:groupmode="layer"
     id="layer1"
     transform="translate(-179.85715,-29.362183)">
    <image
       y="29.362183"
       x="179.85715"
       id="image3044"
       xlink:href="file:///home/shawn/Desktop/danceDiagrams/raw/page-376.png"
       height="1566"
       width="1206" />
    <path
       style="fill:none;stroke:#800000"
       d="m 308.09653,816.97189 625.7895,0"
       id="path3047"
       inkscape:connector-curvature="0"
       transform="translate(179.85715,29.362183)" />
    <path
       style="fill:none;stroke:#800000"
       d="m 620.23366,207.8499 0,1217.7389"
       id="path3049"
       inkscape:connector-curvature="0"
       transform="translate(179.85715,29.362183)" />
    <path
       style="fill:none;stroke:#800000"
       d="m 895.50023,1352.3527 c 11.79199,-16.0877 21.44252,-35.7891 18.18275,-77.2766"
       id="path3051"
       inkscape:connector-curvature="0"
       transform="translate(179.85715,29.362183)"
       sodipodi:nodetypes="cc" />
    <path
       style="fill:none;stroke:#800000"
       d="m 919.74389,1271.0355 c -1.3763,-14.1363 -5.48089,-27.7269 -11.61675,-40.9112"
       id="path3053"
       inkscape:connector-curvature="0"
       transform="translate(179.85715,29.362183)"
       sodipodi:nodetypes="cc" />
    <path
       style="fill:none;stroke:#800000"
       d="m 902.06622,1230.6294 c -22.58074,-41 -61.67887,-56.8306 -104.04571,-67.6803"
       id="path3055"
       inkscape:connector-curvature="0"
       transform="translate(179.85715,29.362183)"
       sodipodi:nodetypes="cc" />
    <path
       style="fill:none;stroke:#800000"
       d="M 798.46431,1155.5822 C 682.09517,1125.589 685.69792,971.02798 782.86822,928.59374"
       id="path3057"
       inkscape:connector-curvature="0"
       transform="translate(179.85715,29.362183)"
       sodipodi:nodetypes="cc" />
    <path
       style="fill:none;stroke:#800000"
       d="M 776.80731,914.03319 C 935.3389,896.96181 951.31564,699.65939 772.9759,675.25467"
       id="path3059"
       inkscape:connector-curvature="0"
       transform="translate(179.85715,29.362183)"
       sodipodi:nodetypes="cc" />
    <path
       style="fill:none;stroke:#800000"
       d="M 776.30223,666.96423 C 757.46227,654.61831 732.4975,633.53435 723.7743,600.29417"
       id="path3061"
       inkscape:connector-curvature="0"
       transform="translate(179.85715,29.362183)"
       sodipodi:nodetypes="cc" />
    <path
       style="fill:none;stroke:#800000"
       d="m 713.1677,602.81955 c -2.642,-16.08689 -3.5566,-32.46167 -0.50508,-49.49748"
       id="path3063"
       inkscape:connector-curvature="0"
       transform="translate(179.85715,29.362183)"
       sodipodi:nodetypes="cc" />
    <path
       style="fill:none;stroke:#800000"
       d="m 723.26922,553.32207 c 10.39953,-37.9306 35.66564,-71.62086 90.23009,-84.6436"
       id="path3065"
       inkscape:connector-curvature="0"
       transform="translate(179.85715,29.362183)"
       sodipodi:nodetypes="cc" />
    <path
       style="fill:none;stroke:#800000"
       d="m 813.1728,455.33728 c 53.03677,-10.40409 82.46374,-39.46284 96.97464,-80.30713"
       id="path3067"
       inkscape:connector-curvature="0"
       transform="translate(179.85715,29.362183)"
       sodipodi:nodetypes="cc" />
    <path
       style="fill:none;stroke:#800000"
       d="m 918.73374,373.51492 c 7.37754,-33.16331 -0.61146,-64.61923 -23.23351,-94.44926"
       id="path3069"
       inkscape:connector-curvature="0"
       transform="translate(179.85715,29.362183)"
       sodipodi:nodetypes="cc" />
    <path
       style="fill:none;stroke:#800000"
       d="M 887.03123,282.77976 C 875.09928,269.65687 860.64234,256.84209 835.39616,250.9906"
       id="path3071"
       inkscape:connector-curvature="0"
       transform="translate(179.85715,29.362183)"
       sodipodi:nodetypes="cc" />
    <path
       style="fill:none;stroke:#800000"
       d="m 835.90123,243.71032 c -14.33922,-3.33831 -25.25011,-3.26671 -35.7685,-2.82125"
       id="path3073"
       inkscape:connector-curvature="0"
       transform="translate(179.85715,29.362183)"
       sodipodi:nodetypes="cc" />
    <path
       style="fill:none;stroke:#800000"
       d="m 799.53574,247.24585 c -36.78432,2.99331 -59.9914,23.8514 -78.7919,50.50763"
       id="path3075"
       inkscape:connector-curvature="0"
       transform="translate(179.85715,29.362183)"
       sodipodi:nodetypes="cc" />
    <path
       style="fill:none;stroke:#800000"
       d="m 717.20831,290.17733 c -35.2384,74.37129 -164.61345,64.39263 -193.94929,1.51523"
       id="path3077"
       inkscape:connector-curvature="0"
       transform="translate(179.85715,29.362183)"
       sodipodi:nodetypes="cc" />
    <path
       style="fill:none;stroke:#800000"
       d="M 515.68287,295.2281 C 497.2512,264.73767 468.53079,252.08106 435.88082,246.2357"
       id="path3079"
       inkscape:connector-curvature="0"
       transform="translate(179.85715,29.362183)"
       sodipodi:nodetypes="cc" />
    <path
       style="fill:none;stroke:#800000"
       d="m 438.4062,239.16463 c -26.14657,0.77158 -57.88927,-3.55137 -96.97464,37.37565"
       id="path3081"
       inkscape:connector-curvature="0"
       transform="translate(179.85715,29.362183)"
       sodipodi:nodetypes="cc" />
  </g>
</svg>
