<?xml version="1.0" encoding="UTF-8" standalone="no"?>
<!-- Created with Inkscape (http://www.inkscape.org/) -->

<svg
   xmlns:dc="http://purl.org/dc/elements/1.1/"
   xmlns:cc="http://creativecommons.org/ns#"
   xmlns:rdf="http://www.w3.org/1999/02/22-rdf-syntax-ns#"
   xmlns:svg="http://www.w3.org/2000/svg"
   xmlns="http://www.w3.org/2000/svg"
   xmlns:xlink="http://www.w3.org/1999/xlink"
   xmlns:sodipodi="http://sodipodi.sourceforge.net/DTD/sodipodi-0.dtd"
   xmlns:inkscape="http://www.inkscape.org/namespaces/inkscape"
   width="1206"
   height="1566"
   id="svg2"
   version="1.1"
   inkscape:version="0.48.4 r9939"
   sodipodi:docname="european_waltz.svg">
  <defs
     id="defs4" />
  <sodipodi:namedview
     id="base"
     pagecolor="#ffffff"
     bordercolor="#666666"
     borderopacity="1.0"
     inkscape:pageopacity="0.0"
     inkscape:pageshadow="2"
     inkscape:zoom="5.6"
     inkscape:cx="535.35902"
     inkscape:cy="1069.8768"
     inkscape:document-units="px"
     inkscape:current-layer="layer1"
     showgrid="false"
     fit-margin-top="0"
     fit-margin-left="0"
     fit-margin-right="0"
     fit-margin-bottom="0"
     inkscape:window-width="2495"
     inkscape:window-height="1056"
     inkscape:window-x="1985"
     inkscape:window-y="24"
     inkscape:window-maximized="1" />
  <metadata
     id="metadata7">
    <rdf:RDF>
      <cc:Work
         rdf:about="">
        <dc:format>image/svg+xml</dc:format>
        <dc:type
           rdf:resource="http://purl.org/dc/dcmitype/StillImage" />
        <dc:title></dc:title>
      </cc:Work>
    </rdf:RDF>
  </metadata>
  <g
     inkscape:label="Layer 1"
     inkscape:groupmode="layer"
     id="layer1"
     transform="translate(-228.42857,-9.3621826)">
    <image
       y="9.3621826"
       x="228.42857"
       id="image3092"
       xlink:href="file:///home/shawn/Desktop/danceDiagrams/raw/page-398.png"
       height="1566"
       width="1206" />
    <path
       style="fill:none;stroke:#800000"
       d="m 311.12698,817.47696 619.22352,0"
       id="path3095"
       inkscape:connector-curvature="0"
       transform="translate(228.42857,9.3621826)" />
    <path
       style="fill:none;stroke:#800000"
       d="m 620.4862,214.66843 0,1205.23827"
       id="path3097"
       inkscape:connector-curvature="0"
       transform="translate(228.42857,9.3621826)" />
    <path
       style="fill:none;stroke:#800000"
       d="m 476.78572,540.28571 c 38.18583,-3.47557 73.27935,-0.8212 97.85714,22.67857"
       id="path3118"
       inkscape:connector-curvature="0"
       transform="translate(228.42857,9.3621826)"
       sodipodi:nodetypes="cc" />
    <path
       style="fill:none;stroke:#800000"
       d="m 579.46429,567.07143 c 18.79384,14.75538 36.15774,62.78889 13.57143,85.35714"
       id="path3120"
       inkscape:connector-curvature="0"
       transform="translate(228.42857,9.3621826)"
       sodipodi:nodetypes="cc" />
    <path
       style="fill:none;stroke:#800000"
       d="m 593.03571,651.71429 c 2.11437,11.66453 0.39236,20.85146 -3.39285,29.82142"
       id="path3122"
       inkscape:connector-curvature="0"
       transform="translate(228.42857,9.3621826)"
       sodipodi:nodetypes="cc" />
    <path
       style="fill:none;stroke:#800000"
       d="m 582.85714,677.96428 c -14.69752,36.52806 -50.71943,52.55717 -107.32142,47.67858"
       id="path3124"
       inkscape:connector-curvature="0"
       transform="translate(228.42857,9.3621826)"
       sodipodi:nodetypes="cc" />
    <path
       style="fill:none;stroke:#800000"
       d="m 465.53572,729.92857 c -31.74912,-4.12808 -63.95366,-5.43766 -98.21429,22.67857"
       id="path3126"
       inkscape:connector-curvature="0"
       transform="translate(228.42857,9.3621826)"
       sodipodi:nodetypes="cc" />
    <path
       style="fill:none;stroke:#800000"
       d="m 362.67857,757.78571 c -24.2082,19.79724 -31.30443,65.39442 -13.39285,83.03572"
       id="path3128"
       inkscape:connector-curvature="0"
       transform="translate(228.42857,9.3621826)"
       sodipodi:nodetypes="cc" />
    <path
       style="fill:none;stroke:#800000"
       d="m 349.10714,840.82143 c -2.63392,8.47917 -1.30543,21.26436 4.10715,29.82143"
       id="path3130"
       inkscape:connector-curvature="0"
       transform="translate(228.42857,9.3621826)"
       sodipodi:nodetypes="cc" />
    <path
       style="fill:none;stroke:#800000"
       d="m 358.75,867.96428 c 21.52267,39.94237 58.30178,54.45735 108.39286,46.78572"
       id="path3132"
       inkscape:connector-curvature="0"
       transform="translate(228.42857,9.3621826)"
       sodipodi:nodetypes="cc" />
    <path
       style="fill:none;stroke:#800000"
       d="m 478.03572,920.82143 c 42.15862,-4.28436 75.8661,2.09584 98.03571,23.03571"
       id="path3134"
       inkscape:connector-curvature="0"
       transform="translate(228.42857,9.3621826)"
       sodipodi:nodetypes="cc" />
    <path
       style="fill:none;stroke:#800000"
       d="m 581.07143,948.5 c 22.95113,15.26789 33.21796,67.6331 12.85714,84.4643"
       id="path3136"
       inkscape:connector-curvature="0"
       transform="translate(228.42857,9.3621826)"
       sodipodi:nodetypes="cc" />
    <path
       style="fill:none;stroke:#800000"
       d="m 594.28571,1032.6071 c 2.79359,12.8059 1.36631,22.0203 -2.85714,28.9286"
       id="path3138"
       inkscape:connector-curvature="0"
       transform="translate(228.42857,9.3621826)"
       sodipodi:nodetypes="cc" />
    <path
       style="fill:none;stroke:#800000"
       d="m 584.64286,1058.3214 c -10.03529,29.6097 -47.05167,57.4202 -108.21429,47.3215"
       id="path3140"
       inkscape:connector-curvature="0"
       transform="translate(228.42857,9.3621826)"
       sodipodi:nodetypes="cc" />
    <path
       style="fill:none;stroke:#800000"
       d="M 468.03572,1105.2857 C 435.35085,1102.629 402.9849,1115.44 371.25,1158.8571"
       id="path3142"
       inkscape:connector-curvature="0"
       transform="translate(228.42857,9.3621826)"
       sodipodi:nodetypes="cc" />
    <path
       style="fill:none;stroke:#800000"
       d="m 367.32143,1165.1071 c -30.98216,27.2004 -35.77767,74.6963 -24.99999,90.8929"
       id="path3144"
       inkscape:connector-curvature="0"
       transform="translate(228.42857,9.3621826)"
       sodipodi:nodetypes="cc" />
    <path
       style="fill:none;stroke:#800000"
       d="m 342.67857,1256 c -5.44499,9.7334 -7.69521,20.8803 0.53572,32.5"
       id="path3146"
       inkscape:connector-curvature="0"
       transform="translate(228.42857,9.3621826)"
       sodipodi:nodetypes="cc" />
    <path
       style="fill:none;stroke:#800000"
       d="m 351.25,1282.7857 c 4.4458,38.2326 45.66762,73.3163 77.14286,79.4643"
       id="path3148"
       inkscape:connector-curvature="0"
       transform="translate(228.42857,9.3621826)"
       sodipodi:nodetypes="cc" />
    <path
       style="fill:none;stroke:#800000"
       d="m 435,1365.6429 c 31.14159,22.4917 74.0177,39.6439 96.07143,28.75"
       id="path3150"
       inkscape:connector-curvature="0"
       transform="translate(228.42857,9.3621826)"
       sodipodi:nodetypes="cc" />
    <path
       style="fill:none;stroke:#800000"
       d="m 530.89286,1394.0357 c 10.27605,6.9101 17.61562,10.3413 31.60714,5.7143"
       id="path3152"
       inkscape:connector-curvature="0"
       transform="translate(228.42857,9.3621826)"
       sodipodi:nodetypes="cc" />
    <path
       style="fill:none;stroke:#800000"
       d="m 558.75,1391.1786 c 30.29889,11.5133 67.43683,16.7932 117.67857,8.75"
       id="path3154"
       inkscape:connector-curvature="0"
       transform="translate(228.42857,9.3621826)"
       sodipodi:nodetypes="cc" />
    <path
       style="fill:none;stroke:#800000"
       d="m 683.99954,1400.335 c 37.97813,3.3467 71.17458,2.292 87.63074,-18.309"
       id="path3156"
       inkscape:connector-curvature="0"
       transform="translate(228.42857,9.3621826)"
       sodipodi:nodetypes="cc" />
    <path
       style="fill:none;stroke:#800000"
       d="m 771.39941,1382.1126 c 10.0078,2.7706 21.02339,0.1022 29.52529,-10.4407"
       id="path3158"
       inkscape:connector-curvature="0"
       transform="translate(228.42857,9.3621826)"
       sodipodi:nodetypes="cc" />
    <path
       style="fill:none;stroke:#800000"
       d="m 790.83215,1364.7271 c 29.8601,0.021 69.69928,-26.7444 84.71757,-69.7005"
       id="path3160"
       inkscape:connector-curvature="0"
       transform="translate(228.42857,9.3621826)"
       sodipodi:nodetypes="cc" />
    <path
       style="fill:none;stroke:#800000"
       d="m 878.32764,1289.4707 c 21.1269,-24.8944 26.44831,-71.3984 7.57614,-95.4594"
       id="path3162"
       inkscape:connector-curvature="0"
       transform="translate(228.42857,9.3621826)"
       sodipodi:nodetypes="cc" />
    <path
       style="fill:none;stroke:#800000"
       d="m 886.02108,1194.3378 c 4.83138,-11.9429 -0.59164,-26.7795 -6.28281,-30.6004"
       id="path3164"
       inkscape:connector-curvature="0"
       transform="translate(228.42857,9.3621826)"
       sodipodi:nodetypes="cc" />
    <path
       style="fill:none;stroke:#800000"
       d="m 873.78195,1170.0202 c -16.89901,-44.7012 -50.44994,-59.2705 -87.12565,-68.1853"
       id="path3166"
       inkscape:connector-curvature="0"
       transform="translate(228.42857,9.3621826)"
       sodipodi:nodetypes="cc" />
    <path
       style="fill:none;stroke:#800000"
       d="m 778.32254,1102.8451 c -63.21613,4.5618 -72.73491,-5.374 -79.84538,-21.022"
       id="path3168"
       inkscape:connector-curvature="0"
       transform="translate(228.42857,9.3621826)"
       sodipodi:nodetypes="cc" />
    <path
       style="fill:none;stroke:#800000"
       d="m 698.59445,1082.1242 c -16.37402,-1.5901 -22.4396,-9.5439 -26.33793,-18.6751"
       id="path3170"
       inkscape:connector-curvature="0"
       transform="translate(228.42857,9.3621826)"
       sodipodi:nodetypes="cc" />
    <path
       style="fill:none;stroke:#800000"
       d="M 675.53952,1058.1458 C 639,1039.8581 632.54418,964.13283 672.50906,936.42243"
       id="path3172"
       inkscape:connector-curvature="0"
       transform="translate(228.42857,9.3621826)"
       sodipodi:nodetypes="cc" />
    <path
       style="fill:none;stroke:#800000"
       d="m 677.81236,930.61405 c 21.70709,-16.02677 43.71376,-31.82242 97.9848,-22.72843"
       id="path3174"
       inkscape:connector-curvature="0"
       transform="translate(228.42857,9.3621826)"
       sodipodi:nodetypes="cc" />
    <path
       style="fill:none;stroke:#800000"
       d="m 781.85807,916.47191 c 34.23746,3.62832 67.2893,5.99024 81.06474,-20.96066"
       id="path3176"
       inkscape:connector-curvature="0"
       transform="translate(228.42857,9.3621826)"
       sodipodi:nodetypes="cc" />
    <path
       style="fill:none;stroke:#800000"
       d="m 861.92535,895.85044 c 12.85489,1.16356 21.02786,-6.10035 26.75635,-17.76432"
       id="path3178"
       inkscape:connector-curvature="0"
       transform="translate(228.42857,9.3621826)"
       sodipodi:nodetypes="cc" />
    <path
       style="fill:none;stroke:#800000"
       d="m 884.38855,872.0252 c 36.94657,-15.19842 43.15851,-93.60777 3.53554,-122.481"
       id="path3180"
       inkscape:connector-curvature="0"
       transform="translate(228.42857,9.3621826)"
       sodipodi:nodetypes="cc" />
    <path
       style="fill:none;stroke:#800000"
       d="m 882.62079,743.73583 c -42.27513,-31.25472 -68.647,-24.34158 -97.22719,-22.72844"
       id="path3182"
       inkscape:connector-curvature="0"
       transform="translate(228.42857,9.3621826)"
       sodipodi:nodetypes="cc" />
    <path
       style="fill:none;stroke:#800000"
       d="m 778.07,729.34115 c -31.95023,2.26344 -65.5039,7.2274 -79.96267,-19.96846"
       id="path3184"
       inkscape:connector-curvature="0"
       transform="translate(228.42857,9.3621826)"
       sodipodi:nodetypes="cc" />
    <path
       style="fill:none;stroke:#800000"
       d="m 698.58175,709.49524 c -15.07539,-1.12663 -22.36238,-7.27819 -27.58792,-19.04496"
       id="path3186"
       inkscape:connector-curvature="0"
       transform="translate(228.42857,9.3621826)"
       sodipodi:nodetypes="cc" />
    <path
       style="fill:none;stroke:#800000"
       d="M 675.03444,684.6419 C 637.22925,669.36735 633.84043,590.84973 671.24637,563.17106"
       id="path3188"
       inkscape:connector-curvature="0"
       transform="translate(228.42857,9.3621826)"
       sodipodi:nodetypes="cc" />
    <path
       style="fill:none;stroke:#800000"
       d="m 676.54967,557.11014 c 26.40534,-21.41557 58.72419,-29.90905 97.98479,-23.2335"
       id="path3190"
       inkscape:connector-curvature="0"
       transform="translate(228.42857,9.3621826)"
       sodipodi:nodetypes="cc" />
    <path
       style="fill:none;stroke:#800000"
       d="m 781.60553,541.70532 c 39.18903,2.41001 76.97529,-20.046 82.57997,-47.98225"
       id="path3192"
       inkscape:connector-curvature="0"
       transform="translate(228.42857,9.3621826)"
       sodipodi:nodetypes="cc" />
    <path
       style="fill:none;stroke:#800000"
       d="m 863.87169,494.52401 c 11.27026,-2.6203 19.6007,-9.21801 22.78971,-22.77176"
       id="path3194"
       inkscape:connector-curvature="0"
       transform="translate(228.42857,9.3621826)"
       sodipodi:nodetypes="cc" />
    <path
       style="fill:none;stroke:#800000"
       d="m 873.52941,471.49972 c 19.49041,-32.92394 29.34933,-68.25575 9.09138,-111.11678"
       id="path3196"
       inkscape:connector-curvature="0"
       transform="translate(228.42857,9.3621826)"
       sodipodi:nodetypes="cc" />
    <path
       style="fill:none;stroke:#800000"
       d="m 882.36825,353.56441 c -2.59516,-23.8397 -18.02406,-63.0713 -52.02286,-69.19545"
       id="path3200"
       inkscape:connector-curvature="0"
       transform="translate(228.42857,9.3621826)"
       sodipodi:nodetypes="cc" />
    <path
       style="fill:none;stroke:#800000"
       d="m 831.07237,284.39959 c -4.03993,-13.68795 -12.23214,-19.71016 -22.44526,-22.00145"
       id="path3202"
       inkscape:connector-curvature="0"
       transform="translate(228.42857,9.3621826)"
       sodipodi:nodetypes="cc" />
    <path
       style="fill:none;stroke:#800000"
       d="M 810.14234,275.27758 C 782.48641,246.88433 745.52002,239.43961 704.5814,240.9324"
       id="path3204"
       inkscape:connector-curvature="0"
       transform="translate(228.42857,9.3621826)"
       sodipodi:nodetypes="cc" />
    <path
       style="fill:none;stroke:#800000"
       d="M 697.00526,241.69001 C 666.7719,225.24453 607.38132,226.28402 596.49508,241.94255"
       id="path3206"
       inkscape:connector-curvature="0"
       transform="translate(228.42857,9.3621826)"
       sodipodi:nodetypes="cc" />
    <path
       style="fill:none;stroke:#800000"
       d="m 596.95683,241.7386 c -14.53969,-6.87601 -24.93149,-6.48173 -32.78663,-2.57397"
       id="path3208"
       inkscape:connector-curvature="0"
       transform="translate(228.42857,9.3621826)"
       sodipodi:nodetypes="cc" />
    <path
       style="fill:none;stroke:#800000"
       d="m 563.91766,247.49839 c -42.5905,-4.34974 -81.52047,0.56008 -110.86424,17.67767"
       id="path3210"
       inkscape:connector-curvature="0"
       transform="translate(228.42857,9.3621826)"
       sodipodi:nodetypes="cc" />
    <path
       style="fill:none;stroke:#800000"
       d="m 445.72981,268.45905 c -33.65833,4.53341 -67.3446,34.99489 -70.50146,65.03755"
       id="path3212"
       inkscape:connector-curvature="0"
       transform="translate(228.42857,9.3621826)"
       sodipodi:nodetypes="cc" />
    <path
       style="fill:none;stroke:#800000"
       d="m 375.16707,332.795 c -9.87187,4.52218 -17.48073,15.87059 -15.31292,27.79715"
       id="path3214"
       inkscape:connector-curvature="0"
       transform="translate(228.42857,9.3621826)"
       sodipodi:nodetypes="cc" />
    <path
       style="fill:none;stroke:#800000"
       d="m 370.97852,361.64563 c -20.93056,32.40389 -23.0157,70.65636 -2.52538,115.915"
       id="path3216"
       inkscape:connector-curvature="0"
       transform="translate(228.42857,9.3621826)"
       sodipodi:nodetypes="cc" />
    <path
       style="fill:none;stroke:#800000"
       d="m 370.72598,486.39947 c 27.68811,38.93703 61.3182,56.32643 97.47973,54.2957"
       id="path3218"
       inkscape:connector-curvature="0"
       transform="translate(228.42857,9.3621826)"
       sodipodi:nodetypes="cc" />
  </g>
</svg>
