<?xml version="1.0" encoding="UTF-8" standalone="no"?>
<!-- Created with Inkscape (http://www.inkscape.org/) -->

<svg
   xmlns:dc="http://purl.org/dc/elements/1.1/"
   xmlns:cc="http://creativecommons.org/ns#"
   xmlns:rdf="http://www.w3.org/1999/02/22-rdf-syntax-ns#"
   xmlns:svg="http://www.w3.org/2000/svg"
   xmlns="http://www.w3.org/2000/svg"
   xmlns:xlink="http://www.w3.org/1999/xlink"
   xmlns:sodipodi="http://sodipodi.sourceforge.net/DTD/sodipodi-0.dtd"
   xmlns:inkscape="http://www.inkscape.org/namespaces/inkscape"
   width="1206"
   height="1566"
   id="svg2"
   version="1.1"
   inkscape:version="0.48.4 r9939"
   sodipodi:docname="fiesta_tango.svg">
  <defs
     id="defs4" />
  <sodipodi:namedview
     id="base"
     pagecolor="#ffffff"
     bordercolor="#666666"
     borderopacity="1.0"
     inkscape:pageopacity="0.0"
     inkscape:pageshadow="2"
     inkscape:zoom="3.959798"
     inkscape:cx="613.24852"
     inkscape:cy="1243.2329"
     inkscape:document-units="px"
     inkscape:current-layer="layer1"
     showgrid="false"
     fit-margin-top="0"
     fit-margin-left="0"
     fit-margin-right="0"
     fit-margin-bottom="0"
     inkscape:window-width="2495"
     inkscape:window-height="1056"
     inkscape:window-x="1985"
     inkscape:window-y="24"
     inkscape:window-maximized="1" />
  <metadata
     id="metadata7">
    <rdf:RDF>
      <cc:Work
         rdf:about="">
        <dc:format>image/svg+xml</dc:format>
        <dc:type
           rdf:resource="http://purl.org/dc/dcmitype/StillImage" />
        <dc:title></dc:title>
      </cc:Work>
    </rdf:RDF>
  </metadata>
  <g
     inkscape:label="Layer 1"
     inkscape:groupmode="layer"
     id="layer1"
     transform="translate(-188.42857,-6.5050397)">
    <image
       y="6.5050397"
       x="188.42857"
       id="image3252"
       xlink:href="file:///home/shawn/Desktop/danceDiagrams/raw/page-386.png"
       height="1566"
       width="1206" />
    <path
       style="fill:none;stroke:#800000"
       d="M 309.28571,818.5 930,818.5"
       id="path3274"
       inkscape:connector-curvature="0"
       transform="translate(188.42857,6.5050397)" />
    <path
       style="fill:none;stroke:#800000"
       d="m 619.64286,214.57143 0,1207.49997"
       id="path3276"
       inkscape:connector-curvature="0"
       transform="translate(188.42857,6.5050397)" />
    <path
       style="fill:none;stroke:#800000"
       d="m 839.28572,1225.6429 c 7.03449,-19.8673 6.17617,-43.9442 -1.07143,-71.4286"
       id="path3278"
       inkscape:connector-curvature="0"
       transform="translate(188.42857,6.5050397)"
       sodipodi:nodetypes="cc" />
    <path
       style="fill:none;stroke:#800000"
       d="m 851.07143,1159.5714 c -5.73239,-34.2798 13.47611,-78.2162 45.71429,-93.2143"
       id="path3280"
       inkscape:connector-curvature="0"
       transform="translate(188.42857,6.5050397)"
       sodipodi:nodetypes="cc" />
    <path
       style="fill:none;stroke:#800000"
       d="m 888.21429,1062.0714 c 9.39225,-11.8253 13.41797,-26.8415 10.35714,-46.0714"
       id="path3282"
       inkscape:connector-curvature="0"
       transform="translate(188.42857,6.5050397)"
       sodipodi:nodetypes="cc" />
    <path
       style="fill:none;stroke:#800000"
       d="M 906.78572,1015.6429 C 901.99765,998.88091 893.1286,980.81927 870.35714,967.78571"
       id="path3284"
       inkscape:connector-curvature="0"
       transform="translate(188.42857,6.5050397)"
       sodipodi:nodetypes="cc" />
    <path
       style="fill:none;stroke:#800000"
       d="M 866.78572,976 C 847.39008,953.32 819.21527,935.74437 771.42857,929.57143"
       id="path3286"
       inkscape:connector-curvature="0"
       transform="translate(188.42857,6.5050397)"
       sodipodi:nodetypes="cc" />
    <path
       style="fill:none;stroke:#800000"
       d="M 767.5,936 C 734.32037,922.64597 703.05308,900.9342 686.42857,865.64286"
       id="path3288"
       inkscape:connector-curvature="0"
       transform="translate(188.42857,6.5050397)"
       sodipodi:nodetypes="cc" />
    <path
       style="fill:none;stroke:#800000"
       d="m 698.57143,862.78571 c -20.29878,-30.39566 -23.51245,-57.13022 -20.35714,-82.5"
       id="path3290"
       inkscape:connector-curvature="0"
       transform="translate(188.42857,6.5050397)"
       sodipodi:nodetypes="cc" />
    <path
       style="fill:none;stroke:#800000"
       d="m 689.64286,774.92857 c 9.34921,-56.25418 6.17381,-112.00061 111.42857,-172.14286"
       id="path3292"
       inkscape:connector-curvature="0"
       transform="translate(188.42857,6.5050397)"
       sodipodi:nodetypes="cc" />
    <path
       style="fill:none;stroke:#800000"
       d="m 800.56635,602.81109 c 35.18199,-22.17205 72.10014,-40.48645 84.07651,-87.52538"
       id="path3294"
       inkscape:connector-curvature="0"
       transform="translate(188.42857,6.5050397)"
       sodipodi:nodetypes="cc" />
    <path
       style="fill:none;stroke:#800000"
       d="m 873.57143,518.5 c 6.26437,-31.99567 9.18493,-65.13314 -11.78571,-106.42857"
       id="path3296"
       inkscape:connector-curvature="0"
       transform="translate(188.42857,6.5050397)"
       sodipodi:nodetypes="cc" />
    <path
       style="fill:none;stroke:#800000"
       d="m 872.5,408.85714 c -3.21641,-18.3053 -10.59506,-35.13647 -45.71428,-42.14286"
       id="path3298"
       inkscape:connector-curvature="0"
       transform="translate(188.42857,6.5050397)"
       sodipodi:nodetypes="cc" />
    <path
       style="fill:none;stroke:#800000"
       d="m 839.28572,382.07143 c 0.32234,-21.50652 -7.23115,-40.17774 -40.35715,-49.64286"
       id="path3300"
       inkscape:connector-curvature="0"
       transform="translate(188.42857,6.5050397)"
       sodipodi:nodetypes="cc" />
    <path
       style="fill:none;stroke:#800000"
       d="M 794.28572,339.92857 C 770.39903,324.50561 743.59445,313.66791 715,305.64286"
       id="path3302"
       inkscape:connector-curvature="0"
       transform="translate(188.42857,6.5050397)"
       sodipodi:nodetypes="cc" />
    <path
       style="fill:none;stroke:#800000"
       d="M 720.71429,298.14286 C 692.16361,289.00721 658.65213,283.8402 620,282.78571"
       id="path3304"
       inkscape:connector-curvature="0"
       transform="translate(188.42857,6.5050397)"
       sodipodi:nodetypes="cc" />
    <path
       style="fill:none;stroke:#800000"
       d="m 620.35714,288.85714 c -28.11537,-5.39602 -58.52822,-4.35909 -90,-0.35714"
       id="path3306"
       inkscape:connector-curvature="0"
       transform="translate(188.42857,6.5050397)"
       sodipodi:nodetypes="cc" />
    <path
       style="fill:none;stroke:#800000"
       d="m 533.92857,297.42857 c -36.0991,-4.54322 -63.27066,25.49067 -98.21428,26.78571"
       id="path3308"
       inkscape:connector-curvature="0"
       transform="translate(188.42857,6.5050397)"
       sodipodi:nodetypes="cc" />
    <path
       style="fill:none;stroke:#800000"
       d="m 436.42857,332.42857 c -22.47833,20.7118 -40.29864,42.85683 -45.35714,68.92857"
       id="path3310"
       inkscape:connector-curvature="0"
       transform="translate(188.42857,6.5050397)"
       sodipodi:nodetypes="cc" />
  </g>
</svg>
