<?xml version="1.0" encoding="UTF-8" standalone="no"?>
<!-- Created with Inkscape (http://www.inkscape.org/) -->

<svg
   xmlns:dc="http://purl.org/dc/elements/1.1/"
   xmlns:cc="http://creativecommons.org/ns#"
   xmlns:rdf="http://www.w3.org/1999/02/22-rdf-syntax-ns#"
   xmlns:svg="http://www.w3.org/2000/svg"
   xmlns="http://www.w3.org/2000/svg"
   xmlns:xlink="http://www.w3.org/1999/xlink"
   xmlns:sodipodi="http://sodipodi.sourceforge.net/DTD/sodipodi-0.dtd"
   xmlns:inkscape="http://www.inkscape.org/namespaces/inkscape"
   width="1206"
   height="1566"
   id="svg4144"
   version="1.1"
   inkscape:version="0.48.4 r9939"
   sodipodi:docname="finnstep_man.svg">
  <defs
     id="defs4146" />
  <sodipodi:namedview
     id="base"
     pagecolor="#ffffff"
     bordercolor="#666666"
     borderopacity="1.0"
     inkscape:pageopacity="0.0"
     inkscape:pageshadow="2"
     inkscape:zoom="22.4"
     inkscape:cx="813.08131"
     inkscape:cy="403.81866"
     inkscape:document-units="px"
     inkscape:current-layer="layer1"
     showgrid="false"
     fit-margin-top="0"
     fit-margin-left="0"
     fit-margin-right="0"
     fit-margin-bottom="0"
     inkscape:window-width="1855"
     inkscape:window-height="1056"
     inkscape:window-x="65"
     inkscape:window-y="24"
     inkscape:window-maximized="1" />
  <metadata
     id="metadata4149">
    <rdf:RDF>
      <cc:Work
         rdf:about="">
        <dc:format>image/svg+xml</dc:format>
        <dc:type
           rdf:resource="http://purl.org/dc/dcmitype/StillImage" />
      </cc:Work>
    </rdf:RDF>
  </metadata>
  <g
     inkscape:label="Layer 1"
     inkscape:groupmode="layer"
     id="layer1"
     transform="translate(-214.14285,7.7806745)">
    <image
       y="-7.7806745"
       x="214.14285"
       id="image5283"
       xlink:href="file:///home/shawn/Desktop/danceDiagrams/raw/page-453.png"
       height="1566"
       width="1206" />
    <path
       style="fill:none;stroke:#800000"
       d="m 280.86746,820.63369 617.03189,0"
       id="path5330"
       inkscape:connector-curvature="0"
       transform="translate(214.14285,-7.7806745)" />
    <path
       style="fill:none;stroke:#800000"
       d="m 585.76221,211.76424 0,1216.98126"
       id="path5332"
       inkscape:connector-curvature="0"
       transform="translate(214.14285,-7.7806745)" />
    <path
       style="fill:none;stroke:#800000"
       d="m 760.53572,271.53571 c -13.52419,0.2485 -26.89193,1.12279 -40.17858,2.32143"
       id="path5334"
       inkscape:connector-curvature="0"
       transform="translate(214.14285,-7.7806745)"
       sodipodi:nodetypes="cc" />
    <path
       style="fill:none;stroke:#800000"
       d="m 720.35714,282.07143 c -13.14655,0.59543 -26.41978,1.54621 -39.82142,2.85714"
       id="path5336"
       inkscape:connector-curvature="0"
       transform="translate(214.14285,-7.7806745)"
       sodipodi:nodetypes="cc" />
    <path
       style="fill:none;stroke:#800000"
       d="m 677.67857,277.07143 c -12.98388,0.80456 -26.06394,1.99386 -39.28571,3.75"
       id="path5338"
       inkscape:connector-curvature="0"
       transform="translate(214.14285,-7.7806745)"
       sodipodi:nodetypes="cc" />
    <path
       style="fill:none;stroke:#800000"
       d="m 636.42857,274.75 c -12.67493,1.4621 -25.77957,3.18203 -39.64285,5.35714"
       id="path5344"
       inkscape:connector-curvature="0"
       transform="translate(214.14285,-7.7806745)"
       sodipodi:nodetypes="cc" />
    <path
       style="fill:none;stroke:#800000"
       d="m 573.75,282.42857 c -1.36905,-0.19087 -2.73809,0.0833 -4.10714,0.35715"
       id="path3078"
       inkscape:connector-curvature="0"
       transform="translate(214.14285,-7.7806745)"
       sodipodi:nodetypes="cc" />
    <path
       style="fill:none;stroke:#800000"
       d="m 554.29469,300.86383 c -1.32492,0.24304 -1.95427,0.68951 -3.15023,1.33386"
       id="path3080"
       inkscape:connector-curvature="0"
       transform="translate(214.14285,-7.7806745)"
       sodipodi:nodetypes="cc" />
    <path
       style="fill:none;stroke:#800000"
       d="m 535.89286,293.67857 c -13.75527,4.20027 -26.71779,8.71765 -39.28572,13.39286"
       id="path5352"
       inkscape:connector-curvature="0"
       transform="translate(214.14285,-7.7806745)"
       sodipodi:nodetypes="cc" />
    <path
       style="fill:none;stroke:#800000"
       d="m 495.35714,307.78571 c -11.20678,2.94397 -22.78502,7.18805 -34.46428,11.78572"
       id="path5354"
       inkscape:connector-curvature="0"
       transform="translate(214.14285,-7.7806745)"
       sodipodi:nodetypes="cc" />
    <path
       style="fill:none;stroke:#800000"
       d="m 460.53572,326 c -12.03437,6.85804 -24.02404,13.74589 -35.35715,21.07143"
       id="path5356"
       inkscape:connector-curvature="0"
       transform="translate(214.14285,-7.7806745)"
       sodipodi:nodetypes="cc" />
    <path
       style="fill:none;stroke:#800000"
       d="m 424.10714,347.60714 c -10.56974,5.80382 -21.33765,12.35883 -32.14285,19.10714"
       id="path5358"
       inkscape:connector-curvature="0"
       transform="translate(214.14285,-7.7806745)"
       sodipodi:nodetypes="cc" />
    <path
       style="fill:none;stroke:#800000"
       d="m 385.35714,361.35714 c -11.08776,8.5551 -21.88795,17.39776 -32.5,26.42857"
       id="path5360"
       inkscape:connector-curvature="0"
       transform="translate(214.14285,-7.7806745)"
       sodipodi:nodetypes="cc" />
    <path
       style="fill:none;stroke:#800000"
       d="m 351.78572,387.96428 c -9.58433,7.37798 -19.04663,15.12203 -28.39286,23.21429"
       id="path5362"
       inkscape:connector-curvature="0"
       transform="translate(214.14285,-7.7806745)"
       sodipodi:nodetypes="cc" />
    <path
       style="fill:none;stroke:#800000"
       d="m 339.28572,415.10714 c -8.20507,7.52291 -13.22173,16.10863 -15.71429,25.53571"
       id="path5364"
       inkscape:connector-curvature="0"
       transform="translate(214.14285,-7.7806745)"
       sodipodi:nodetypes="cc" />
    <path
       style="fill:none;stroke:#800000"
       d="m 313.92857,437.42857 c -6.34567,6.62131 -10.79588,14.92747 -12.85714,25.35714"
       id="path5366"
       inkscape:connector-curvature="0"
       transform="translate(214.14285,-7.7806745)"
       sodipodi:nodetypes="cc" />
    <path
       style="fill:none;stroke:#800000"
       d="m 307.67857,468.32143 c -2.00323,-0.33601 -7.74645,27.02404 -6.96428,28.39285"
       id="path5368"
       inkscape:connector-curvature="0"
       transform="translate(214.14285,-7.7806745)"
       sodipodi:nodetypes="cc" />
    <path
       style="fill:none;stroke:#800000"
       d="m 290.89286,497.96428 c -1.38194,11.04663 -0.69686,20.61681 1.25,29.28572"
       id="path5370"
       inkscape:connector-curvature="0"
       transform="translate(214.14285,-7.7806745)"
       sodipodi:nodetypes="cc" />
    <path
       style="fill:none;stroke:#800000"
       d="m 300.35714,526.71428 c -2.76208,12.94901 -1.0065,20.92858 0.89286,28.75"
       id="path5372"
       inkscape:connector-curvature="0"
       transform="translate(214.14285,-7.7806745)"
       sodipodi:nodetypes="cc" />
    <path
       style="fill:none;stroke:#800000"
       d="m 292.32143,558.14286 c -2.20669,10.71572 0.69047,19.73015 4.10714,28.57142"
       id="path5374"
       inkscape:connector-curvature="0"
       transform="translate(214.14285,-7.7806745)"
       sodipodi:nodetypes="cc" />
    <path
       style="fill:none;stroke:#800000"
       d="m 303.75,585.82143 c 2.5355,7.66686 5.65272,14.81663 16.60714,15"
       id="path3011"
       inkscape:connector-curvature="0"
       transform="translate(214.14285,-7.7806745)"
       sodipodi:nodetypes="cc" />
    <path
       style="fill:none;stroke:#800000"
       d="m 320.35714,599.75 c -1.84856,5.66 -0.65086,11.06614 3.21429,16.25"
       id="path3015"
       inkscape:connector-curvature="0"
       transform="translate(214.14285,-7.7806745)"
       sodipodi:nodetypes="cc" />
    <path
       style="fill:none;stroke:#800000"
       d="m 324.10714,616.89286 c 3.38246,6.4881 6.99199,10.65476 14.28571,15.53572"
       id="path3017"
       inkscape:connector-curvature="0"
       transform="translate(214.14285,-7.7806745)"
       sodipodi:nodetypes="cc" />
    <path
       style="fill:none;stroke:#800000"
       d="m 344.28571,628.5 c 3.32973,9.30313 7.53411,18.1345 15.71429,24.82143"
       id="path3019"
       inkscape:connector-curvature="0"
       transform="translate(214.14285,-7.7806745)"
       sodipodi:nodetypes="cc" />
    <path
       style="fill:none;stroke:#800000"
       d="m 350.35714,654.21429 c 3.07411,8.83641 7.37456,17.32356 16.07144,24.28571"
       id="path3021"
       inkscape:connector-curvature="0"
       transform="translate(214.14285,-7.7806745)"
       sodipodi:nodetypes="cc" />
    <path
       style="fill:none;stroke:#800000"
       d="m 374.46429,675.28571 c 5.50442,6.50185 11.09237,12.90344 18.92857,16.60715"
       id="path3023"
       inkscape:connector-curvature="0"
       transform="translate(214.14285,-7.7806745)"
       sodipodi:nodetypes="cc" />
    <path
       style="fill:none;stroke:#800000"
       d="m 394.10715,692.42857 c 4.89983,3.78848 11.28533,4.99209 18.74999,6.96429"
       id="path3025"
       inkscape:connector-curvature="0"
       transform="translate(214.14285,-7.7806745)"
       sodipodi:nodetypes="cc" />
    <path
       style="fill:none;stroke:#800000"
       d="m 421.78571,700.64286 c 21.01068,-0.0376 37.89054,9.37516 51.78572,25"
       id="path3027"
       inkscape:connector-curvature="0"
       transform="translate(214.14285,-7.7806745)"
       sodipodi:nodetypes="cc" />
    <path
       style="fill:none;stroke:#800000"
       d="m 467.32143,730.46429 c 19.19242,10.09513 33.1695,23.78704 38.57143,43.39285"
       id="path3029"
       inkscape:connector-curvature="0"
       transform="translate(214.14285,-7.7806745)"
       sodipodi:nodetypes="cc" />
    <path
       style="fill:none;stroke:#800000"
       d="m 511.60714,764.03571 c 46.10506,34.35852 48.94781,81.44032 48.75,117.67858"
       id="path3031"
       inkscape:connector-curvature="0"
       transform="translate(214.14285,-7.7806745)"
       sodipodi:nodetypes="cc" />
    <path
       style="fill:none;stroke:#800000"
       d="m 568.57143,877.07143 c 8.33698,19.91543 11.11333,41.9051 1.07143,60.53571"
       id="path3033"
       inkscape:connector-curvature="0"
       transform="translate(214.14285,-7.7806745)"
       sodipodi:nodetypes="cc" />
    <path
       style="fill:none;stroke:#800000"
       d="m 569.64286,936.89286 c 8.7288,13.39468 4.72379,41.25728 -4.82143,56.25"
       id="path3035"
       inkscape:connector-curvature="0"
       transform="translate(214.14285,-7.7806745)"
       sodipodi:nodetypes="cc" />
    <path
       style="fill:none;stroke:#800000"
       d="m 564.46429,992.78571 c 6.72061,7.01375 -0.32508,13.86369 -4.10715,13.92859"
       id="path3037"
       inkscape:connector-curvature="0"
       transform="translate(214.14285,-7.7806745)"
       sodipodi:nodetypes="cc" />
    <path
       style="fill:none;stroke:#800000"
       d="m 561.42857,1006.5357 c 7.69434,27.6201 -20.19365,64.3543 -43.57143,71.25"
       id="path3039"
       inkscape:connector-curvature="0"
       transform="translate(214.14285,-7.7806745)"
       sodipodi:nodetypes="cc" />
    <path
       style="fill:none;stroke:#800000"
       d="m 512.5,1072.6071 c -2.1814,11.3216 -10.2939,15.7721 -20.35714,14.4643"
       id="path3041"
       inkscape:connector-curvature="0"
       transform="translate(214.14285,-7.7806745)"
       sodipodi:nodetypes="cc" />
    <path
       style="fill:none;stroke:#800000"
       d="m 492.32142,1087.0715 c -1.97374,20.8883 -13.41368,28.7042 -25.17856,36.0714"
       id="path3043"
       inkscape:connector-curvature="0"
       transform="translate(214.14285,-7.7806745)"
       sodipodi:nodetypes="cc" />
    <path
       style="fill:none;stroke:#800000"
       d="m 459.64286,1117.4286 c -1.07886,15.5751 -37.00247,39.3532 -52.5,40.3571"
       id="path3045"
       inkscape:connector-curvature="0"
       transform="translate(214.14285,-7.7806745)"
       sodipodi:nodetypes="cc" />
    <path
       style="fill:none;stroke:#800000"
       d="m 408.21429,1164.9286 c -17.32693,19.0833 -37.322,26.6046 -58.92858,27.1428"
       id="path3047"
       inkscape:connector-curvature="0"
       transform="translate(214.14285,-7.7806745)"
       sodipodi:nodetypes="cc" />
    <path
       style="fill:none;stroke:#800000"
       d="m 339.33036,1191.6696 c -0.76768,0.5953 -1.47786,1.1905 -2.00893,1.7858"
       id="path3082"
       inkscape:connector-curvature="0"
       transform="translate(214.14285,-7.7806745)"
       sodipodi:nodetypes="cc" />
    <path
       style="fill:none;stroke:#800000"
       d="m 329.82143,1209.9732 c -0.53852,0.2614 -1.17398,0.8136 -1.83036,1.4286"
       id="path3084"
       inkscape:connector-curvature="0"
       transform="translate(214.14285,-7.7806745)"
       sodipodi:nodetypes="cc" />
    <path
       style="fill:none;stroke:#800000"
       d="m 318.92857,1216.7143 c -19.17665,17.6711 -23.53671,35.7911 -27.32143,53.9286"
       id="path3053"
       inkscape:connector-curvature="0"
       transform="translate(214.14285,-7.7806745)"
       sodipodi:nodetypes="cc" />
    <path
       style="fill:none;stroke:#800000"
       d="m 300.71429,1274.9286 c -2.83069,11.121 -2.92549,18.1382 -1.96429,23.5714"
       id="path3055"
       inkscape:connector-curvature="0"
       transform="translate(214.14285,-7.7806745)"
       sodipodi:nodetypes="cc" />
    <path
       style="fill:none;stroke:#800000"
       d="m 291.25,1300.1071 c -1.85174,10.5431 -0.28899,17.2448 1.60714,23.5715"
       id="path3057"
       inkscape:connector-curvature="0"
       transform="translate(214.14285,-7.7806745)"
       sodipodi:nodetypes="cc" />
    <path
       style="fill:none;stroke:#800000"
       d="m 301.96429,1323.8571 c -0.95371,23.4554 8.29258,39.5246 21.07142,53.0358"
       id="path3059"
       inkscape:connector-curvature="0"
       transform="translate(214.14285,-7.7806745)"
       sodipodi:nodetypes="cc" />
    <path
       style="fill:none;stroke:#800000"
       d="m 319.46429,1385.8214 c 11.89458,16.2442 26.37419,28.9186 48.21428,31.4286"
       id="path3061"
       inkscape:connector-curvature="0"
       transform="translate(214.14285,-7.7806745)"
       sodipodi:nodetypes="cc" />
    <path
       style="fill:none;stroke:#800000"
       d="m 371.25,1411.1786 c 77.09421,18.4972 151.63885,-17.4908 151.07143,-96.6072"
       id="path3063"
       inkscape:connector-curvature="0"
       transform="translate(214.14285,-7.7806745)"
       sodipodi:nodetypes="cc" />
    <path
       style="fill:none;stroke:#800000"
       d="m 522.14286,1314.2143 c 5.98533,0.1812 8.6446,0.7598 15.71428,2.3214"
       id="path3065"
       inkscape:connector-curvature="0"
       transform="translate(214.14285,-7.7806745)"
       sodipodi:nodetypes="cc" />
    <path
       style="fill:none;stroke:#800000"
       d="m 522.32143,1307.9643 c -2.3874,-22.8584 -1.33506,-45.0289 26.78571,-61.7857"
       id="path3067"
       inkscape:connector-curvature="0"
       transform="translate(214.14285,-7.7806745)"
       sodipodi:nodetypes="cc" />
    <path
       style="fill:none;stroke:#800000"
       d="m 541.07142,1257.7857 c -4.16583,-29.7623 5.71511,-48.6888 29.64287,-57.5"
       id="path3069"
       inkscape:connector-curvature="0"
       transform="translate(214.14285,-7.7806745)"
       sodipodi:nodetypes="cc" />
    <path
       style="fill:none;stroke:#800000"
       d="m 574.46429,1206.3571 c 47.21824,3.836 83.57259,1.6166 101.78571,-10.7142"
       id="path3071"
       inkscape:connector-curvature="0"
       transform="translate(214.14285,-7.7806745)"
       sodipodi:nodetypes="cc" />
    <path
       style="fill:none;stroke:#800000"
       d="m 676.60714,1195.6429 c 4.63368,7.2058 13.44137,4.9624 16.25,-2.1429"
       id="path3073"
       inkscape:connector-curvature="0"
       transform="translate(214.14285,-7.7806745)"
       sodipodi:nodetypes="cc" />
    <path
       style="fill:none;stroke:#800000"
       d="m 692.5,1193.8571 c 46.56122,11.3544 100.34467,-4.0443 118.57143,-39.6428"
       id="path3075"
       inkscape:connector-curvature="0"
       transform="translate(214.14285,-7.7806745)"
       sodipodi:nodetypes="cc" />
    <path
       style="fill:none;stroke:#800000"
       d="m 817.00893,1152.2054 c 0.49625,-0.3604 0.84282,-0.7706 0.98214,-1.25"
       id="path3086"
       inkscape:connector-curvature="0"
       transform="translate(214.14285,-7.7806745)"
       sodipodi:nodetypes="cc" />
    <path
       style="fill:none;stroke:#800000"
       d="M 808.57143,1146.8929 C 801.50254,1142.6482 795.16646,1138.2203 790,1133.5"
       id="path3079"
       inkscape:connector-curvature="0"
       transform="translate(214.14285,-7.7806745)"
       sodipodi:nodetypes="cc" />
    <path
       style="fill:none;stroke:#800000"
       d="m 792.5,1128.1429 c -7.19372,-3.4611 -13.46101,-7.8485 -18.75,-13.2143"
       id="path3081"
       inkscape:connector-curvature="0"
       transform="translate(214.14285,-7.7806745)"
       sodipodi:nodetypes="cc" />
    <path
       style="fill:none;stroke:#800000"
       d="m 769.82143,1121.1786 c -7.8779,-3.1936 -14.13857,-8.0043 -19.64286,-13.5715"
       id="path3083"
       inkscape:connector-curvature="0"
       transform="translate(214.14285,-7.7806745)"
       sodipodi:nodetypes="cc" />
    <path
       style="fill:none;stroke:#800000"
       d="m 755.71429,1102.25 c -20.48383,-4.2493 -34.49558,-17.7444 -45,-36.25"
       id="path3085"
       inkscape:connector-curvature="0"
       transform="translate(214.14285,-7.7806745)"
       sodipodi:nodetypes="cc" />
    <path
       style="fill:none;stroke:#800000"
       d="m 704.46429,1069.9286 c -25.0053,-8.3997 -39.44957,-24.0473 -40.17858,-49.1072"
       id="path3087"
       inkscape:connector-curvature="0"
       transform="translate(214.14285,-7.7806745)"
       sodipodi:nodetypes="cc" />
    <path
       style="fill:none;stroke:#800000"
       d="m 670.89286,1029.75 c -12.45869,-2.8345 -22.35898,-11.6386 -30.53572,-24.4643"
       id="path3089"
       inkscape:connector-curvature="0"
       transform="translate(214.14285,-7.7806745)"
       sodipodi:nodetypes="cc" />
    <path
       style="fill:none;stroke:#800000"
       d="m 644.28571,1001.3571 c -6.3024,-4.89235 -9.23923,-12.75737 -12.67857,-20.17853"
       id="path3091"
       inkscape:connector-curvature="0"
       transform="translate(214.14285,-7.7806745)"
       sodipodi:nodetypes="cc" />
    <path
       style="fill:none;stroke:#800000"
       d="m 635.53571,977.96429 c -5.34314,-6.38155 -7.16406,-13.76945 -9.28571,-21.07143"
       id="path3093"
       inkscape:connector-curvature="0"
       transform="translate(214.14285,-7.7806745)"
       sodipodi:nodetypes="cc" />
    <path
       style="fill:none;stroke:#800000"
       d="m 631.42857,955.82143 c -1.20681,-4.73694 -3.78439,-8.37726 -7.32143,-11.25"
       id="path3095"
       inkscape:connector-curvature="0"
       transform="translate(214.14285,-7.7806745)"
       sodipodi:nodetypes="cc" />
    <path
       style="fill:none;stroke:#800000"
       d="M 626.60714,941.53571 C 624.75651,938.14609 621.73157,935.46105 617.5,933.5"
       id="path3097"
       inkscape:connector-curvature="0"
       transform="translate(214.14285,-7.7806745)"
       sodipodi:nodetypes="cc" />
    <path
       style="fill:none;stroke:#800000"
       d="m 613.21429,938.67857 c -13.09278,-8.36893 -14.76167,-21.05398 -12.32143,-33.75"
       id="path3099"
       inkscape:connector-curvature="0"
       transform="translate(214.14285,-7.7806745)"
       sodipodi:nodetypes="cc" />
    <path
       style="fill:none;stroke:#800000"
       d="m 607.32143,916.53571 c -14.04964,-6.4938 -18.13787,-18.39523 -15.53572,-33.92857"
       id="path3101"
       inkscape:connector-curvature="0"
       transform="translate(214.14285,-7.7806745)"
       sodipodi:nodetypes="cc" />
    <path
       style="fill:none;stroke:#800000"
       d="m 586.96429,879.75 c 2.48333,-7.10873 5.27041,-14.11621 11.96428,-19.82143"
       id="path3103"
       inkscape:connector-curvature="0"
       transform="translate(214.14285,-7.7806745)"
       sodipodi:nodetypes="cc" />
    <path
       style="fill:none;stroke:#800000"
       d="m 598.75,860.46429 c 5.44856,2.68176 4.63543,1.50521 7.14286,5.35714"
       id="path3105"
       inkscape:connector-curvature="0"
       transform="translate(214.14285,-7.7806745)"
       sodipodi:nodetypes="cc" />
    <path
       style="fill:none;stroke:#800000"
       d="m 601.42857,854.92857 c 5.93761,-3.54636 11.01612,-9.09731 14.10714,-19.28571"
       id="path3107"
       inkscape:connector-curvature="0"
       transform="translate(214.14285,-7.7806745)"
       sodipodi:nodetypes="cc" />
    <path
       style="fill:none;stroke:#800000"
       d="m 607.85714,831.53571 c 2.89927,-5.18768 6.19216,-5.45516 8.21429,-21.60714"
       id="path3109"
       inkscape:connector-curvature="0"
       transform="translate(214.14285,-7.7806745)"
       sodipodi:nodetypes="cc" />
    <path
       style="fill:none;stroke:#800000"
       d="m 615.71429,808.5 c 2.62352,-7.23908 3.79475,-15.44635 2.14285,-25.53571"
       id="path3111"
       inkscape:connector-curvature="0"
       transform="translate(214.14285,-7.7806745)"
       sodipodi:nodetypes="cc" />
    <path
       style="fill:none;stroke:#800000"
       d="m 618.21429,780.82143 c 1.02756,-8.90414 3.68576,-16.50377 9.46428,-21.60714"
       id="path3113"
       inkscape:connector-curvature="0"
       transform="translate(214.14285,-7.7806745)"
       sodipodi:nodetypes="cc" />
    <path
       style="fill:none;stroke:#800000"
       d="m 630.71429,759.75 c 6.48832,-5.67592 13.2977,-9.67293 20.53571,-11.42857"
       id="path3115"
       inkscape:connector-curvature="0"
       transform="translate(214.14285,-7.7806745)"
       sodipodi:nodetypes="cc" />
    <path
       style="fill:none;stroke:#800000"
       d="m 654.64286,752.07143 c 7.03142,-0.44441 13.97596,-1.93133 20.53571,-8.03572"
       id="path3117"
       inkscape:connector-curvature="0"
       transform="translate(214.14285,-7.7806745)"
       sodipodi:nodetypes="cc" />
    <path
       style="fill:none;stroke:#800000"
       d="m 676.07143,743.67857 c 3.12247,-2.9312 6.17257,-6.10847 6.96428,-16.96428"
       id="path3119"
       inkscape:connector-curvature="0"
       transform="translate(214.14285,-7.7806745)"
       sodipodi:nodetypes="cc" />
    <path
       style="fill:none;stroke:#800000"
       d="m 668.92857,737.78571 c 5.81726,1.99325 12.39357,1.57587 15.17857,-0.35714"
       id="path3121"
       inkscape:connector-curvature="0"
       transform="translate(214.14285,-7.7806745)"
       sodipodi:nodetypes="cc" />
    <path
       style="fill:none;stroke:#800000"
       d="m 685.17857,736.89286 c 7.68959,-3.54718 12.75951,-10.83676 17.14286,-19.10715"
       id="path3123"
       inkscape:connector-curvature="0"
       transform="translate(214.14285,-7.7806745)"
       sodipodi:nodetypes="cc" />
    <path
       style="fill:none;stroke:#800000"
       d="m 704.64286,713.5 c 1.78643,-8.17654 -1.48989,-15.43257 -4.82143,-22.67857"
       id="path3125"
       inkscape:connector-curvature="0"
       transform="translate(214.14285,-7.7806745)"
       sodipodi:nodetypes="cc" />
    <path
       style="fill:none;stroke:#800000"
       d="m 700.09749,691.1371 c -2.26351,0.53128 -4.565,1.49005 -6.8832,2.54147"
       id="path3127"
       inkscape:connector-curvature="0"
       transform="translate(214.14285,-7.7806745)"
       sodipodi:nodetypes="cc" />
    <path
       style="fill:none;stroke:#800000"
       d="m 699.10714,687.07143 c -6.55899,-6.46914 -8.19516,-13.78219 -8.92857,-21.25"
       id="path3129"
       inkscape:connector-curvature="0"
       transform="translate(214.14285,-7.7806745)"
       sodipodi:nodetypes="cc" />
    <path
       style="fill:none;stroke:#800000"
       d="M 690.71429,659.92857 C 646.99935,630.44594 659.78971,581.37279 643.92857,577.25"
       id="path3131"
       inkscape:connector-curvature="0"
       transform="translate(214.14285,-7.7806745)"
       sodipodi:nodetypes="cc" />
    <path
       style="fill:none;stroke:#800000"
       d="m 644.46428,577.60714 c 2.80213,-2.30338 6.16336,-8.26324 5.17858,-19.82143"
       id="path3133"
       inkscape:connector-curvature="0"
       transform="translate(214.14285,-7.7806745)"
       sodipodi:nodetypes="cc" />
    <path
       style="fill:none;stroke:#800000"
       d="M 649.64285,557.07143 C 648.98829,549.5985 649.49141,543.99879 652.5,538.85714"
       id="path3135"
       inkscape:connector-curvature="0"
       transform="translate(214.14285,-7.7806745)"
       sodipodi:nodetypes="cc" />
    <path
       style="fill:none;stroke:#800000"
       d="M 647.85714,534.21429 C 670.66197,494.09794 701.13408,468.94426 745,469.92857"
       id="path3137"
       inkscape:connector-curvature="0"
       transform="translate(214.14285,-7.7806745)"
       sodipodi:nodetypes="cc" />
    <path
       style="fill:none;stroke:#800000"
       d="m 745,469.75 c 1.22611,5.67845 1.43951,10.01641 0.71429,14.10714"
       id="path3139"
       inkscape:connector-curvature="0"
       transform="translate(214.14285,-7.7806745)"
       sodipodi:nodetypes="cc" />
    <path
       style="fill:none;stroke:#800000"
       d="m 751.07143,470.28571 c 29.08704,9.68203 73.52801,-3.8291 75,-39.64285"
       id="path3141"
       inkscape:connector-curvature="0"
       transform="translate(214.14285,-7.7806745)"
       sodipodi:nodetypes="cc" />
    <path
       style="fill:none;stroke:#800000"
       d="m 825.71429,431.35714 c 17.89031,-3.3936 49.75933,-14.65095 50.71429,-54.64286"
       id="path3143"
       inkscape:connector-curvature="0"
       transform="translate(214.14285,-7.7806745)"
       sodipodi:nodetypes="cc" />
    <path
       style="fill:none;stroke:#800000"
       d="m 876.25,376.35715 c 4.72558,-0.7003 6.0991,-6.97946 -1.07143,-9.46429"
       id="path3145"
       inkscape:connector-curvature="0"
       transform="translate(214.14285,-7.7806745)"
       sodipodi:nodetypes="cc" />
    <path
       style="fill:none;stroke:#800000"
       d="M 875.53571,366.89286 C 881.25573,363.5339 880.71739,357.69009 873.92857,356"
       id="path3147"
       inkscape:connector-curvature="0"
       transform="translate(214.14285,-7.7806745)"
       sodipodi:nodetypes="cc" />
    <path
       style="fill:none;stroke:#800000"
       d="m 873.92857,356.53571 c 5.91766,-3.83876 3.04035,-9.57588 -1.25,-11.07142"
       id="path3151"
       inkscape:connector-curvature="0"
       transform="translate(214.14285,-7.7806745)"
       sodipodi:nodetypes="cc" />
    <path
       style="fill:none;stroke:#800000"
       d="m 871.78571,341.89286 c 1.17313,-3.28248 -0.14186,-7.80903 -1.78571,-12.5"
       id="path3153"
       inkscape:connector-curvature="0"
       transform="translate(214.14285,-7.7806745)"
       sodipodi:nodetypes="cc" />
    <path
       style="fill:none;stroke:#800000"
       d="m 876.42857,326.71429 c -0.53995,-4.54593 -2.43733,-8.54888 -5.35714,-12.14286"
       id="path3155"
       inkscape:connector-curvature="0"
       transform="translate(214.14285,-7.7806745)"
       sodipodi:nodetypes="cc" />
    <path
       style="fill:none;stroke:#800000"
       d="M 865.35714,318.85714 C 862.53072,310.30939 858.18329,303.53617 852.5,298.32143"
       id="path3157"
       inkscape:connector-curvature="0"
       transform="translate(214.14285,-7.7806745)"
       sodipodi:nodetypes="cc" />
    <path
       style="fill:none;stroke:#800000"
       d="M 859.10714,292.60714 C 854.67793,286.36937 848.53367,280.98912 841.25,276.17857"
       id="path3159"
       inkscape:connector-curvature="0"
       transform="translate(214.14285,-7.7806745)"
       sodipodi:nodetypes="cc" />
    <path
       style="fill:none;stroke:#800000"
       d="m 835.53571,278.5 c -16.65119,-12.51707 -36.97586,-11.56471 -57.85714,-8.57143"
       id="path3161"
       inkscape:connector-curvature="0"
       transform="translate(214.14285,-7.7806745)"
       sodipodi:nodetypes="cc" />
  </g>
</svg>
