<?xml version="1.0" encoding="UTF-8" standalone="no"?>
<!-- Created with Inkscape (http://www.inkscape.org/) -->

<svg
   xmlns:dc="http://purl.org/dc/elements/1.1/"
   xmlns:cc="http://creativecommons.org/ns#"
   xmlns:rdf="http://www.w3.org/1999/02/22-rdf-syntax-ns#"
   xmlns:svg="http://www.w3.org/2000/svg"
   xmlns="http://www.w3.org/2000/svg"
   xmlns:xlink="http://www.w3.org/1999/xlink"
   xmlns:sodipodi="http://sodipodi.sourceforge.net/DTD/sodipodi-0.dtd"
   xmlns:inkscape="http://www.inkscape.org/namespaces/inkscape"
   width="1206"
   height="1566"
   id="svg2"
   version="1.1"
   inkscape:version="0.48.4 r9939"
   sodipodi:docname="finnstep_lady.svg">
  <defs
     id="defs4" />
  <sodipodi:namedview
     id="base"
     pagecolor="#ffffff"
     bordercolor="#666666"
     borderopacity="1.0"
     inkscape:pageopacity="0.0"
     inkscape:pageshadow="2"
     inkscape:zoom="11.2"
     inkscape:cx="848.26864"
     inkscape:cy="1155.8206"
     inkscape:document-units="px"
     inkscape:current-layer="layer1"
     showgrid="false"
     fit-margin-top="0"
     fit-margin-left="0"
     fit-margin-right="0"
     fit-margin-bottom="0"
     inkscape:window-width="2495"
     inkscape:window-height="1056"
     inkscape:window-x="1985"
     inkscape:window-y="24"
     inkscape:window-maximized="1" />
  <metadata
     id="metadata7">
    <rdf:RDF>
      <cc:Work
         rdf:about="">
        <dc:format>image/svg+xml</dc:format>
        <dc:type
           rdf:resource="http://purl.org/dc/dcmitype/StillImage" />
        <dc:title></dc:title>
      </cc:Work>
    </rdf:RDF>
  </metadata>
  <g
     inkscape:label="Layer 1"
     inkscape:groupmode="layer"
     id="layer1"
     transform="translate(-225.57143,-23.647898)">
    <image
       y="23.647898"
       x="225.57143"
       id="image3060"
       xlink:href="file:///home/shawn/Desktop/danceDiagrams/raw/page-454.png"
       height="1566"
       width="1206" />
    <path
       style="fill:none;stroke:#800000"
       d="m 308.21429,818.14286 622.85714,0"
       id="path3063"
       inkscape:connector-curvature="0"
       transform="translate(225.57143,23.647898)" />
    <path
       style="fill:none;stroke:#800000"
       d="m 619.64286,211 0,1214.2857"
       id="path3065"
       inkscape:connector-curvature="0"
       transform="translate(225.57143,23.647898)" />
    <path
       style="fill:none;stroke:#800000"
       d="m 796.75782,268.96413 c -14.97696,0.54891 -28.11422,1.55774 -40.4061,2.77792"
       id="path3086"
       inkscape:connector-curvature="0"
       transform="translate(225.57143,23.647898)"
       sodipodi:nodetypes="cc" />
    <path
       style="fill:none;stroke:#800000"
       d="m 756.35172,278.81312 c -12.57462,0.73147 -25.9813,1.87897 -39.90103,3.28299"
       id="path3088"
       inkscape:connector-curvature="0"
       transform="translate(225.57143,23.647898)"
       sodipodi:nodetypes="cc" />
    <path
       style="fill:none;stroke:#800000"
       d="m 715.188,274.51997 c -14.99746,0.80542 -29.01468,1.80688 -40.65864,3.283"
       id="path3090"
       inkscape:connector-curvature="0"
       transform="translate(225.57143,23.647898)"
       sodipodi:nodetypes="cc" />
    <path
       style="fill:none;stroke:#800000"
       d="m 673.26667,271.99459 c -12.40675,1.85195 -25.90807,3.70389 -39.64849,5.55584"
       id="path3092"
       inkscape:connector-curvature="0"
       transform="translate(225.57143,23.647898)"
       sodipodi:nodetypes="cc" />
    <path
       style="fill:none;stroke:#800000"
       d="m 608.36437,280.83342 c -1.56149,0.23358 -2.95118,0.38126 -5.80838,1.26269"
       id="path3094"
       inkscape:connector-curvature="0"
       transform="translate(225.57143,23.647898)"
       sodipodi:nodetypes="cc" />
    <path
       style="fill:none;stroke:#800000"
       d="m 588.6664,299.01617 c -1.54227,0.47651 -2.96428,0.89288 -5.80838,2.0203"
       id="path3096"
       inkscape:connector-curvature="0"
       transform="translate(225.57143,23.647898)"
       sodipodi:nodetypes="cc" />
    <path
       style="fill:none;stroke:#800000"
       d="m 572.50396,290.68241 c -13.81807,4.35312 -26.66585,8.94881 -39.14342,13.63706"
       id="path3098"
       inkscape:connector-curvature="0"
       transform="translate(225.57143,23.647898)"
       sodipodi:nodetypes="cc" />
    <path
       style="fill:none;stroke:#800000"
       d="m 532.09785,304.82455 c -11.87407,3.60538 -23.56539,7.759 -35.1028,12.37436"
       id="path3100"
       inkscape:connector-curvature="0"
       transform="translate(225.57143,23.647898)"
       sodipodi:nodetypes="cc" />
    <path
       style="fill:none;stroke:#800000"
       d="m 497.75267,322.75475 c -11.63502,7.15525 -23.55146,14.3105 -35.86042,21.46575 l 0,0"
       id="path3102"
       inkscape:connector-curvature="0"
       transform="translate(225.57143,23.647898)"
       sodipodi:nodetypes="ccc" />
    <path
       style="fill:none;stroke:#800000"
       d="m 460.62956,344.72557 c -10.6066,6.20226 -21.2132,12.65594 -31.8198,19.1929"
       id="path3104"
       inkscape:connector-curvature="0"
       transform="translate(225.57143,23.647898)"
       sodipodi:nodetypes="cc" />
    <path
       style="fill:none;stroke:#800000"
       d="m 423.25392,358.61517 c -12.86897,9.99547 -23.31224,18.53161 -32.82996,26.5165"
       id="path3106"
       inkscape:connector-curvature="0"
       transform="translate(225.57143,23.647898)"
       sodipodi:nodetypes="cc" />
    <path
       style="fill:none;stroke:#800000"
       d="m 388.90873,386.39436 c -8.36573,6.17707 -18.26431,13.88699 -28.28427,21.71828"
       id="path3108"
       inkscape:connector-curvature="0"
       transform="translate(225.57143,23.647898)"
       sodipodi:nodetypes="cc" />
    <path
       style="fill:none;stroke:#800000"
       d="m 376.02929,412.40579 c -6.13733,7.38032 -11.29273,15.54619 -15.15229,24.74874"
       id="path3110"
       inkscape:connector-curvature="0"
       transform="translate(225.57143,23.647898)"
       sodipodi:nodetypes="cc" />
    <path
       style="fill:none;stroke:#800000"
       d="m 351.78562,433.9978 c -7.65674,9.85948 -10.70717,17.74482 -13.76332,25.63262"
       id="path3112"
       inkscape:connector-curvature="0"
       transform="translate(225.57143,23.647898)"
       sodipodi:nodetypes="cc" />
    <path
       style="fill:none;stroke:#800000"
       d="m 343.45187,461.777 c -4.07777,8.47038 -9.34817,27.77349 -3.283,28.66307"
       id="path3114"
       inkscape:connector-curvature="0"
       transform="translate(225.57143,23.647898)"
       sodipodi:nodetypes="cc" />
    <path
       style="fill:none;stroke:#800000"
       d="m 339.91634,490.18754 c -4.03088,-1.3953 -8.12193,9.3541 -2.39912,11.23794"
       id="path3116"
       inkscape:connector-curvature="0"
       transform="translate(225.57143,23.647898)"
       sodipodi:nodetypes="cc" />
    <path
       style="fill:none;stroke:#800000"
       d="m 337.13841,501.17295 c -5.32418,3.1287 -5.66086,6.84663 -1.89403,11.99556"
       id="path3118"
       inkscape:connector-curvature="0"
       transform="translate(225.57143,23.647898)"
       sodipodi:nodetypes="cc" />
    <path
       style="fill:none;stroke:#800000"
       d="m 335.11811,512.7897 c -3.45651,2.6067 -5.30793,5.81049 -2.77793,11.74302"
       id="path3120"
       inkscape:connector-curvature="0"
       transform="translate(225.57143,23.647898)"
       sodipodi:nodetypes="cc" />
    <path
       style="fill:none;stroke:#800000"
       d="m 337.89603,523.52257 c -2.09859,9.68063 -0.65224,19.36126 0.50507,29.04189"
       id="path3122"
       inkscape:connector-curvature="0"
       transform="translate(225.57143,23.647898)"
       sodipodi:nodetypes="cc" />
    <path
       style="fill:none;stroke:#800000"
       d="m 332.719,554.58476 c -1.15185,9.51227 0.96768,19.02454 4.16687,28.53681"
       id="path3124"
       inkscape:connector-curvature="0"
       transform="translate(225.57143,23.647898)"
       sodipodi:nodetypes="cc" />
    <path
       style="fill:none;stroke:#800000"
       d="m 342.06291,582.6165 c 3.28176,9.85777 8.00581,19.68692 14.64721,28.53681"
       id="path3126"
       inkscape:connector-curvature="0"
       transform="translate(225.57143,23.647898)"
       sodipodi:nodetypes="cc" />
    <path
       style="fill:none;stroke:#800000"
       d="m 357.2152,611.78465 c 4.26978,6.36928 9.32347,12.78451 16.41497,19.31917"
       id="path3128"
       inkscape:connector-curvature="0"
       transform="translate(225.57143,23.647898)"
       sodipodi:nodetypes="cc" />
    <path
       style="fill:none;stroke:#800000"
       d="m 377.16571,636.40712 c 3.92287,7.19441 8.95705,13.09228 14.89975,17.93021"
       id="path3130"
       inkscape:connector-curvature="0"
       transform="translate(225.57143,23.647898)"
       sodipodi:nodetypes="cc" />
    <path
       style="fill:none;stroke:#800000"
       d="m 389.66634,660.01943 c 4.91273,7.00257 10.87096,12.61115 17.80394,16.92006"
       id="path3132"
       inkscape:connector-curvature="0"
       transform="translate(225.57143,23.647898)"
       sodipodi:nodetypes="cc" />
    <path
       style="fill:none;stroke:#800000"
       d="m 411.76343,673.90903 c 4.02082,5.50134 9.61415,9.59095 18.30902,8.08122"
       id="path3134"
       inkscape:connector-curvature="0"
       transform="translate(225.57143,23.647898)"
       sodipodi:nodetypes="cc" />
    <path
       style="fill:none;stroke:#800000"
       d="m 429.69364,682.24279 c 2.54682,12.89676 18.64022,21.0001 26.39023,20.07678"
       id="path3136"
       inkscape:connector-curvature="0"
       transform="translate(225.57143,23.647898)"
       sodipodi:nodetypes="cc" />
    <path
       style="fill:none;stroke:#800000"
       d="m 464.1651,693.60701 c 22.9962,3.95179 35.30914,15.41419 39.77475,33.84011"
       id="path3138"
       inkscape:connector-curvature="0"
       transform="translate(225.57143,23.647898)"
       sodipodi:nodetypes="cc" />
    <path
       style="fill:none;stroke:#800000"
       d="m 503.56104,727.06831 c 39.07212,-4.23218 49.61472,60.99665 74.87756,61.87184"
       id="path3140"
       inkscape:connector-curvature="0"
       transform="translate(225.57143,23.647898)"
       sodipodi:nodetypes="cc" />
    <path
       style="fill:none;stroke:#800000"
       d="m 577.93353,788.56135 c -3.27178,14.7027 9.08185,13.10251 9.97525,19.31916"
       id="path3142"
       inkscape:connector-curvature="0"
       transform="translate(225.57143,23.647898)"
       sodipodi:nodetypes="cc" />
    <path
       style="fill:none;stroke:#800000"
       d="m 588.16132,808.63813 c 1.18635,4.07824 2.20218,10.77104 2.52538,14.39467"
       id="path3144"
       inkscape:connector-curvature="0"
       transform="translate(225.57143,23.647898)"
       sodipodi:nodetypes="cc" />
    <path
       style="fill:none;stroke:#800000"
       d="m 595.73746,819.87608 c 7.60347,9.45717 14.93561,30.99087 18.30902,65.78618"
       id="path3146"
       inkscape:connector-curvature="0"
       transform="translate(225.57143,23.647898)"
       sodipodi:nodetypes="cc" />
    <path
       style="fill:none;stroke:#800000"
       d="m 606.97541,886.54614 c 9.10821,29.58113 7.10529,63.60661 -5.05077,75.00383"
       id="path3148"
       inkscape:connector-curvature="0"
       transform="translate(225.57143,23.647898)"
       sodipodi:nodetypes="cc" />
    <path
       style="fill:none;stroke:#800000"
       d="m 602.05092,960.91862 c 3.55715,7.58425 1.90701,13.49987 -5.30331,17.04632"
       id="path3150"
       inkscape:connector-curvature="0"
       transform="translate(225.57143,23.647898)"
       sodipodi:nodetypes="cc" />
    <path
       style="fill:none;stroke:#800000"
       d="m 597.00016,977.83868 c 6.3677,7.54691 2.11836,16.93398 -5.17704,18.05647"
       id="path3152"
       inkscape:connector-curvature="0"
       transform="translate(225.57143,23.647898)"
       sodipodi:nodetypes="cc" />
    <path
       style="fill:none;stroke:#800000"
       d="m 592.45447,995.76889 c 2.96755,23.00831 -19.61589,56.82741 -37.88072,67.17511"
       id="path3154"
       inkscape:connector-curvature="0"
       transform="translate(225.57143,23.647898)"
       sodipodi:nodetypes="cc" />
    <path
       style="fill:none;stroke:#800000"
       d="m 550.78568,1068.4999 c -8.62407,21.686 -23.93357,34.9352 -42.80522,43.6891"
       id="path3156"
       inkscape:connector-curvature="0"
       transform="translate(225.57143,23.647898)"
       sodipodi:nodetypes="cc" />
    <path
       style="fill:none;stroke:#800000"
       d="m 497.6264,1113.0729 c -12.02265,21.7193 -29.85665,34.6386 -53.66436,38.512"
       id="path3158"
       inkscape:connector-curvature="0"
       transform="translate(225.57143,23.647898)"
       sodipodi:nodetypes="cc" />
    <path
       style="fill:none;stroke:#800000"
       d="m 446.36116,1158.7822 c -13.81236,15.9163 -32.55173,26.856 -60.10408,27.0216"
       id="path3160"
       inkscape:connector-curvature="0"
       transform="translate(225.57143,23.647898)"
       sodipodi:nodetypes="cc" />
    <path
       style="fill:none;stroke:#800000"
       d="m 375.90302,1187.4453 c -2.4018,1.4881 -3.75373,2.6262 -5.17704,3.7881"
       id="path3162"
       inkscape:connector-curvature="0"
       transform="translate(225.57143,23.647898)"
       sodipodi:nodetypes="cc" />
    <path
       style="fill:none;stroke:#800000"
       d="m 365.67522,1204.9967 c -1.71332,1.389 -2.83162,2.7779 -3.53553,4.1669"
       id="path3164"
       inkscape:connector-curvature="0"
       transform="translate(225.57143,23.647898)"
       sodipodi:nodetypes="cc" />
    <path
       style="fill:none;stroke:#800000"
       d="m 355.9525,1211.0576 c -16.20586,18.6855 -26.43638,36.7852 -25.50635,53.7907"
       id="path3166"
       inkscape:connector-curvature="0"
       transform="translate(225.57143,23.647898)"
       sodipodi:nodetypes="cc" />
    <path
       style="fill:none;stroke:#800000"
       d="m 338.65364,1269.899 c -2.51518,7.6182 -3.62776,15.2365 -2.77792,22.8547"
       id="path3168"
       inkscape:connector-curvature="0"
       transform="translate(225.57143,23.647898)"
       sodipodi:nodetypes="cc" />
    <path
       style="fill:none;stroke:#800000"
       d="m 329.30973,1294.9003 c -1.15517,8.2023 -0.865,16.0834 1.01015,23.6123"
       id="path3170"
       inkscape:connector-curvature="0"
       transform="translate(225.57143,23.647898)"
       sodipodi:nodetypes="cc" />
    <path
       style="fill:none;stroke:#800000"
       d="m 339.03245,1317.755 c 0.59265,23.6192 8.37518,41.1546 22.09709,53.6644"
       id="path3172"
       inkscape:connector-curvature="0"
       transform="translate(225.57143,23.647898)"
       sodipodi:nodetypes="cc" />
    <path
       style="fill:none;stroke:#800000"
       d="m 355.82623,1379.6269 c 14.91857,20.871 31.64001,29.1219 49.24494,31.1884"
       id="path3174"
       inkscape:connector-curvature="0"
       transform="translate(225.57143,23.647898)"
       sodipodi:nodetypes="cc" />
    <path
       style="fill:none;stroke:#800000"
       d="m 408.60671,1405.0069 c 72.43124,18.7802 152.59253,-16.957 151.0178,-96.5958"
       id="path3176"
       inkscape:connector-curvature="0"
       transform="translate(225.57143,23.647898)"
       sodipodi:nodetypes="cc" />
    <path
       style="fill:none;stroke:#800000"
       d="m 559.11943,1308.6636 c 4.63302,1.139 10.95866,1.5403 14.89975,2.0203"
       id="path3178"
       inkscape:connector-curvature="0"
       transform="translate(225.57143,23.647898)"
       sodipodi:nodetypes="cc" />
    <path
       style="fill:none;stroke:#800000"
       d="m 558.61436,1300.835 c 0.25537,-72.2256 26.04299,-96.6181 79.99331,-88.7762"
       id="path3182"
       inkscape:connector-curvature="0"
       transform="translate(225.57143,23.647898)"
       sodipodi:nodetypes="cc" />
    <path
       style="fill:none;stroke:#800000"
       d="m 638.36782,1212.0461 c 24.84833,3.8881 49.85511,-2.06 53.21684,-22.0754"
       id="path3184"
       inkscape:connector-curvature="0"
       transform="translate(225.57143,23.647898)"
       sodipodi:nodetypes="cc" />
    <path
       style="fill:none;stroke:#800000"
       d="m 691.49274,1190.0013 c 2.52985,5.2982 16.79685,4.4122 17.12927,-5.0813"
       id="path3186"
       inkscape:connector-curvature="0"
       transform="translate(225.57143,23.647898)"
       sodipodi:nodetypes="cc" />
    <path
       style="fill:none;stroke:#800000"
       d="m 708.16026,1185.7209 c 2.23199,6.018 16.40142,6.6442 17.88688,-3.8314"
       id="path3188"
       inkscape:connector-curvature="0"
       transform="translate(225.57143,23.647898)"
       sodipodi:nodetypes="cc" />
    <path
       style="fill:none;stroke:#800000"
       d="m 725.75128,1181.9814 c 49.04402,13.8585 106.44721,-3.0405 121.26163,-34.4371"
       id="path3190"
       inkscape:connector-curvature="0"
       transform="translate(225.57143,23.647898)"
       sodipodi:nodetypes="cc" />
    <path
       style="fill:none;stroke:#800000"
       d="m 854.33652,1146.7867 c 0.63133,-1.3258 0.29377,-2.1672 0,-3.0305"
       id="path3192"
       inkscape:connector-curvature="0"
       transform="translate(225.57143,23.647898)"
       sodipodi:nodetypes="cc" />
    <path
       style="fill:none;stroke:#800000"
       d="m 844.99261,1141.7359 c -6.88262,-3.8254 -13.25725,-8.6154 -19.1929,-13.3845"
       id="path3194"
       inkscape:connector-curvature="0"
       transform="translate(225.57143,23.647898)"
       sodipodi:nodetypes="cc" />
    <path
       style="fill:none;stroke:#800000"
       d="m 828.83016,1123.3006 c -6.70576,-3.5085 -13.37947,-7.0811 -18.68782,-13.3845"
       id="path3196"
       inkscape:connector-curvature="0"
       transform="translate(225.57143,23.647898)"
       sodipodi:nodetypes="cc" />
    <path
       style="fill:none;stroke:#800000"
       d="m 806.35427,1116.7347 c -7.26694,-3.5177 -14.10677,-7.7473 -19.95051,-13.6371"
       id="path3198"
       inkscape:connector-curvature="0"
       transform="translate(225.57143,23.647898)"
       sodipodi:nodetypes="cc" />
    <path
       style="fill:none;stroke:#800000"
       d="m 791.70706,1096.7841 c -17.9621,-4.2107 -34.71747,-12.6998 -47.47717,-35.3553"
       id="path3200"
       inkscape:connector-curvature="0"
       transform="translate(225.57143,23.647898)"
       sodipodi:nodetypes="cc" />
    <path
       style="fill:none;stroke:#800000"
       d="m 739.43166,1066.4796 c -19.98783,-6.5937 -34.24898,-19.8183 -45.20432,-36.8706"
       id="path3202"
       inkscape:connector-curvature="0"
       transform="translate(225.57143,23.647898)"
       sodipodi:nodetypes="cc" />
    <path
       style="fill:none;stroke:#800000"
       d="m 698.52049,1024.8108 c -10.74732,-4.6877 -17.11696,-12.815 -21.21321,-22.7285"
       id="path3204"
       inkscape:connector-curvature="0"
       transform="translate(225.57143,23.647898)"
       sodipodi:nodetypes="cc" />
    <path
       style="fill:none;stroke:#800000"
       d="m 671.49891,1003.8501 c -6.81128,-4.41384 -10.88231,-12.02465 -14.89975,-19.69797"
       id="path3206"
       inkscape:connector-curvature="0"
       transform="translate(225.57143,23.647898)"
       sodipodi:nodetypes="cc" />
    <path
       style="fill:none;stroke:#800000"
       d="m 661.64992,981.62675 c -5.65676,-5.44858 -8.85981,-12.73744 -10.48033,-21.2132"
       id="path3210"
       inkscape:connector-curvature="0"
       transform="translate(225.57143,23.647898)"
       sodipodi:nodetypes="cc" />
    <path
       style="fill:none;stroke:#800000"
       d="m 656.47289,958.26697 c -3.14692,-4.23935 -5.64778,-9.55547 -4.79823,-20.45559"
       id="path3212"
       inkscape:connector-curvature="0"
       transform="translate(225.57143,23.647898)"
       sodipodi:nodetypes="cc" />
    <path
       style="fill:none;stroke:#800000"
       d="m 652.55855,934.52839 c 12.60332,-9.55125 12.12461,-21.86986 7.3236,-35.1028"
       id="path3214"
       inkscape:connector-curvature="0"
       transform="translate(225.57143,23.647898)"
       sodipodi:nodetypes="cc" />
    <path
       style="fill:none;stroke:#800000"
       d="m 655.33646,911.16861 c 12.47929,-4.40621 18.77141,-15.44154 21.84455,-29.92577"
       id="path3216"
       inkscape:connector-curvature="0"
       transform="translate(225.57143,23.647898)"
       sodipodi:nodetypes="cc" />
    <path
       style="fill:none;stroke:#800000"
       d="m 677.30728,877.58104 c -0.89886,-7.47887 -1.93672,-14.94781 -7.44987,-22.09709"
       id="path3218"
       inkscape:connector-curvature="0"
       transform="translate(225.57143,23.647898)"
       sodipodi:nodetypes="cc" />
    <path
       style="fill:none;stroke:#800000"
       d="m 669.98368,855.48396 c -2.90155,1.09332 -5.37591,2.55287 -7.44988,4.29314"
       id="path3220"
       inkscape:connector-curvature="0"
       transform="translate(225.57143,23.647898)"
       sodipodi:nodetypes="cc" />
    <path
       style="fill:none;stroke:#800000"
       d="m 667.07949,851.31707 c -6.02612,-5.81898 -9.95053,-12.41228 -9.59645,-20.58186"
       id="path3222"
       inkscape:connector-curvature="0"
       transform="translate(225.57143,23.647898)"
       sodipodi:nodetypes="cc" />
    <path
       style="fill:none;stroke:#800000"
       d="m 661.90246,828.3361 c -0.73124,-8.0765 -2.10234,-15.96105 0.3788,-25.00127"
       id="path3224"
       inkscape:connector-curvature="0"
       transform="translate(225.57143,23.647898)"
       sodipodi:nodetypes="cc" />
    <path
       style="fill:none;stroke:#800000"
       d="m 662.66008,802.32468 c -0.16311,-2.88116 2.54161,-10.83291 5.05075,-18.05648"
       id="path3226"
       inkscape:connector-curvature="0"
       transform="translate(225.57143,23.647898)"
       sodipodi:nodetypes="cc" />
    <path
       style="fill:none;stroke:#800000"
       d="m 671.62517,785.15208 c 5.99265,-4.09296 11.61664,-8.92324 15.27856,-17.67767"
       id="path3228"
       inkscape:connector-curvature="0"
       transform="translate(225.57143,23.647898)"
       sodipodi:nodetypes="cc" />
    <path
       style="fill:none;stroke:#800000"
       d="m 682.86312,764.44395 c 5.41853,-4.71242 10.72909,-9.82077 15.15229,-18.18274"
       id="path3230"
       inkscape:connector-curvature="0"
       transform="translate(225.57143,23.647898)"
       sodipodi:nodetypes="cc" />
    <path
       style="fill:none;stroke:#800000"
       d="m 691.19688,745.62986 c 0.5689,-6.83044 9.97898,-15.73265 15.31554,-17.06164"
       id="path3232"
       inkscape:connector-curvature="0"
       transform="translate(225.57143,23.647898)"
       sodipodi:nodetypes="cc" />
    <path
       style="fill:none;stroke:#800000"
       d="m 706.86957,728.55553 c 4.68705,-1.07682 9.44712,-1.49272 14.25308,-0.3125"
       id="path3234"
       inkscape:connector-curvature="0"
       transform="translate(225.57143,23.647898)"
       sodipodi:nodetypes="cc" />
    <path
       style="fill:none;stroke:#800000"
       d="m 710.76859,735.40207 c 0.10581,-7.02059 2.22698,-9.33868 4.04061,-12.37437"
       id="path3236"
       inkscape:connector-curvature="0"
       transform="translate(225.57143,23.647898)"
       sodipodi:nodetypes="cc" />
    <path
       style="fill:none;stroke:#800000"
       d="m 715.02344,722.69616 c 5.82112,-6.03756 13.75993,-10.16788 24.53449,-11.03268"
       id="path3238"
       inkscape:connector-curvature="0"
       transform="translate(225.57143,23.647898)"
       sodipodi:nodetypes="cc" />
    <path
       style="fill:none;stroke:#800000"
       d="m 742.71466,709.26437 c 1.35072,-8.17261 2.44742,-16.48635 7.95495,-22.34962"
       id="path3240"
       inkscape:connector-curvature="0"
       transform="translate(225.57143,23.647898)"
       sodipodi:nodetypes="cc" />
    <path
       style="fill:none;stroke:#800000"
       d="m 750.17723,686.99506 c 2.96711,1.18544 4.80042,2.10386 6.42703,3.9603"
       id="path3242"
       inkscape:connector-curvature="0"
       transform="translate(225.57143,23.647898)"
       sodipodi:nodetypes="cc" />
    <path
       style="fill:none;stroke:#800000"
       d="m 752.43738,683.88429 c 1.18308,-7.38695 2.68731,-14.67509 0.88388,-22.98097"
       id="path3244"
       inkscape:connector-curvature="0"
       transform="translate(225.57143,23.647898)"
       sodipodi:nodetypes="cc" />
    <path
       style="fill:none;stroke:#800000"
       d="m 747.89169,662.41855 c -3.9044,-9.57677 -8.81493,-15.46442 -14.14213,-19.82425"
       id="path3246"
       inkscape:connector-curvature="0"
       transform="translate(225.57143,23.647898)"
       sodipodi:nodetypes="cc" />
    <path
       style="fill:none;stroke:#800000"
       d="M 730.97164,646.76118 C 700.40744,621.27283 683.8223,591.02125 685.3885,554.58476"
       id="path3248"
       inkscape:connector-curvature="0"
       transform="translate(225.57143,23.647898)"
       sodipodi:nodetypes="cc" />
    <path
       style="fill:none;stroke:#800000"
       d="m 685.49945,553.62057 c 0.433,-6.03533 1.72455,-12.65273 4.05593,-17.97617"
       id="path3250"
       inkscape:connector-curvature="0"
       transform="translate(225.57143,23.647898)"
       sodipodi:nodetypes="cc" />
    <path
       style="fill:none;stroke:#800000"
       d="m 683.74701,530.59364 c 32.47259,-55.01696 65.26141,-63.4968 97.47972,-63.63961"
       id="path3252"
       inkscape:connector-curvature="0"
       transform="translate(225.57143,23.647898)"
       sodipodi:nodetypes="cc" />
    <path
       style="fill:none;stroke:#800000"
       d="m 780.77132,466.88641 c 1.21227,4.52938 1.34151,9.45473 1.33929,13.95722"
       id="path3254"
       inkscape:connector-curvature="0"
       transform="translate(225.57143,23.647898)"
       sodipodi:nodetypes="cc" />
    <path
       style="fill:none;stroke:#800000"
       d="m 786.53003,467.71164 c 33.49891,10.14122 81.00116,-10.46192 73.74113,-40.27983"
       id="path3256"
       inkscape:connector-curvature="0"
       transform="translate(225.57143,23.647898)"
       sodipodi:nodetypes="cc" />
    <path
       style="fill:none;stroke:#800000"
       d="m 860.1206,427.83492 c 26.43183,-5.71569 50.00966,-15.4153 51.79461,-53.9935"
       id="path3258"
       inkscape:connector-curvature="0"
       transform="translate(225.57143,23.647898)"
       sodipodi:nodetypes="cc" />
    <path
       style="fill:none;stroke:#800000"
       d="m 911.87189,374.31849 c 7.21027,-3.66905 3.80545,-9.21181 -0.71429,-10.40002"
       id="path3260"
       inkscape:connector-curvature="0"
       transform="translate(225.57143,23.647898)"
       sodipodi:nodetypes="cc" />
    <path
       style="fill:none;stroke:#800000"
       d="m 911.09261,364.03839 c 5.28877,-2.42688 5.17726,-8.45868 -1.82905,-10.97906"
       id="path3262"
       inkscape:connector-curvature="0"
       transform="translate(225.57143,23.647898)"
       sodipodi:nodetypes="cc" />
    <path
       style="fill:none;stroke:#800000"
       d="m 909.34016,353.28385 c 5.83182,-0.88572 4.80586,-8.86692 -0.45541,-10.95739"
       id="path3264"
       inkscape:connector-curvature="0"
       transform="translate(225.57143,23.647898)"
       sodipodi:nodetypes="cc" />
    <path
       style="fill:none;stroke:#800000"
       d="m 907.11699,339.80108 c 1.20047,-5.6327 -0.024,-9.21355 -1.89404,-12.2481"
       id="path3266"
       inkscape:connector-curvature="0"
       transform="translate(225.57143,23.647898)"
       sodipodi:nodetypes="cc" />
    <path
       style="fill:none;stroke:#800000"
       d="m 911.41014,323.89117 c -0.96815,-3.78807 -1.94951,-7.57614 -4.54569,-11.36421"
       id="path3268"
       inkscape:connector-curvature="0"
       transform="translate(225.57143,23.647898)"
       sodipodi:nodetypes="cc" />
    <path
       style="fill:none;stroke:#800000"
       d="m 899.79338,316.56757 c -1.36194,-7.78282 -6.01475,-14.74293 -12.12183,-21.33947"
       id="path3270"
       inkscape:connector-curvature="0"
       transform="translate(225.57143,23.647898)"
       sodipodi:nodetypes="cc" />
    <path
       style="fill:none;stroke:#800000"
       d="m 893.985,290.3036 c -5.44662,-7.67974 -11.25283,-12.66259 -17.17259,-16.79378"
       id="path3272"
       inkscape:connector-curvature="0"
       transform="translate(225.57143,23.647898)"
       sodipodi:nodetypes="cc" />
    <path
       style="fill:none;stroke:#800000"
       d="m 870.7515,275.78266 c -13.62682,-10.08219 -32.73264,-12.49377 -57.07362,-7.57614"
       id="path3274"
       inkscape:connector-curvature="0"
       transform="translate(225.57143,23.647898)"
       sodipodi:nodetypes="cc" />
  </g>
</svg>
