<?xml version="1.0" encoding="UTF-8" standalone="no"?>
<!-- Created with Inkscape (http://www.inkscape.org/) -->

<svg
   xmlns:dc="http://purl.org/dc/elements/1.1/"
   xmlns:cc="http://creativecommons.org/ns#"
   xmlns:rdf="http://www.w3.org/1999/02/22-rdf-syntax-ns#"
   xmlns:svg="http://www.w3.org/2000/svg"
   xmlns="http://www.w3.org/2000/svg"
   xmlns:xlink="http://www.w3.org/1999/xlink"
   xmlns:sodipodi="http://sodipodi.sourceforge.net/DTD/sodipodi-0.dtd"
   xmlns:inkscape="http://www.inkscape.org/namespaces/inkscape"
   width="1206"
   height="1566"
   id="svg3318"
   version="1.1"
   inkscape:version="0.48.4 r9939"
   sodipodi:docname="fourteen_step.svg">
  <defs
     id="defs3320" />
  <sodipodi:namedview
     id="base"
     pagecolor="#ffffff"
     bordercolor="#666666"
     borderopacity="1.0"
     inkscape:pageopacity="0.0"
     inkscape:pageshadow="2"
     inkscape:zoom="3.959798"
     inkscape:cx="533.18305"
     inkscape:cy="1091.4636"
     inkscape:document-units="px"
     inkscape:current-layer="layer1"
     showgrid="false"
     fit-margin-top="0"
     fit-margin-left="0"
     fit-margin-right="0"
     fit-margin-bottom="0"
     inkscape:window-width="2495"
     inkscape:window-height="1056"
     inkscape:window-x="1985"
     inkscape:window-y="24"
     inkscape:window-maximized="1" />
  <metadata
     id="metadata3323">
    <rdf:RDF>
      <cc:Work
         rdf:about="">
        <dc:format>image/svg+xml</dc:format>
        <dc:type
           rdf:resource="http://purl.org/dc/dcmitype/StillImage" />
        <dc:title></dc:title>
      </cc:Work>
    </rdf:RDF>
  </metadata>
  <g
     inkscape:label="Layer 1"
     inkscape:groupmode="layer"
     id="layer1"
     transform="translate(-222.71428,-43.647896)">
    <image
       y="43.647896"
       x="222.71428"
       id="image3431"
       xlink:href="file:///home/shawn/Desktop/danceDiagrams/raw/page-395.png"
       height="1566"
       width="1206" />
    <path
       style="fill:none;stroke:#800000"
       d="m 275.77165,816.46681 618.71843,0"
       id="path3434"
       inkscape:connector-curvature="0"
       transform="translate(222.71428,43.647896)" />
    <path
       style="fill:none;stroke:#800000"
       d="m 584.87832,214.92097 0,1202.58663"
       id="path3436"
       inkscape:connector-curvature="0"
       transform="translate(222.71428,43.647896)" />
    <path
       style="fill:none;stroke:#800000"
       d="m 328.29958,431.09361 c -10.89165,21.99402 -9.18624,44.51291 -4.04061,67.17515"
       id="path3438"
       inkscape:connector-curvature="0"
       transform="translate(222.71428,43.647896)"
       sodipodi:nodetypes="cc" />
    <path
       style="fill:none;stroke:#800000"
       d="m 313.65237,500.28906 c 1.80825,22.98501 7.9579,43.17912 19.19289,60.10408"
       id="path3440"
       inkscape:connector-curvature="0"
       transform="translate(222.71428,43.647896)"
       sodipodi:nodetypes="cc" />
    <path
       style="fill:none;stroke:#800000"
       d="m 343.95694,560.89822 c 17.19699,40.37305 49.33644,69.87886 103.54064,83.33758"
       id="path3442"
       inkscape:connector-curvature="0"
       transform="translate(222.71428,43.647896)"
       sodipodi:nodetypes="cc" />
    <path
       style="fill:none;stroke:#800000"
       d="m 445.47727,652.31702 c 92.45107,59.61363 110.52194,211.09681 0.50508,294.96455"
       id="path3444"
       inkscape:connector-curvature="0"
       transform="translate(222.71428,43.647896)"
       sodipodi:nodetypes="cc" />
    <path
       style="fill:none;stroke:#800000"
       d="m 441.43666,955.11025 c -20.58404,8.69203 -38.42273,20.52161 -54.2957,34.59772"
       id="path3446"
       inkscape:connector-curvature="0"
       transform="translate(222.71428,43.647896)"
       sodipodi:nodetypes="cc" />
    <path
       style="fill:none;stroke:#800000"
       d="m 374.26152,986.42498 c -20.29908,11.2155 -34.41202,25.91072 -43.94164,43.18402"
       id="path3448"
       inkscape:connector-curvature="0"
       transform="translate(222.71428,43.647896)"
       sodipodi:nodetypes="cc" />
    <path
       style="fill:none;stroke:#800000"
       d="m 334.36049,1037.6902 c -27.31335,40.2567 -30.43296,88.1171 -10.6066,143.1891"
       id="path3450"
       inkscape:connector-curvature="0"
       transform="translate(222.71428,43.647896)"
       sodipodi:nodetypes="cc" />
    <path
       style="fill:none;stroke:#800000"
       d="m 325.26912,1187.6979 c 3.29768,24.1163 9.35529,46.4385 26.01143,61.8718"
       id="path3452"
       inkscape:connector-curvature="0"
       transform="translate(222.71428,43.647896)"
       sodipodi:nodetypes="cc" />
    <path
       style="fill:none;stroke:#800000"
       d="m 363.90745,1253.6103 c 16.02919,23.027 29.11167,39.8735 48.23479,53.2856"
       id="path3454"
       inkscape:connector-curvature="0"
       transform="translate(222.71428,43.647896)"
       sodipodi:nodetypes="cc" />
    <path
       style="fill:none;stroke:#800000"
       d="m 421.48615,1304.8756 c 19.18363,15.9872 39.51827,29.8369 63.38707,37.1231"
       id="path3456"
       inkscape:connector-curvature="0"
       transform="translate(222.71428,43.647896)"
       sodipodi:nodetypes="cc" />
    <path
       style="fill:none;stroke:#800000"
       d="m 487.3986,1352.1002 c 25.44475,12.7275 53.68772,17.0604 83.84266,15.6574"
       id="path3458"
       inkscape:connector-curvature="0"
       transform="translate(222.71428,43.647896)"
       sodipodi:nodetypes="cc" />
    <path
       style="fill:none;stroke:#800000"
       d="m 575.02934,1362.2017 c 72.03754,3.4671 91.92639,-20.6645 98.74241,-1.0101"
       id="path3460"
       inkscape:connector-curvature="0"
       transform="translate(222.71428,43.647896)"
       sodipodi:nodetypes="cc" />
    <path
       style="fill:none;stroke:#800000"
       d="m 662.40753,1359.4238 c 24.92671,-14.296 60.76296,-12.7129 80.05459,-46.2145"
       id="path3462"
       inkscape:connector-curvature="0"
       transform="translate(222.71428,43.647896)"
       sodipodi:nodetypes="cc" />
    <path
       style="fill:none;stroke:#800000"
       d="m 751.30096,1317.2499 c 40.90792,-29.9963 71.55462,-66.7265 90.91373,-110.8642"
       id="path3464"
       inkscape:connector-curvature="0"
       transform="translate(222.71428,43.647896)"
       sodipodi:nodetypes="cc" />
    <path
       style="fill:none;stroke:#800000"
       d="m 841.45707,1188.708 c 5.47868,-22.2556 9.55716,-44.7913 1.76777,-69.7005"
       id="path3466"
       inkscape:connector-curvature="0"
       transform="translate(222.71428,43.647896)"
       sodipodi:nodetypes="cc" />
    <path
       style="fill:none;stroke:#800000"
       d="m 851.05352,1114.9669 c -4.01213,-23.7539 -15.77073,-46.4516 -34.59772,-68.1853"
       id="path3468"
       inkscape:connector-curvature="0"
       transform="translate(222.71428,43.647896)"
       sodipodi:nodetypes="cc" />
    <path
       style="fill:none;stroke:#800000"
       d="M 808.87965,1056.378 C 788.21853,1009.1438 751.31589,983.85581 704.07632,972.53538"
       id="path3470"
       inkscape:connector-curvature="0"
       transform="translate(222.71428,43.647896)"
       sodipodi:nodetypes="cc" />
    <path
       style="fill:none;stroke:#800000"
       d="M 709.63216,962.93893 C 597.43093,878.10202 618.72644,728.39958 710.38978,668.47946"
       id="path3472"
       inkscape:connector-curvature="0"
       transform="translate(222.71428,43.647896)"
       sodipodi:nodetypes="cc" />
    <path
       style="fill:none;stroke:#800000"
       d="m 713.42024,661.15586 c 21.72573,-9.36213 40.22744,-20.77591 54.54823,-34.85027"
       id="path3474"
       inkscape:connector-curvature="0"
       transform="translate(222.71428,43.647896)"
       sodipodi:nodetypes="cc" />
    <path
       style="fill:none;stroke:#800000"
       d="m 776.30223,630.85128 c 20.87801,-10.1 36.86627,-25.08976 48.9924,-43.94164"
       id="path3476"
       inkscape:connector-curvature="0"
       transform="translate(222.71428,43.647896)"
       sodipodi:nodetypes="cc" />
    <path
       style="fill:none;stroke:#800000"
       d="m 822.01163,576.80812 c 26.2165,-35.95157 34.72487,-79.6656 11.8693,-137.12821"
       id="path3478"
       inkscape:connector-curvature="0"
       transform="translate(222.71428,43.647896)"
       sodipodi:nodetypes="cc" />
    <path
       style="fill:none;stroke:#800000"
       d="m 841.70961,431.09361 c -16.885,-45.27222 -35.73017,-69.26266 -57.32616,-63.38707"
       id="path3480"
       inkscape:connector-curvature="0"
       transform="translate(222.71428,43.647896)"
       sodipodi:nodetypes="cc" />
    <path
       style="fill:none;stroke:#800000"
       d="m 792.96975,374.52507 c -7.28028,-30.2482 -26.12781,-46.51931 -49.49748,-57.32616"
       id="path3482"
       inkscape:connector-curvature="0"
       transform="translate(222.71428,43.647896)"
       sodipodi:nodetypes="cc" />
    <path
       style="fill:none;stroke:#800000"
       d="M 736.14867,320.73445 C 716.33584,303.06973 694.59454,291.51185 670.74129,286.6418"
       id="path3484"
       inkscape:connector-curvature="0"
       transform="translate(222.71428,43.647896)"
       sodipodi:nodetypes="cc" />
    <path
       style="fill:none;stroke:#800000"
       d="M 669.22606,278.0555 C 643.49937,265.78876 615.81042,262.35223 587.40371,262.1456"
       id="path3486"
       inkscape:connector-curvature="0"
       transform="translate(222.71428,43.647896)"
       sodipodi:nodetypes="cc" />
    <path
       style="fill:none;stroke:#800000"
       d="m 575.78695,268.45905 c -26.42524,-3.75888 -52.53496,-2.46942 -78.28682,4.54569"
       id="path3488"
       inkscape:connector-curvature="0"
       transform="translate(222.71428,43.647896)"
       sodipodi:nodetypes="cc" />
    <path
       style="fill:none;stroke:#800000"
       d="m 489.92399,282.60119 c -24.69249,3.77639 -47.69312,11.90325 -67.68023,27.77919"
       id="path3490"
       inkscape:connector-curvature="0"
       transform="translate(222.71428,43.647896)"
       sodipodi:nodetypes="cc" />
    <path
       style="fill:none;stroke:#800000"
       d="m 412.39478,302.80424 c -42.37204,26.42151 -73.26738,62.40695 -87.3782,112.37947"
       id="path3492"
       inkscape:connector-curvature="0"
       transform="translate(222.71428,43.647896)"
       sodipodi:nodetypes="cc" />
  </g>
</svg>
