<?xml version="1.0" encoding="UTF-8" standalone="no"?>
<!-- Created with Inkscape (http://www.inkscape.org/) -->

<svg
   xmlns:dc="http://purl.org/dc/elements/1.1/"
   xmlns:cc="http://creativecommons.org/ns#"
   xmlns:rdf="http://www.w3.org/1999/02/22-rdf-syntax-ns#"
   xmlns:svg="http://www.w3.org/2000/svg"
   xmlns="http://www.w3.org/2000/svg"
   xmlns:xlink="http://www.w3.org/1999/xlink"
   xmlns:sodipodi="http://sodipodi.sourceforge.net/DTD/sodipodi-0.dtd"
   xmlns:inkscape="http://www.inkscape.org/namespaces/inkscape"
   width="1206"
   height="1566"
   id="svg2"
   version="1.1"
   inkscape:version="0.48.4 r9939"
   sodipodi:docname="foxtrot.svg">
  <defs
     id="defs4" />
  <sodipodi:namedview
     id="base"
     pagecolor="#ffffff"
     bordercolor="#666666"
     borderopacity="1.0"
     inkscape:pageopacity="0.0"
     inkscape:pageshadow="2"
     inkscape:zoom="3.959798"
     inkscape:cx="557.80937"
     inkscape:cy="1453.0225"
     inkscape:document-units="px"
     inkscape:current-layer="layer1"
     showgrid="false"
     fit-margin-top="0"
     fit-margin-left="0"
     fit-margin-right="0"
     fit-margin-bottom="0"
     inkscape:window-width="2495"
     inkscape:window-height="1056"
     inkscape:window-x="1985"
     inkscape:window-y="24"
     inkscape:window-maximized="1" />
  <metadata
     id="metadata7">
    <rdf:RDF>
      <cc:Work
         rdf:about="">
        <dc:format>image/svg+xml</dc:format>
        <dc:type
           rdf:resource="http://purl.org/dc/dcmitype/StillImage" />
        <dc:title></dc:title>
      </cc:Work>
    </rdf:RDF>
  </metadata>
  <g
     inkscape:label="Layer 1"
     inkscape:groupmode="layer"
     id="layer1"
     transform="translate(-208.42857,-9.3621826)">
    <image
       y="9.3621826"
       x="208.42857"
       id="image3802"
       xlink:href="file:///home/shawn/Desktop/danceDiagrams/raw/page-401.png"
       height="1566"
       width="1206" />
    <path
       style="fill:none;stroke:#800000"
       d="m 273.92857,816.71428 622.5,0"
       id="path3824"
       inkscape:connector-curvature="0"
       transform="translate(208.42857,9.3621826)" />
    <path
       style="fill:none;stroke:#800000"
       d="m 585,211.35714 0,1209.64286"
       id="path3826"
       inkscape:connector-curvature="0"
       transform="translate(208.42857,9.3621826)" />
    <path
       style="fill:none;stroke:#800000"
       d="m 302.03561,594.48579 c -10.94735,21.22383 -11.57168,43.34532 -7.07107,65.91245"
       id="path3828"
       inkscape:connector-curvature="0"
       transform="translate(208.42857,9.3621826)"
       sodipodi:nodetypes="cc" />
    <path
       style="fill:none;stroke:#800000"
       d="m 302.03561,658.1254 c -2.51623,28.30282 2.68424,53.06013 25.00128,69.95306"
       id="path3830"
       inkscape:connector-curvature="0"
       transform="translate(208.42857,9.3621826)"
       sodipodi:nodetypes="cc" />
    <path
       style="fill:none;stroke:#800000"
       d="m 332.84526,719.99724 c 22.31341,35.40985 63.51383,51.66668 133.59268,38.63834"
       id="path3832"
       inkscape:connector-curvature="0"
       transform="translate(208.42857,9.3621826)"
       sodipodi:nodetypes="cc" />
    <path
       style="fill:none;stroke:#800000"
       d="m 465.93286,747.77644 c 142.56174,7.02921 144.57035,191.48123 -9.84899,204.05081"
       id="path3834"
       inkscape:connector-curvature="0"
       transform="translate(208.42857,9.3621826)"
       sodipodi:nodetypes="cc" />
    <path
       style="fill:none;stroke:#800000"
       d="m 460.37702,941.97826 c -15.46347,-8.59387 -46.9731,-17.61299 -76.01398,2.02031"
       id="path3836"
       inkscape:connector-curvature="0"
       transform="translate(208.42857,9.3621826)"
       sodipodi:nodetypes="cc" />
    <path
       style="fill:none;stroke:#800000"
       d="m 384.36304,944.50364 c -12.40799,-9.91516 -26.62848,-3.3895 -34.59772,1.76777"
       id="path3838"
       inkscape:connector-curvature="0"
       transform="translate(208.42857,9.3621826)"
       sodipodi:nodetypes="cc" />
    <path
       style="fill:none;stroke:#800000"
       d="m 354.05847,953.59502 c -24.98948,5.15097 -41.84568,23.98062 -52.02286,54.04318"
       id="path3840"
       inkscape:connector-curvature="0"
       transform="translate(208.42857,9.3621826)"
       sodipodi:nodetypes="cc" />
    <path
       style="fill:none;stroke:#800000"
       d="m 293.95439,1004.6077 c -11.32558,28.0995 -7.76094,53.3819 5.80838,76.7716"
       id="path3842"
       inkscape:connector-curvature="0"
       transform="translate(208.42857,9.3621826)"
       sodipodi:nodetypes="cc" />
    <path
       style="fill:none;stroke:#800000"
       d="m 309.86429,1076.8336 c 11.31138,58.1959 46.3184,75.1615 91.16627,75.0039"
       id="path3844"
       inkscape:connector-curvature="0"
       transform="translate(208.42857,9.3621826)"
       sodipodi:nodetypes="cc" />
    <path
       style="fill:none;stroke:#800000"
       d="m 402.79833,1143.5037 c 50.10933,-4.9813 76.40411,18.8225 85.10535,63.8921"
       id="path3846"
       inkscape:connector-curvature="0"
       transform="translate(208.42857,9.3621826)"
       sodipodi:nodetypes="cc" />
    <path
       style="fill:none;stroke:#800000"
       d="m 487.65114,1212.4466 c 40.83006,26.6327 41.91124,63.9298 27.7792,105.3084"
       id="path3848"
       inkscape:connector-curvature="0"
       transform="translate(208.42857,9.3621826)"
       sodipodi:nodetypes="cc" />
    <path
       style="fill:none;stroke:#800000"
       d="m 522.50141,1316.4923 c 10.69499,85.3071 92.10326,69.9248 95.20687,84.6003"
       id="path3850"
       inkscape:connector-curvature="0"
       transform="translate(208.42857,9.3621826)"
       sodipodi:nodetypes="cc" />
    <path
       style="fill:none;stroke:#800000"
       d="m 619.47605,1393.2639 c 151.31489,29.4948 207.36598,-140.1028 92.42896,-212.8896"
       id="path3852"
       inkscape:connector-curvature="0"
       transform="translate(208.42857,9.3621826)"
       sodipodi:nodetypes="cc" />
    <path
       style="fill:none;stroke:#800000"
       d="m 705.33902,1176.0811 c -40.51178,-41.9493 -4.51828,-104.7838 59.34646,-93.1866"
       id="path3854"
       inkscape:connector-curvature="0"
       transform="translate(208.42857,9.3621826)"
       sodipodi:nodetypes="cc" />
    <path
       style="fill:none;stroke:#800000"
       d="m 763.67533,1092.7435 c 51.90254,18.8314 86.2296,4.0535 99.75256,-50.5076"
       id="path3856"
       inkscape:connector-curvature="0"
       transform="translate(208.42857,9.3621826)"
       sodipodi:nodetypes="cc" />
    <path
       style="fill:none;stroke:#800000"
       d="m 869.99388,1033.1445 c 7.04143,-20.0847 14.1767,-40.1177 8.08122,-67.42765"
       id="path3858"
       inkscape:connector-curvature="0"
       transform="translate(208.42857,9.3621826)"
       sodipodi:nodetypes="cc" />
    <path
       style="fill:none;stroke:#800000"
       d="m 868.47865,969.75746 c -0.19408,-23.63439 -1.25894,-47.18779 -29.7995,-68.1853"
       id="path3860"
       inkscape:connector-curvature="0"
       transform="translate(208.42857,9.3621826)"
       sodipodi:nodetypes="cc" />
    <path
       style="fill:none;stroke:#800000"
       d="M 835.14362,907.88562 C 804.60373,863.19415 758.22725,853.17198 702.81363,862.93383"
       id="path3862"
       inkscape:connector-curvature="0"
       transform="translate(208.42857,9.3621826)"
       sodipodi:nodetypes="cc" />
    <path
       style="fill:none;stroke:#800000"
       d="m 707.10678,872.53028 c -38.97612,10.81166 -80.17083,-1.90111 -80.30712,-43.6891"
       id="path3864"
       inkscape:connector-curvature="0"
       transform="translate(208.42857,9.3621826)"
       sodipodi:nodetypes="cc" />
    <path
       style="fill:none;stroke:#800000"
       d="m 628.31489,829.85133 c -15.93315,-2.06025 -26.64408,-11.6857 -27.7792,-34.59772"
       id="path3866"
       inkscape:connector-curvature="0"
       transform="translate(208.42857,9.3621826)"
       sodipodi:nodetypes="cc" />
    <path
       style="fill:none;stroke:#800000"
       d="m 607.60676,790.96046 c -26.3944,-57.03405 29.3411,-106.27352 88.64088,-86.87312"
       id="path3868"
       inkscape:connector-curvature="0"
       transform="translate(208.42857,9.3621826)"
       sodipodi:nodetypes="cc" />
    <path
       style="fill:none;stroke:#800000"
       d="m 699.53064,694.49089 c 42.43329,23.70015 77.85853,19.73428 105.3084,-14.14214"
       id="path3870"
       inkscape:connector-curvature="0"
       transform="translate(208.42857,9.3621826)"
       sodipodi:nodetypes="cc" />
    <path
       style="fill:none;stroke:#800000"
       d="m 813.1728,677.06576 c 23.62689,-8.45854 44.01439,-22.12827 52.27539,-55.30585"
       id="path3872"
       inkscape:connector-curvature="0"
       transform="translate(208.42857,9.3621826)"
       sodipodi:nodetypes="cc" />
    <path
       style="fill:none;stroke:#800000"
       d="m 874.53957,623.52767 c 8.34361,-22.67398 16.8247,-45.30436 -1.76777,-76.51905"
       id="path3874"
       inkscape:connector-curvature="0"
       transform="translate(208.42857,9.3621826)"
       sodipodi:nodetypes="cc" />
    <path
       style="fill:none;stroke:#800000"
       d="m 862.67027,551.55431 c -7.55259,-47.75902 -37.14943,-73.79328 -91.16626,-75.76145"
       id="path3876"
       inkscape:connector-curvature="0"
       transform="translate(208.42857,9.3621826)"
       sodipodi:nodetypes="cc" />
    <path
       style="fill:none;stroke:#800000"
       d="m 771.25147,485.64185 c -31.87678,2.44112 -63.66766,4.73829 -71.21576,-33.58757"
       id="path3878"
       inkscape:connector-curvature="0"
       transform="translate(208.42857,9.3621826)"
       sodipodi:nodetypes="cccc" />
    <path
       style="fill:none;stroke:#800000"
       d="m 700.79333,452.30681 c -11.37917,-0.57061 -17.29824,-4.86496 -23.99112,-24.74874"
       id="path3879"
       inkscape:connector-curvature="0"
       transform="translate(208.42857,9.3621826)"
       sodipodi:nodetypes="cccc" />
    <path
       style="fill:none;stroke:#800000"
       d="M 683.11566,421.24463 C 651.09202,395.71499 638.62029,357.37575 656.59916,311.39054"
       id="path3880"
       inkscape:connector-curvature="0"
       transform="translate(208.42857,9.3621826)"
       sodipodi:nodetypes="cc" />
    <path
       style="fill:none;stroke:#800000"
       d="m 650.2857,311.89561 c -2.74779,-21.24144 -13.59601,-38.01367 -35.86041,-48.48732"
       id="path3882"
       inkscape:connector-curvature="0"
       transform="translate(208.42857,9.3621826)"
       sodipodi:nodetypes="cc" />
    <path
       style="fill:none;stroke:#800000"
       d="m 617.20321,256.33722 c -9.32114,-18.26934 -27.66643,-28.09221 -52.52794,-29.04188"
       id="path3884"
       inkscape:connector-curvature="0"
       transform="translate(208.42857,9.3621826)"
       sodipodi:nodetypes="cc" />
    <path
       style="fill:none;stroke:#800000"
       d="M 561.64482,235.6291 C 395.40471,204.47238 355.6035,389.99823 462.14479,448.77128"
       id="path3886"
       inkscape:connector-curvature="0"
       transform="translate(208.42857,9.3621826)"
       sodipodi:nodetypes="cc" />
    <path
       style="fill:none;stroke:#800000"
       d="m 467.19555,451.5492 c 41.65076,50.61031 0.80541,103.4997 -59.599,94.19673"
       id="path3888"
       inkscape:connector-curvature="0"
       transform="translate(208.42857,9.3621826)"
       sodipodi:nodetypes="cc" />
    <path
       style="fill:none;stroke:#800000"
       d="m 408.85924,534.63425 c -54.67807,-19.37561 -87.58333,-0.82438 -100.51018,52.52793"
       id="path3890"
       inkscape:connector-curvature="0"
       transform="translate(208.42857,9.3621826)"
       sodipodi:nodetypes="cc" />
  </g>
</svg>
