<?xml version="1.0" encoding="UTF-8" standalone="no"?>
<!-- Created with Inkscape (http://www.inkscape.org/) -->

<svg
   xmlns:dc="http://purl.org/dc/elements/1.1/"
   xmlns:cc="http://creativecommons.org/ns#"
   xmlns:rdf="http://www.w3.org/1999/02/22-rdf-syntax-ns#"
   xmlns:svg="http://www.w3.org/2000/svg"
   xmlns="http://www.w3.org/2000/svg"
   xmlns:xlink="http://www.w3.org/1999/xlink"
   xmlns:sodipodi="http://sodipodi.sourceforge.net/DTD/sodipodi-0.dtd"
   xmlns:inkscape="http://www.inkscape.org/namespaces/inkscape"
   width="1206"
   height="1566"
   id="svg2"
   version="1.1"
   inkscape:version="0.48.4 r9939"
   sodipodi:docname="hickory_hoedown.svg">
  <defs
     id="defs4" />
  <sodipodi:namedview
     id="base"
     pagecolor="#ffffff"
     bordercolor="#666666"
     borderopacity="1.0"
     inkscape:pageopacity="0.0"
     inkscape:pageshadow="2"
     inkscape:zoom="5.6"
     inkscape:cx="864.13978"
     inkscape:cy="230.20564"
     inkscape:document-units="px"
     inkscape:current-layer="layer1"
     showgrid="false"
     fit-margin-top="0"
     fit-margin-left="0"
     fit-margin-right="0"
     fit-margin-bottom="0"
     inkscape:window-width="1855"
     inkscape:window-height="1056"
     inkscape:window-x="65"
     inkscape:window-y="24"
     inkscape:window-maximized="1" />
  <metadata
     id="metadata7">
    <rdf:RDF>
      <cc:Work
         rdf:about="">
        <dc:format>image/svg+xml</dc:format>
        <dc:type
           rdf:resource="http://purl.org/dc/dcmitype/StillImage" />
        <dc:title />
      </cc:Work>
    </rdf:RDF>
  </metadata>
  <g
     inkscape:label="Layer 1"
     inkscape:groupmode="layer"
     id="layer1"
     transform="translate(-194.14285,-26.505039)">
    <image
       y="26.505039"
       x="194.14285"
       id="image3060"
       xlink:href="file:///home/shawn/Desktop/danceDiagrams/raw/page-388.png"
       height="1566"
       width="1206" />
    <path
       style="fill:none;stroke:#800000"
       d="m 311.42857,816.71428 618.21429,0"
       id="path3082"
       inkscape:connector-curvature="0"
       transform="translate(194.14285,26.505039)" />
    <path
       style="fill:none;stroke:#800000"
       d="m 620.35714,214.21428 0,1203.92862"
       id="path3084"
       inkscape:connector-curvature="0"
       transform="translate(194.14285,26.505039)" />
    <path
       style="fill:none;stroke:#800000"
       d="m 882.85715,1335.2244 c 12.92406,-10.9615 19.59178,-26.9427 18.55348,-54.7168"
       id="path3086"
       inkscape:connector-curvature="0"
       transform="translate(194.14285,26.505039)"
       sodipodi:nodetypes="cc" />
    <path
       style="fill:none;stroke:#800000"
       d="m 909.28571,1281.1785 c 3.71001,-26.5273 -2.6924,-48.6344 -17.49999,-66.0714"
       id="path3088"
       inkscape:connector-curvature="0"
       transform="translate(194.14285,26.505039)"
       sodipodi:nodetypes="cc" />
    <path
       style="fill:none;stroke:#800000"
       d="m 883.75,1219.0357 c -11.50066,-26.7972 -29.06166,-49.5541 -62.67857,-61.6071"
       id="path3090"
       inkscape:connector-curvature="0"
       transform="translate(194.14285,26.505039)"
       sodipodi:nodetypes="cc" />
    <path
       style="fill:none;stroke:#800000"
       d="m 823.57143,1146.8929 c -21.93009,-8.1327 -30.84725,-15.0903 -39.10714,-33.3929"
       id="path3092"
       inkscape:connector-curvature="0"
       transform="translate(194.14285,26.505039)"
       sodipodi:nodetypes="cc" />
    <path
       style="fill:none;stroke:#800000"
       d="m 777.09953,1115.5293 c -11.61325,-19.4792 -15.45979,-39.9941 -11.92096,-61.4936"
       id="path3094"
       inkscape:connector-curvature="0"
       transform="translate(194.14285,26.505039)"
       sodipodi:nodetypes="cc" />
    <path
       style="fill:none;stroke:#800000"
       d="m 771.96429,1049.9286 c 3.71011,-46.9973 27.33557,-70.76394 65.71428,-77.32146"
       id="path3096"
       inkscape:connector-curvature="0"
       transform="translate(194.14285,26.505039)"
       sodipodi:nodetypes="cc" />
    <path
       style="fill:none;stroke:#800000"
       d="m 832.85714,962.78571 c 20.58753,-8.93202 39.064,-19.68982 47.32143,-39.28571"
       id="path3098"
       inkscape:connector-curvature="0"
       transform="translate(194.14285,26.505039)"
       sodipodi:nodetypes="cc" />
    <path
       style="fill:none;stroke:#800000"
       d="m 890.89286,924.21428 c 13.35118,-15.79597 20.67655,-34.15849 15.89286,-57.67857"
       id="path3100"
       inkscape:connector-curvature="0"
       transform="translate(194.14285,26.505039)"
       sodipodi:nodetypes="cc" />
    <path
       style="fill:none;stroke:#800000"
       d="M 896.60714,865.82143 C 898.38919,825.32454 868.10728,789.108 806.78572,778.5"
       id="path3102"
       inkscape:connector-curvature="0"
       transform="translate(194.14285,26.505039)"
       sodipodi:nodetypes="cc" />
    <path
       style="fill:none;stroke:#800000"
       d="m 806.96429,789.75 c -17.68494,2.30854 -38.10813,-5.19499 -59.82143,-17.32143"
       id="path3104"
       inkscape:connector-curvature="0"
       transform="translate(194.14285,26.505039)"
       sodipodi:nodetypes="cc" />
    <path
       style="fill:none;stroke:#800000"
       d="M 743.21429,778.5 C 694.56031,755.76325 661.9332,714.67689 659.64286,638.85714"
       id="path3106"
       inkscape:connector-curvature="0"
       transform="translate(194.14285,26.505039)"
       sodipodi:nodetypes="cc" />
    <path
       style="fill:none;stroke:#800000"
       d="m 666.60714,640.82143 c -1.82068,-19.80915 -1.92688,-38.76106 6.25,-53.57143"
       id="path3108"
       inkscape:connector-curvature="0"
       transform="translate(194.14285,26.505039)"
       sodipodi:nodetypes="cc" />
    <path
       style="fill:none;stroke:#800000"
       d="m 665.35714,583.14286 c 3.56441,-19.81845 9.55919,-37.72731 22.5,-50.17858"
       id="path3110"
       inkscape:connector-curvature="0"
       transform="translate(194.14285,26.505039)"
       sodipodi:nodetypes="cc" />
    <path
       style="fill:none;stroke:#800000"
       d="m 697.32143,537.07143 c 22.58481,-39.43876 55.98422,-55.97601 95.71429,-59.10715"
       id="path3112"
       inkscape:connector-curvature="0"
       transform="translate(194.14285,26.505039)"
       sodipodi:nodetypes="cc" />
    <path
       style="fill:none;stroke:#800000"
       d="m 798.57143,485.10714 c 18.96007,-6.74352 36.54918,-16.39025 49.82143,-35.17857"
       id="path3114"
       inkscape:connector-curvature="0"
       transform="translate(194.14285,26.505039)"
       sodipodi:nodetypes="cc" />
    <path
       style="fill:none;stroke:#800000"
       d="m 855.17857,457.96428 c 39.79902,-21.6142 55.22975,-63.44085 51.60715,-121.07143"
       id="path3116"
       inkscape:connector-curvature="0"
       transform="translate(194.14285,26.505039)"
       sodipodi:nodetypes="cc" />
    <path
       style="fill:none;stroke:#800000"
       d="m 898.21429,339.39285 c 0.96412,-33.10271 -8.46723,-40.83286 -25.96683,-42.64793"
       id="path3118"
       inkscape:connector-curvature="0"
       transform="translate(194.14285,26.505039)"
       sodipodi:nodetypes="cc" />
    <path
       style="fill:none;stroke:#800000"
       d="M 872.65691,296.63135 C 875.35971,280.25288 867.83769,267.25054 835,262.60714"
       id="path3120"
       inkscape:connector-curvature="0"
       transform="translate(194.14285,26.505039)"
       sodipodi:nodetypes="cc" />
    <path
       style="fill:none;stroke:#800000"
       d="m 834.28572,271.35714 c -56.79216,-23.34549 -130.99224,11.5628 -130.71429,86.60714"
       id="path3122"
       inkscape:connector-curvature="0"
       transform="translate(194.14285,26.505039)"
       sodipodi:nodetypes="cc" />
    <path
       style="fill:none;stroke:#800000"
       d="m 695.35714,356 c -1.44729,32.35776 -18.85161,54.52037 -48.39285,68.92857"
       id="path3124"
       inkscape:connector-curvature="0"
       transform="translate(194.14285,26.505039)"
       sodipodi:nodetypes="cc" />
    <path
       style="fill:none;stroke:#800000"
       d="M 645.35714,418.32143 C 559.23224,444.9564 508.18846,382.26157 527.02557,329.71936"
       id="path3126"
       inkscape:connector-curvature="0"
       transform="translate(194.14285,26.505039)"
       sodipodi:nodetypes="cc" />
    <path
       style="fill:none;stroke:#800000"
       d="M 518.57143,330.28571 C 518.89183,311.52056 515.10692,295.13915 505,282.42857"
       id="path3128"
       inkscape:connector-curvature="0"
       transform="translate(194.14285,26.505039)"
       sodipodi:nodetypes="cc" />
    <path
       style="fill:none;stroke:#800000"
       d="m 511.42857,280.64285 c -13.64914,-17.6058 -30.76972,-21.32587 -49.10714,-20.17857"
       id="path3130"
       inkscape:connector-curvature="0"
       transform="translate(194.14285,26.505039)"
       sodipodi:nodetypes="cc" />
    <path
       style="fill:none;stroke:#800000"
       d="m 462.85714,268.32143 c -22.39633,-7.65804 -39.65764,-3.84448 -55.71428,2.85714"
       id="path3132"
       inkscape:connector-curvature="0"
       transform="translate(194.14285,26.505039)"
       sodipodi:nodetypes="cc" />
    <path
       style="fill:none;stroke:#800000"
       d="m 407.14286,261.35714 c -20.29891,1.4782 -36.6414,13.06721 -50.89286,30"
       id="path3134"
       inkscape:connector-curvature="0"
       transform="translate(194.14285,26.505039)"
       sodipodi:nodetypes="cc" />
    <path
       style="fill:none;stroke:#800000"
       d="m 358.57143,301 c -12.27678,15.6511 -15.04919,31.07401 -13.39286,48.03571"
       id="path3136"
       inkscape:connector-curvature="0"
       transform="translate(194.14285,26.505039)"
       sodipodi:nodetypes="cc" />
    <path
       style="fill:none;stroke:#800000"
       d="m 334.46429,349.57143 c -3.81607,22.81083 -2.14208,44.52365 7.5,64.64285"
       id="path3138"
       inkscape:connector-curvature="0"
       transform="translate(194.14285,26.505039)"
       sodipodi:nodetypes="cc" />
    <path
       style="fill:none;stroke:#800000"
       d="m 352.14286,413.67857 c 13.23301,33.50187 35.7053,53.1937 63.21428,65.35714"
       id="path3140"
       inkscape:connector-curvature="0"
       transform="translate(194.14285,26.505039)"
       sodipodi:nodetypes="cc" />
    <path
       style="fill:none;stroke:#800000"
       d="m 412.5,488.5 c 16.09381,6.87739 30.90935,15.64175 40,32.85714"
       id="path3142"
       inkscape:connector-curvature="0"
       transform="translate(194.14285,26.505039)"
       sodipodi:nodetypes="cc" />
    <path
       style="fill:none;stroke:#800000"
       d="m 458.03572,519.92857 c 10.98894,20.01884 16.83045,40.62262 13.03571,62.32143"
       id="path3144"
       inkscape:connector-curvature="0"
       transform="translate(194.14285,26.505039)"
       sodipodi:nodetypes="cc" />
    <path
       style="fill:none;stroke:#800000"
       d="m 463.75,585.10714 c -5.17274,60.26138 -33.03829,69.62603 -61.25,78.21429"
       id="path3146"
       inkscape:connector-curvature="0"
       transform="translate(194.14285,26.505039)"
       sodipodi:nodetypes="cc" />
    <path
       style="fill:none;stroke:#800000"
       d="m 406.42857,672.96428 c -21.19536,7.87272 -33.73625,22.19319 -43.03571,38.92858"
       id="path3148"
       inkscape:connector-curvature="0"
       transform="translate(194.14285,26.505039)"
       sodipodi:nodetypes="cc" />
    <path
       style="fill:none;stroke:#800000"
       d="m 353.57143,710.82143 c -15.37178,16.01041 -18.79392,35.7944 -15,57.85714"
       id="path3150"
       inkscape:connector-curvature="0"
       transform="translate(194.14285,26.505039)"
       sodipodi:nodetypes="cc" />
    <path
       style="fill:none;stroke:#800000"
       d="m 347.32143,769.75 c 3.45752,46.74053 39.5607,72.64798 94.10714,86.78571"
       id="path3152"
       inkscape:connector-curvature="0"
       transform="translate(194.14285,26.505039)"
       sodipodi:nodetypes="cc" />
    <path
       style="fill:none;stroke:#800000"
       d="m 442.67857,847.96428 c 18.25773,-2.02054 37.23558,0.20058 57.5,10"
       id="path3154"
       inkscape:connector-curvature="0"
       transform="translate(194.14285,26.505039)"
       sodipodi:nodetypes="cc" />
    <path
       style="fill:none;stroke:#800000"
       d="m 497.2908,864.5281 c 60.88355,25.77039 85.64021,84.35415 84.85206,130.75761"
       id="path3156"
       inkscape:connector-curvature="0"
       transform="translate(194.14285,26.505039)"
       sodipodi:nodetypes="cc" />
    <path
       style="fill:none;stroke:#800000"
       d="m 573.57143,994.92857 c 3.74457,22.36473 0.42533,39.07833 -5.89286,53.39283"
       id="path3158"
       inkscape:connector-curvature="0"
       transform="translate(194.14285,26.505039)"
       sodipodi:nodetypes="cc" />
    <path
       style="fill:none;stroke:#800000"
       d="m 572.14286,1051 c -2.81035,22.4802 -12.6897,38.1124 -26.25,50.1786"
       id="path3160"
       inkscape:connector-curvature="0"
       transform="translate(194.14285,26.505039)"
       sodipodi:nodetypes="cc" />
    <path
       style="fill:none;stroke:#800000"
       d="m 539.46429,1097.4286 c -22.72794,36.2958 -59.76293,55.3498 -108.75,60"
       id="path3162"
       inkscape:connector-curvature="0"
       transform="translate(194.14285,26.505039)"
       sodipodi:nodetypes="cc" />
    <path
       style="fill:none;stroke:#800000"
       d="m 426.60714,1149.5714 c -18.2859,5.9239 -29.88669,19.3685 -40.17857,34.2857"
       id="path3164"
       inkscape:connector-curvature="0"
       transform="translate(194.14285,26.505039)"
       sodipodi:nodetypes="cc" />
    <path
       style="fill:none;stroke:#800000"
       d="m 379.28572,1177.0714 c -43.97743,25.8845 -56.47364,68.2491 -50.35715,120.3572"
       id="path3166"
       inkscape:connector-curvature="0"
       transform="translate(194.14285,26.505039)"
       sodipodi:nodetypes="cc" />
    <path
       style="fill:none;stroke:#800000"
       d="m 339.28572,1294.0357 c 1.65019,17.3515 10.03946,31.7655 24.82142,43.3929"
       id="path3168"
       inkscape:connector-curvature="0"
       transform="translate(194.14285,26.505039)"
       sodipodi:nodetypes="cc" />
    <path
       style="fill:none;stroke:#800000"
       d="m 359.46429,1346.5357 c 10.06139,12.6234 21.77246,22.7392 40.17857,22.6786"
       id="path3170"
       inkscape:connector-curvature="0"
       transform="translate(194.14285,26.505039)"
       sodipodi:nodetypes="cc" />
    <path
       style="fill:none;stroke:#800000"
       d="m 400.71429,1360.8214 c 57.69909,20.0613 141.50228,-9.5849 143.39285,-95.8928"
       id="path3172"
       inkscape:connector-curvature="0"
       transform="translate(194.14285,26.505039)"
       sodipodi:nodetypes="cc" />
    <path
       style="fill:none;stroke:#800000"
       d="m 552.85714,1264.3929 c -0.91357,-17.2547 1.0913,-32.1746 21.78572,-32.1429"
       id="path3174"
       inkscape:connector-curvature="0"
       transform="translate(194.14285,26.505039)"
       sodipodi:nodetypes="cc" />
    <path
       style="fill:none;stroke:#800000"
       d="m 574.32904,1232.1364 c -3.93088,-14.9565 -1.34677,-27.6638 22.81382,-32.9221"
       id="path3176"
       inkscape:connector-curvature="0"
       transform="translate(194.14285,26.505039)"
       sodipodi:nodetypes="cc" />
    <path
       style="fill:none;stroke:#800000"
       d="m 600.35714,1205.4643 c 39.54463,-21.184 135.86216,7.417 124.82143,93.75"
       id="path3178"
       inkscape:connector-curvature="0"
       transform="translate(194.14285,26.505039)"
       sodipodi:nodetypes="cc" />
    <path
       style="fill:none;stroke:#800000"
       d="m 732.5,1296.7143 c 3.60109,30.8026 16.89971,55.0325 50.71429,65.3571"
       id="path3180"
       inkscape:connector-curvature="0"
       transform="translate(194.14285,26.505039)"
       sodipodi:nodetypes="cc" />
    <path
       style="fill:none;stroke:#800000"
       d="m 779.28572,1367.25 c 26.92512,5.6448 49.1349,4.1492 64.28571,-8.0357"
       id="path3182"
       inkscape:connector-curvature="0"
       transform="translate(194.14285,26.505039)"
       sodipodi:nodetypes="cc" />
    <path
       style="fill:none;stroke:#800000"
       d="m 847.85714,1369.75 c 18.73723,-6.0718 31.7936,-13.0922 43.21428,-30.8928"
       id="path3184"
       inkscape:connector-curvature="0"
       transform="translate(194.14285,26.505039)"
       sodipodi:nodetypes="cc" />
  </g>
</svg>
