<?xml version="1.0" encoding="UTF-8" standalone="no"?>
<!-- Created with Inkscape (http://www.inkscape.org/) -->

<svg
   xmlns:dc="http://purl.org/dc/elements/1.1/"
   xmlns:cc="http://creativecommons.org/ns#"
   xmlns:rdf="http://www.w3.org/1999/02/22-rdf-syntax-ns#"
   xmlns:svg="http://www.w3.org/2000/svg"
   xmlns="http://www.w3.org/2000/svg"
   xmlns:xlink="http://www.w3.org/1999/xlink"
   xmlns:sodipodi="http://sodipodi.sourceforge.net/DTD/sodipodi-0.dtd"
   xmlns:inkscape="http://www.inkscape.org/namespaces/inkscape"
   width="212.72501mm"
   height="276.22501mm"
   viewBox="0 0 753.75002 978.75002"
   id="svg7311"
   version="1.1"
   inkscape:version="0.91 r13725"
   sodipodi:docname="midnight_blues_lady.svg">
  <defs
     id="defs7313" />
  <sodipodi:namedview
     id="base"
     pagecolor="#ffffff"
     bordercolor="#666666"
     borderopacity="1.0"
     inkscape:pageopacity="0.0"
     inkscape:pageshadow="2"
     inkscape:zoom="7.9195959"
     inkscape:cx="285.33912"
     inkscape:cy="799.74263"
     inkscape:document-units="px"
     inkscape:current-layer="layer1"
     showgrid="false"
     fit-margin-top="0"
     fit-margin-left="0"
     fit-margin-right="0"
     fit-margin-bottom="0"
     inkscape:window-width="2495"
     inkscape:window-height="1056"
     inkscape:window-x="1985"
     inkscape:window-y="24"
     inkscape:window-maximized="1" />
  <metadata
     id="metadata7316">
    <rdf:RDF>
      <cc:Work
         rdf:about="">
        <dc:format>image/svg+xml</dc:format>
        <dc:type
           rdf:resource="http://purl.org/dc/dcmitype/StillImage" />
        <dc:title />
      </cc:Work>
    </rdf:RDF>
  </metadata>
  <g
     inkscape:label="Layer 1"
     inkscape:groupmode="layer"
     id="layer1"
     transform="translate(-471.69644,-448.70148)">
    <image
       sodipodi:absref="/home/shawn/Desktop/danceDiagrams/raw/page-465.png"
       xlink:href="/home/shawn/Desktop/danceDiagrams/raw/page-465.png"
       width="753.75"
       height="978.75"
       preserveAspectRatio="none"
       id="image7410"
       x="471.69644"
       y="448.70148" />
    <path
       style="fill:none;stroke:#800000"
       d="m 642.9173,958.48818 385.8783,0"
       id="path9432"
       inkscape:connector-curvature="0" />
    <path
       style="fill:none;stroke:#800000"
       d="m 835.09882,582.71143 0,751.80607"
       id="path9434"
       inkscape:connector-curvature="0" />
    <path
       style="fill:none;stroke:#800000"
       d="m 733.51535,738.96941 c 12.02121,0.44456 23.24982,4.05955 33.58758,11.23794"
       id="path9436"
       inkscape:connector-curvature="0"
       sodipodi:nodetypes="cc" />
    <path
       style="fill:none;stroke:#800000"
       d="m 766.53471,755.06871 c 11.16644,5.92946 17.70132,14.48361 22.6653,23.92799"
       id="path9438"
       inkscape:connector-curvature="0"
       sodipodi:nodetypes="cc" />
    <path
       style="fill:none;stroke:#800000"
       d="m 794.75585,778.49162 c 3.05738,4.693 5.26524,9.38601 2.33598,14.07901"
       id="path9440"
       inkscape:connector-curvature="0"
       sodipodi:nodetypes="cc" />
    <path
       style="fill:none;stroke:#800000"
       d="m 797.28123,792.25495 c 6.00337,2.50949 8.39536,6.30696 9.40705,10.48034"
       id="path9442"
       inkscape:connector-curvature="0"
       sodipodi:nodetypes="cc" />
    <path
       style="fill:none;stroke:#800000"
       d="m 807.13022,806.83903 c 2.10418,8.55228 0.13369,11.13972 -2.71478,14.079"
       id="path9444"
       inkscape:connector-curvature="0"
       sodipodi:nodetypes="cc" />
    <path
       style="fill:none;stroke:#800000"
       d="m 804.73111,820.28669 c 4.23307,4.61717 2.56852,8.9067 0.88388,13.19511"
       id="path9446"
       inkscape:connector-curvature="0"
       sodipodi:nodetypes="cc" />
    <path
       style="fill:none;stroke:#800000"
       d="m 800.81677,835.43897 c -6.73015,48.26711 -34.26648,74.71663 -89.46164,72.16278"
       id="path9448"
       inkscape:connector-curvature="0"
       sodipodi:nodetypes="cc" />
    <path
       style="fill:none;stroke:#800000"
       d="m 711.35513,907.72801 c -11.07513,0.28224 -18.26602,7.78722 -19.88738,11.36422"
       id="path9450"
       inkscape:connector-curvature="0"
       sodipodi:nodetypes="cc" />
    <path
       style="fill:none;stroke:#800000"
       d="m 691.08895,924.01673 c -8.39878,7.78197 -12.87561,18.92561 -14.20527,32.76682"
       id="path9452"
       inkscape:connector-curvature="0"
       sodipodi:nodetypes="cc" />
    <path
       style="fill:none;stroke:#800000"
       d="m 671.95918,960.38222 c -2.61359,14.52592 0.90278,24.85765 4.54569,35.1028"
       id="path9454"
       inkscape:connector-curvature="0"
       sodipodi:nodetypes="cc" />
    <path
       style="fill:none;stroke:#800000"
       d="m 681.36623,995.48502 c 10.23823,20.49078 29.69346,33.69118 66.60693,33.08248"
       id="path9456"
       inkscape:connector-curvature="0"
       sodipodi:nodetypes="cc" />
    <path
       style="fill:none;stroke:#800000"
       d="m 747.34182,1028.4412 c 43.24393,4.5925 47.32591,19.3595 47.47717,34.4715"
       id="path9458"
       inkscape:connector-curvature="0"
       sodipodi:nodetypes="cc" />
    <path
       style="fill:none;stroke:#800000"
       d="m 794.44018,1061.9026 c 21.22642,5.3975 20.03497,54.3918 -4.54569,72.3521"
       id="path9460"
       inkscape:connector-curvature="0"
       sodipodi:nodetypes="cc" />
    <path
       style="fill:none;stroke:#800000"
       d="m 789.76822,1139.053 c -11.76503,9.8598 -25.36116,13.6159 -40.15356,13.3845"
       id="path9462"
       inkscape:connector-curvature="0"
       sodipodi:nodetypes="cc" />
    <path
       style="fill:none;stroke:#800000"
       d="m 747.84689,1135.6437 c -18.08916,-3.9123 -49.08792,0.7283 -52.90673,25.0013"
       id="path9464"
       inkscape:connector-curvature="0"
       sodipodi:nodetypes="cc" />
    <path
       style="fill:none;stroke:#800000"
       d="m 695.19269,1160.2662 c -18.68539,-0.3951 -30.63063,26.7961 -24.4962,48.1085"
       id="path9466"
       inkscape:connector-curvature="0"
       sodipodi:nodetypes="cc" />
    <path
       style="fill:none;stroke:#800000"
       d="m 671.83291,1213.5517 c 1.0295,16.2736 8.67762,29.1056 18.05648,41.0375"
       id="path9468"
       inkscape:connector-curvature="0"
       sodipodi:nodetypes="cc" />
    <path
       style="fill:none;stroke:#800000"
       d="m 685.84878,1258.6298 c 7.86062,13.7612 17.81428,24.6243 30.05204,32.3248"
       id="path9470"
       inkscape:connector-curvature="0"
       sodipodi:nodetypes="cc" />
    <path
       style="fill:none;stroke:#800000"
       d="m 721.33039,1288.1767 c 9.55136,8.7747 37.26739,17.6192 48.9924,11.4905"
       id="path9472"
       inkscape:connector-curvature="0"
       sodipodi:nodetypes="cc" />
    <path
       style="fill:none;stroke:#800000"
       d="m 770.07025,1298.9096 c 3.09275,9.1822 29.83348,12.3363 44.82552,8.3338"
       id="path9474"
       inkscape:connector-curvature="0"
       sodipodi:nodetypes="cc" />
    <path
       style="fill:none;stroke:#800000"
       d="m 816.53727,1302.5714 c 12.77235,4.8241 26.54902,-3.7504 28.03173,-11.3642"
       id="path9476"
       inkscape:connector-curvature="0"
       sodipodi:nodetypes="cc" />
    <path
       style="fill:none;stroke:#800000"
       d="m 844.1902,1291.8385 c 39.30576,-0.2848 45.58964,-53.6731 30.55711,-88.8934"
       id="path9478"
       inkscape:connector-curvature="0"
       sodipodi:nodetypes="cc" />
    <path
       style="fill:none;stroke:#800000"
       d="m 874.87358,1203.1976 c -12.17253,-61.9108 65.6619,-40.071 57.9575,-20.0767"
       id="path9480"
       inkscape:connector-curvature="0"
       sodipodi:nodetypes="cc" />
    <path
       style="fill:none;stroke:#800000"
       d="m 932.7048,1182.7421 c 8.63578,-2.5356 10.62693,5.4268 28.78936,2.9041"
       id="path9482"
       inkscape:connector-curvature="0"
       sodipodi:nodetypes="cc" />
    <path
       style="fill:none;stroke:#800000"
       d="m 964.27208,1180.848 c 14.55564,-0.1028 28.57014,-2.4475 40.78492,-12.2481"
       id="path9484"
       inkscape:connector-curvature="0"
       sodipodi:nodetypes="cc" />
    <path
       style="fill:none;stroke:#800000"
       d="m 1004.9307,1168.7262 c 4.0183,1.2767 6.5797,-0.9042 3.9144,-5.5559"
       id="path9486"
       inkscape:connector-curvature="0"
       sodipodi:nodetypes="cc" />
    <path
       style="fill:none;stroke:#800000"
       d="m 1008.9714,1163.6755 c 4.4116,0.723 5.5978,-3.622 2.9041,-5.9347"
       id="path9488"
       inkscape:connector-curvature="0"
       sodipodi:nodetypes="cc" />
    <path
       style="fill:none;stroke:#800000"
       d="m 1016.1686,1157.4883 c 1.1606,-1.0549 2.5312,-2.0904 3.0306,-4.7983"
       id="path9490"
       inkscape:connector-curvature="0"
       sodipodi:nodetypes="cc" />
    <path
       style="fill:none;stroke:#800000"
       d="m 1020.8406,1149.2807 c 8.4861,-55.9972 -30.6589,-74.0806 -73.99366,-72.3521"
       id="path9492"
       inkscape:connector-curvature="0"
       sodipodi:nodetypes="cc" />
    <path
       style="fill:none;stroke:#800000"
       d="m 945.96306,1081.7268 c -68.83845,3.3591 -72.39839,-97.20491 3.6618,-107.70752"
       id="path9494"
       inkscape:connector-curvature="0"
       sodipodi:nodetypes="cc" />
    <path
       style="fill:none;stroke:#800000"
       d="m 952.15025,968.71598 c 15.24172,4.08531 41.30961,-11.4343 34.97653,-19.82425"
       id="path9498"
       inkscape:connector-curvature="0"
       sodipodi:nodetypes="cc" />
    <path
       style="fill:none;stroke:#800000"
       d="m 987.63185,949.39681 c 7.84362,0.93273 20.93085,-14.37571 18.56155,-33.20877"
       id="path9500"
       inkscape:connector-curvature="0"
       sodipodi:nodetypes="cc" />
    <path
       style="fill:none;stroke:#800000"
       d="m 1001.0164,914.67281 c -2.44112,-20.78762 -7.42287,-40.51232 -42.30016,-47.7297"
       id="path9502"
       inkscape:connector-curvature="0"
       sodipodi:nodetypes="cc" />
    <path
       style="fill:none;stroke:#800000"
       d="m 955.68578,871.8676 c -9.23493,0.92495 -30.67595,-4.1412 -32.95623,-17.42513"
       id="path9504"
       inkscape:connector-curvature="0"
       sodipodi:nodetypes="cc" />
    <path
       style="fill:none;stroke:#800000"
       d="m 922.85582,854.69501 c -26.2447,7.3666 -53.45204,-45.91024 -32.57742,-64.14469"
       id="path9506"
       inkscape:connector-curvature="0"
       sodipodi:nodetypes="cc" />
    <path
       style="fill:none;stroke:#800000"
       d="m 908.46115,857.34666 c -17.8565,-9.57714 -35.43707,-29.07306 -29.16816,-64.39723"
       id="path9508"
       inkscape:connector-curvature="0"
       sodipodi:nodetypes="cc" />
    <path
       style="fill:none;stroke:#800000"
       d="m 890.53094,790.67659 c -4.42639,-8.17265 -0.35198,-17.92894 3.283,-20.70813"
       id="path9510"
       inkscape:connector-curvature="0"
       sodipodi:nodetypes="cc" />
    <path
       style="fill:none;stroke:#800000"
       d="m 879.29299,793.20197 c 1.12903,-10.43858 6.07813,-21.01404 10.10152,-28.15801"
       id="path9512"
       inkscape:connector-curvature="0"
       sodipodi:nodetypes="cc" />
    <path
       style="fill:none;stroke:#800000"
       d="m 888.88944,765.67531 c 14.08051,-22.08899 30.77691,-30.15568 52.02286,-34.97653"
       id="path9514"
       inkscape:connector-curvature="0"
       sodipodi:nodetypes="cc" />
    <path
       style="fill:none;stroke:#800000"
       d="m 948.48844,745.47226 c 1.60152,0.3667 3.50115,0.50982 6.43972,-0.12627"
       id="path9516"
       inkscape:connector-curvature="0"
       sodipodi:nodetypes="cc" />
    <path
       style="fill:none;stroke:#800000"
       d="m 956.31712,740.80031 c 8.54462,0.59335 15.93432,-0.44945 20.45559,-5.55584"
       id="path9518"
       inkscape:connector-curvature="0"
       sodipodi:nodetypes="cc" />
    <path
       style="fill:none;stroke:#800000"
       d="m 976.77271,735.62328 c 3.69983,2.69461 6.29581,1.63115 5.55584,-3.283"
       id="path9520"
       inkscape:connector-curvature="0"
       sodipodi:nodetypes="cc" />
    <path
       style="fill:none;stroke:#800000"
       d="m 982.20228,732.21401 c 3.63655,1.91088 6.4594,2.42684 5.42957,-3.6618"
       id="path9522"
       inkscape:connector-curvature="0"
       sodipodi:nodetypes="cc" />
    <path
       style="fill:none;stroke:#800000"
       d="m 987.75812,728.93101 c 32.48128,-15.87944 41.44368,-63.76487 13.25828,-92.42895"
       id="path9524"
       inkscape:connector-curvature="0"
       sodipodi:nodetypes="cc" />
    <path
       style="fill:none;stroke:#800000"
       d="m 998.23846,632.96652 c -7.10234,-7.96577 -15.61831,-14.51791 -28.41055,-16.79378"
       id="path9526"
       inkscape:connector-curvature="0"
       sodipodi:nodetypes="cc" />
    <path
       style="fill:none;stroke:#800000"
       d="m 969.57538,611.62705 c -9.47641,-2.52825 -19.51526,-4.5216 -35.60788,-0.75761"
       id="path9528"
       inkscape:connector-curvature="0"
       sodipodi:nodetypes="cc" />
    <path
       style="fill:none;stroke:#800000"
       d="m 934.97765,615.79393 c -11.15059,4.00225 -19.4486,11.36049 -24.875,22.09709"
       id="path9530"
       inkscape:connector-curvature="0"
       sodipodi:nodetypes="cc" />
    <path
       style="fill:none;stroke:#800000"
       d="m 905.17815,635.87071 c -5.14279,13.70345 -4.51859,25.61196 -1.26269,30.17831"
       id="path9532"
       inkscape:connector-curvature="0"
       sodipodi:nodetypes="cc" />
    <path
       style="fill:none;stroke:#800000"
       d="m 903.41039,665.67021 c -5.16897,1.86606 -8.59043,16.79708 -11.36422,22.8547"
       id="path9536"
       inkscape:connector-curvature="0"
       sodipodi:nodetypes="cc" />
    <path
       style="fill:none;stroke:#800000"
       d="m 892.29871,687.51477 c -11.35298,47.69213 -69.21005,51.41159 -81.44355,25.2538"
       id="path9538"
       inkscape:connector-curvature="0"
       sodipodi:nodetypes="cc" />
    <path
       style="fill:none;stroke:#800000"
       d="m 811.48651,712.51603 c -6.65766,1.09617 -22.26369,-9.79431 -19.19291,-23.10723"
       id="path9540"
       inkscape:connector-curvature="0"
       sodipodi:nodetypes="cc" />
    <path
       style="fill:none;stroke:#800000"
       d="m 792.79868,689.78761 c -7.94593,-2.40021 -12.65597,-17.2524 -11.49048,-23.48605"
       id="path9542"
       inkscape:connector-curvature="0"
       sodipodi:nodetypes="cc" />
    <path
       style="fill:none;stroke:#800000"
       d="m 785.60134,663.14483 c -5.22715,-26.23821 -18.81529,-44.54789 -43.56282,-52.27539"
       id="path9544"
       inkscape:connector-curvature="0"
       sodipodi:nodetypes="cc" />
    <path
       style="fill:none;stroke:#800000"
       d="m 739.51313,616.04647 c -10.45932,-6.56566 -21.45029,-6.75147 -32.57742,-5.3033"
       id="path9546"
       inkscape:connector-curvature="0"
       sodipodi:nodetypes="cc" />
    <path
       style="fill:none;stroke:#800000"
       d="m 705.92556,615.9202 c -17.14525,0.31194 -25.38265,6.26553 -32.57742,12.87944"
       id="path9548"
       inkscape:connector-curvature="0"
       sodipodi:nodetypes="cc" />
    <path
       style="fill:none;stroke:#800000"
       d="m 674.98964,634.35548 c -39.69811,39.85249 -10.38422,98.38746 51.77032,104.80333"
       id="path9550"
       inkscape:connector-curvature="0"
       sodipodi:nodetypes="cc" />
  </g>
</svg>
