<?xml version="1.0" encoding="UTF-8" standalone="no"?>
<!-- Created with Inkscape (http://www.inkscape.org/) -->

<svg
   xmlns:dc="http://purl.org/dc/elements/1.1/"
   xmlns:cc="http://creativecommons.org/ns#"
   xmlns:rdf="http://www.w3.org/1999/02/22-rdf-syntax-ns#"
   xmlns:svg="http://www.w3.org/2000/svg"
   xmlns="http://www.w3.org/2000/svg"
   xmlns:xlink="http://www.w3.org/1999/xlink"
   xmlns:sodipodi="http://sodipodi.sourceforge.net/DTD/sodipodi-0.dtd"
   xmlns:inkscape="http://www.inkscape.org/namespaces/inkscape"
   width="212.72501mm"
   height="276.22501mm"
   viewBox="0 0 753.75002 978.75002"
   id="svg7158"
   version="1.1"
   inkscape:version="0.91 r13725"
   sodipodi:docname="midnight_blues_man.svg">
  <defs
     id="defs7160" />
  <sodipodi:namedview
     id="base"
     pagecolor="#ffffff"
     bordercolor="#666666"
     borderopacity="1.0"
     inkscape:pageopacity="0.0"
     inkscape:pageshadow="2"
     inkscape:zoom="5.6"
     inkscape:cx="285.02611"
     inkscape:cy="736.99851"
     inkscape:document-units="px"
     inkscape:current-layer="layer1"
     showgrid="false"
     fit-margin-top="0"
     fit-margin-left="0"
     fit-margin-right="0"
     fit-margin-bottom="0"
     inkscape:window-width="2495"
     inkscape:window-height="1056"
     inkscape:window-x="1985"
     inkscape:window-y="24"
     inkscape:window-maximized="1" />
  <metadata
     id="metadata7163">
    <rdf:RDF>
      <cc:Work
         rdf:about="">
        <dc:format>image/svg+xml</dc:format>
        <dc:type
           rdf:resource="http://purl.org/dc/dcmitype/StillImage" />
        <dc:title />
      </cc:Work>
    </rdf:RDF>
  </metadata>
  <g
     inkscape:label="Layer 1"
     inkscape:groupmode="layer"
     id="layer1"
     transform="translate(-463.125,-434.41577)">
    <image
       sodipodi:absref="/home/shawn/Desktop/danceDiagrams/raw/page-464.png"
       xlink:href="/home/shawn/Desktop/danceDiagrams/raw/page-464.png"
       width="753.75"
       height="978.75"
       preserveAspectRatio="none"
       id="image7289"
       x="463.125"
       y="434.41577" />
    <path
       style="fill:none;stroke:#800000"
       d="m 655.26786,947.45151 391.07144,0"
       id="path3334"
       inkscape:connector-curvature="0" />
    <path
       style="fill:none;stroke:#800000"
       d="m 850.625,565.66579 0,762.14291"
       id="path3338"
       inkscape:connector-curvature="0" />
    <path
       style="fill:none;stroke:#800000"
       d="m 745.26786,726.02293 c 13.03176,2.45673 24.04899,7.12944 32.32143,14.82143"
       id="path3340"
       inkscape:connector-curvature="0"
       sodipodi:nodetypes="cc" />
    <path
       style="fill:none;stroke:#800000"
       d="m 782.23214,738.7015 c 10.10075,6.59466 16.68599,15.60513 20.89286,26.25"
       id="path3342"
       inkscape:connector-curvature="0"
       sodipodi:nodetypes="cc" />
    <path
       style="fill:none;stroke:#800000"
       d="m 799.375,767.09436 c 7.13503,14.88095 15.81853,29.76191 9.64286,44.64286"
       id="path3344"
       inkscape:connector-curvature="0"
       sodipodi:nodetypes="cc" />
    <path
       style="fill:none;stroke:#800000"
       d="m 809.01786,811.38008 c 8.40096,6.37524 3.29612,16.48172 2.32143,25.53571"
       id="path3346"
       inkscape:connector-curvature="0"
       sodipodi:nodetypes="cc" />
    <path
       style="fill:none;stroke:#800000"
       d="m 816.875,837.63008 c -11.74393,37.33974 -43.09074,60.37747 -79.82143,66.60714"
       id="path3348"
       inkscape:connector-curvature="0"
       sodipodi:nodetypes="cc" />
    <path
       style="fill:none;stroke:#800000"
       d="m 733.83929,900.13008 c -12.73196,-0.86955 -24.29184,2.71483 -34.64286,10.89285"
       id="path3350"
       inkscape:connector-curvature="0"
       sodipodi:nodetypes="cc" />
    <path
       style="fill:none;stroke:#800000"
       d="m 701.33929,914.41579 c -10.08996,9.36849 -13.36488,21.24778 -14.46429,33.92857"
       id="path3352"
       inkscape:connector-curvature="0"
       sodipodi:nodetypes="cc" />
    <path
       style="fill:none;stroke:#800000"
       d="m 682.23214,950.48722 c -0.99211,12.14286 -1.19381,24.28571 6.25,36.42857"
       id="path3354"
       inkscape:connector-curvature="0"
       sodipodi:nodetypes="cc" />
    <path
       style="fill:none;stroke:#800000"
       d="m 692.94643,986.73722 c 10.62197,20.63158 31.93848,30.31988 63.03571,29.99998"
       id="path3356"
       inkscape:connector-curvature="0"
       sodipodi:nodetypes="cc" />
    <path
       style="fill:none;stroke:#800000"
       d="m 754.91071,1016.7372 c 45.64212,5.1292 58.63252,25.9621 57.14286,41.4286"
       id="path3358"
       inkscape:connector-curvature="0"
       sodipodi:nodetypes="cc" />
    <path
       style="fill:none;stroke:#800000"
       d="m 811.875,1057.2729 c 21.43123,9.7771 12.22339,57.3773 -7.67857,69.8215"
       id="path3360"
       inkscape:connector-curvature="0"
       sodipodi:nodetypes="cc" />
    <path
       style="fill:none;stroke:#800000"
       d="m 799.19643,1124.5944 c -10.56028,9.6252 -24.20549,13.6415 -40,13.75"
       id="path3362"
       inkscape:connector-curvature="0"
       sodipodi:nodetypes="cc" />
    <path
       style="fill:none;stroke:#800000"
       d="m 755.98214,1121.7372 c -14.04429,-0.271 -27.56061,3.6818 -40.17857,14.8215"
       id="path3364"
       inkscape:connector-curvature="0"
       sodipodi:nodetypes="cc" />
    <path
       style="fill:none;stroke:#800000"
       d="m 716.875,1140.6658 c -25.49531,11.769 -37.1154,32.3434 -37.85714,59.8214"
       id="path3366"
       inkscape:connector-curvature="0"
       sodipodi:nodetypes="cc" />
    <path
       style="fill:none;stroke:#800000"
       d="m 683.66071,1202.0944 c -1.79422,14.047 1.0892,26.3562 6.42858,38.0357"
       id="path3368"
       inkscape:connector-curvature="0"
       sodipodi:nodetypes="cc" />
    <path
       style="fill:none;stroke:#800000"
       d="m 694.91071,1239.4158 c 8.44616,19.0306 22.47993,35.4506 32.32143,32.8571"
       id="path3370"
       inkscape:connector-curvature="0"
       sodipodi:nodetypes="cc" />
    <path
       style="fill:none;stroke:#800000"
       d="m 726.51785,1272.4516 c 7.12669,30.3354 48.14465,14.8259 49.28572,25.7142"
       id="path3372"
       inkscape:connector-curvature="0"
       sodipodi:nodetypes="cc" />
    <path
       style="fill:none;stroke:#800000"
       d="m 775.98214,1298.5229 c 4.18203,-8.8501 33.14738,0.7722 50.71429,-1.4285"
       id="path3374"
       inkscape:connector-curvature="0"
       sodipodi:nodetypes="cc" />
    <path
       style="fill:none;stroke:#800000"
       d="m 825.98215,1297.2729 c 39.3217,-3.8874 74.63151,-36.1274 57.32142,-104.4642"
       id="path3376"
       inkscape:connector-curvature="0"
       sodipodi:nodetypes="cc" />
    <path
       style="fill:none;stroke:#800000"
       d="m 883.125,1193.1658 c -8.01243,-49.8684 60.40465,-40.257 62.14286,-23.2143"
       id="path3378"
       inkscape:connector-curvature="0"
       sodipodi:nodetypes="cc" />
    <path
       style="fill:none;stroke:#800000"
       d="m 944.375,1169.2372 c 7.9406,5.181 17.30916,4.2932 27.14286,1.4286"
       id="path3380"
       inkscape:connector-curvature="0"
       sodipodi:nodetypes="cc" />
    <path
       style="fill:none;stroke:#800000"
       d="m 975.80357,1167.4515 c 7.17005,4.2575 28.98893,7.7657 30.00003,-4.2857"
       id="path3382"
       inkscape:connector-curvature="0"
       sodipodi:nodetypes="cc" />
    <path
       style="fill:none;stroke:#800000"
       d="m 1005.8036,1163.7015 c 8.3346,5.6847 23.1312,-1.9004 27.1428,-16.9643"
       id="path3384"
       inkscape:connector-curvature="0"
       sodipodi:nodetypes="cc" />
    <path
       style="fill:none;stroke:#800000"
       d="m 1029.0179,1143.3444 c 3.7001,-17.8363 1.944,-43.8313 -16.6072,-56.9643"
       id="path3386"
       inkscape:connector-curvature="0"
       sodipodi:nodetypes="cc" />
    <path
       style="fill:none;stroke:#800000"
       d="m 1014.375,1081.5587 c -11.3646,-10.8057 -29.68136,-14.7484 -51.96428,-11.7858"
       id="path3388"
       inkscape:connector-curvature="0"
       sodipodi:nodetypes="cc" />
    <path
       style="fill:none;stroke:#800000"
       d="m 960.26786,1072.8087 c -20.21292,2.4668 -40.63,-0.644 -39.10714,-18.0358"
       id="path3390"
       inkscape:connector-curvature="0"
       sodipodi:nodetypes="cc" />
    <path
       style="fill:none;stroke:#800000"
       d="m 920.98214,1055.6658 c -25.42951,-1.8686 -34.65393,-79.24416 39.46429,-94.64287"
       id="path3392"
       inkscape:connector-curvature="0"
       sodipodi:nodetypes="cc" />
    <path
       style="fill:none;stroke:#800000"
       d="m 965.26786,965.66579 c 15.15921,-1.1697 28.80711,-5.36202 38.75004,-16.96429"
       id="path3394"
       inkscape:connector-curvature="0"
       sodipodi:nodetypes="cc" />
    <path
       style="fill:none;stroke:#800000"
       d="m 1002.9464,943.34436 c 11.5862,-10.31932 16.7455,-22.18109 16.4286,-35.35714"
       id="path3396"
       inkscape:connector-curvature="0"
       sodipodi:nodetypes="cc" />
    <path
       style="fill:none;stroke:#800000"
       d="m 1014.9107,905.48722 c 1.4312,-25.4423 -10.7929,-43.80405 -47.85713,-49.28572"
       id="path3400"
       inkscape:connector-curvature="0"
       sodipodi:nodetypes="cc" />
    <path
       style="fill:none;stroke:#800000"
       d="m 964.73214,860.66579 c -11.56462,0.72843 -22.88507,0.3988 -33.03571,-5"
       id="path3402"
       inkscape:connector-curvature="0"
       sodipodi:nodetypes="cc" />
    <path
       style="fill:none;stroke:#800000"
       d="M 932.41072,850.30865 C 893.13177,835.4091 882.42801,793.0484 899.375,779.59436"
       id="path3404"
       inkscape:connector-curvature="0"
       sodipodi:nodetypes="cc" />
    <path
       style="fill:none;stroke:#800000"
       d="m 928.83929,854.41579 c -35.48795,-16.73158 -46.26167,-42.26938 -40.35715,-73.75"
       id="path3408"
       inkscape:connector-curvature="0"
       sodipodi:nodetypes="cc" />
    <path
       style="fill:none;stroke:#800000"
       d="m 898.83929,780.48722 c -2.67191,-7.50066 -1.232,-14.95436 3.39285,-21.78572"
       id="path3410"
       inkscape:connector-curvature="0"
       sodipodi:nodetypes="cc" />
    <path
       style="fill:none;stroke:#800000"
       d="m 888.48214,781.02294 c 1.58103,-8.57666 5.1454,-17.79236 9.10714,-25.89287"
       id="path3412"
       inkscape:connector-curvature="0"
       sodipodi:nodetypes="cc" />
    <path
       style="fill:none;stroke:#800000"
       d="m 897.41072,755.66579 c 11.28178,-20.24627 31.78517,-32.69555 55.53571,-39.64286"
       id="path3414"
       inkscape:connector-curvature="0"
       sodipodi:nodetypes="cc" />
    <path
       style="fill:none;stroke:#800000"
       d="m 956.69643,733.7015 c 1.93594,0.87443 3.91609,1.63835 6.78571,0.17858"
       id="path3416"
       inkscape:connector-curvature="0"
       sodipodi:nodetypes="cc" />
    <path
       style="fill:none;stroke:#800000"
       d="m 965.08929,729.41579 c 65.11721,4.09512 93.78431,-67.45311 50.00001,-106.07143"
       id="path3418"
       inkscape:connector-curvature="0"
       sodipodi:nodetypes="cc" />
    <path
       style="fill:none;stroke:#800000"
       d="m 1016.5179,619.23722 c -8.3326,-7.91857 -18.51735,-13.10967 -31.42861,-14.28572"
       id="path3420"
       inkscape:connector-curvature="0"
       sodipodi:nodetypes="cc" />
    <path
       style="fill:none;stroke:#800000"
       d="m 984.91072,600.48722 c -11.16566,-2.96468 -23.12042,-2.50995 -35.71429,0.71428"
       id="path3422"
       inkscape:connector-curvature="0"
       sodipodi:nodetypes="cc" />
    <path
       style="fill:none;stroke:#800000"
       d="m 949.91072,606.02293 c -13.5054,3.22276 -20.59207,11.35397 -26.07143,20.71429"
       id="path3424"
       inkscape:connector-curvature="0"
       sodipodi:nodetypes="cc" />
    <path
       style="fill:none;stroke:#800000"
       d="m 918.83929,626.91579 c -5.6241,9.5468 -6.9731,24.44279 -6.25,36.60714"
       id="path3428"
       inkscape:connector-curvature="0"
       sodipodi:nodetypes="cc" />
    <path
       style="fill:none;stroke:#800000"
       d="m 912.58929,662.63007 c 1.71259,60.34356 -78.31662,68.19093 -89.28572,39.82144"
       id="path3430"
       inkscape:connector-curvature="0"
       sodipodi:nodetypes="cc" />
    <path
       style="fill:none;stroke:#800000"
       d="m 823.66071,702.09437 c -12.64893,-0.80346 -18.83911,-8.42279 -17.67857,-23.03572"
       id="path3432"
       inkscape:connector-curvature="0"
       sodipodi:nodetypes="cc" />
    <path
       style="fill:none;stroke:#800000"
       d="M 806.51785,678.88007 C 797.78329,676.67768 792.87203,668.403 792.23214,653.34436"
       id="path3434"
       inkscape:connector-curvature="0"
       sodipodi:nodetypes="cc" />
    <path
       style="fill:none;stroke:#800000"
       d="M 797.76786,651.55865 C 796.59278,637.42843 791.14098,623.08316 779.375,621.02293"
       id="path3436"
       inkscape:connector-curvature="0"
       sodipodi:nodetypes="cc" />
    <path
       style="fill:none;stroke:#800000"
       d="m 779.73215,621.38007 c 1.41399,-10.79669 -12.2991,-22.26012 -24.10715,-23.74999"
       id="path3438"
       inkscape:connector-curvature="0"
       sodipodi:nodetypes="cc" />
    <path
       style="fill:none;stroke:#800000"
       d="m 752.94643,601.91579 c -9.17492,-5.31214 -20.64701,-7.30617 -34.10714,-6.42857"
       id="path3440"
       inkscape:connector-curvature="0"
       sodipodi:nodetypes="cc" />
    <path
       style="fill:none;stroke:#800000"
       d="m 714.375,600.48722 c -84.54029,30.25704 -41.0664,119.64979 26.42857,129.46428"
       id="path3442"
       inkscape:connector-curvature="0"
       sodipodi:nodetypes="cc" />
  </g>
</svg>
