<?xml version="1.0" encoding="UTF-8" standalone="no"?>
<!-- Created with Inkscape (http://www.inkscape.org/) -->

<svg
   xmlns:dc="http://purl.org/dc/elements/1.1/"
   xmlns:cc="http://creativecommons.org/ns#"
   xmlns:rdf="http://www.w3.org/1999/02/22-rdf-syntax-ns#"
   xmlns:svg="http://www.w3.org/2000/svg"
   xmlns="http://www.w3.org/2000/svg"
   xmlns:xlink="http://www.w3.org/1999/xlink"
   xmlns:sodipodi="http://sodipodi.sourceforge.net/DTD/sodipodi-0.dtd"
   xmlns:inkscape="http://www.inkscape.org/namespaces/inkscape"
   width="1206"
   height="1566"
   id="svg3331"
   version="1.1"
   inkscape:version="0.48.4 r9939"
   sodipodi:docname="paso_doble_lady.svg">
  <defs
     id="defs3333" />
  <sodipodi:namedview
     id="base"
     pagecolor="#ffffff"
     bordercolor="#666666"
     borderopacity="1.0"
     inkscape:pageopacity="0.0"
     inkscape:pageshadow="2"
     inkscape:zoom="5.6"
     inkscape:cx="759.65425"
     inkscape:cy="1148.9303"
     inkscape:document-units="px"
     inkscape:current-layer="layer1"
     showgrid="false"
     fit-margin-top="0"
     fit-margin-left="0"
     fit-margin-right="0"
     fit-margin-bottom="0"
     inkscape:window-width="2495"
     inkscape:window-height="1056"
     inkscape:window-x="1985"
     inkscape:window-y="24"
     inkscape:window-maximized="1" />
  <metadata
     id="metadata3336">
    <rdf:RDF>
      <cc:Work
         rdf:about="">
        <dc:format>image/svg+xml</dc:format>
        <dc:type
           rdf:resource="http://purl.org/dc/dcmitype/StillImage" />
        <dc:title />
      </cc:Work>
    </rdf:RDF>
  </metadata>
  <g
     inkscape:label="Layer 1"
     inkscape:groupmode="layer"
     id="layer1"
     transform="translate(-219.85715,-6.5050397)">
    <image
       y="6.5050397"
       x="219.85715"
       id="image3414"
       xlink:href="file:///home/shawn/Desktop/danceDiagrams/raw/page-420.png"
       height="1566"
       width="1206" />
    <path
       style="fill:none;stroke:#800000"
       d="m 309.48549,816.97189 622.4788,0"
       id="path3032"
       inkscape:connector-curvature="0"
       transform="translate(219.85715,6.5050397)" />
    <path
       style="fill:none;stroke:#800000"
       d="m 620.53572,211.35714 0,1211.24996"
       id="path3034"
       inkscape:connector-curvature="0"
       transform="translate(219.85715,6.5050397)" />
    <path
       style="fill:none;stroke:#800000"
       d="m 863.42789,437.91214 c 11.97221,-25.39679 2.398,-50.74485 -9.59645,-66.9226"
       id="path3036"
       inkscape:connector-curvature="0"
       transform="translate(219.85715,6.5050397)"
       sodipodi:nodetypes="cc" />
    <path
       style="fill:none;stroke:#800000"
       d="m 865.19566,370.737 c -5.18849,-32.77037 -23.5171,-53.0922 -54.2957,-61.61931"
       id="path3038"
       inkscape:connector-curvature="0"
       transform="translate(219.85715,6.5050397)"
       sodipodi:nodetypes="cc" />
    <path
       style="fill:none;stroke:#800000"
       d="M 810.39488,319.21922 C 791.50894,302.79441 768.14747,293.33155 737.15882,295.73317"
       id="path3040"
       inkscape:connector-curvature="0"
       transform="translate(219.85715,6.5050397)"
       sodipodi:nodetypes="cc" />
    <path
       style="fill:none;stroke:#800000"
       d="m 739.6842,286.6418 c -24.95903,-16.48214 -52.91512,-12.84123 -82.57997,2.27284"
       id="path3042"
       inkscape:connector-curvature="0"
       transform="translate(219.85715,6.5050397)"
       sodipodi:nodetypes="cc" />
    <path
       style="fill:none;stroke:#800000"
       d="m 664.1753,297.75348 c -29.66939,-0.22548 -53.40852,11.01423 -72.98352,30.30457"
       id="path3044"
       inkscape:connector-curvature="0"
       transform="translate(219.85715,6.5050397)"
       sodipodi:nodetypes="cc" />
    <path
       style="fill:none;stroke:#800000"
       d="m 581.59533,321.99714 c -24.11435,15.69998 -39.51652,36.91767 -43.43656,65.40738"
       id="path3046"
       inkscape:connector-curvature="0"
       transform="translate(219.85715,6.5050397)"
       sodipodi:nodetypes="cc" />
    <path
       style="fill:none;stroke:#800000"
       d="m 550.2806,389.9299 c -17.51869,26.20472 -20.3057,57.32 -15.65736,90.91373"
       id="path3048"
       inkscape:connector-curvature="0"
       transform="translate(219.85715,6.5050397)"
       sodipodi:nodetypes="cc" />
    <path
       style="fill:none;stroke:#800000"
       d="m 527.80471,483.62155 c -0.66999,24.34796 -0.59063,47.79325 -0.25254,70.45814"
       id="path3050"
       inkscape:connector-curvature="0"
       transform="translate(219.85715,6.5050397)"
       sodipodi:nodetypes="cc" />
    <path
       style="fill:none;stroke:#800000"
       d="m 537.90623,484.88424 c -0.35869,28.80219 -0.29686,56.17428 0.25254,83.08504"
       id="path3052"
       inkscape:connector-curvature="0"
       transform="translate(219.85715,6.5050397)"
       sodipodi:nodetypes="cc" />
    <path
       style="fill:none;stroke:#800000"
       d="m 537.90623,574.28274 c -0.44371,25.45191 -0.39063,47.52239 -0.25254,69.70052"
       id="path3054"
       inkscape:connector-curvature="0"
       transform="translate(219.85715,6.5050397)"
       sodipodi:nodetypes="cc" />
    <path
       style="fill:none;stroke:#800000"
       d="m 527.29963,559.13045 c -0.18518,26.51112 -0.13444,58.00333 0.75761,84.60028"
       id="path3056"
       inkscape:connector-curvature="0"
       transform="translate(219.85715,6.5050397)"
       sodipodi:nodetypes="cc" />
    <path
       style="fill:none;stroke:#800000"
       d="m 546.49253,646.00357 c -1.47978,31.70639 -10.8201,58.69645 -30.80966,79.29697"
       id="path3058"
       inkscape:connector-curvature="0"
       transform="translate(219.85715,6.5050397)"
       sodipodi:nodetypes="cc" />
    <path
       style="fill:none;stroke:#800000"
       d="m 505.83389,718.22948 c 4.01422,36.60291 -28.95508,53.21415 -61.57598,64.61912"
       id="path3060"
       inkscape:connector-curvature="0"
       transform="translate(219.85715,6.5050397)"
       sodipodi:nodetypes="cc" />
    <path
       style="fill:none;stroke:#800000"
       d="m 445.00283,782.36147 c -35.23614,9.16588 -70.96591,25.50859 -66.95324,43.44925"
       id="path3062"
       inkscape:connector-curvature="0"
       transform="translate(219.85715,6.5050397)"
       sodipodi:nodetypes="cc" />
    <path
       style="fill:none;stroke:#800000"
       d="m 367.19045,828.84118 c -17.25358,13.48012 -34.05677,28.09521 -39.64849,70.96322"
       id="path3064"
       inkscape:connector-curvature="0"
       transform="translate(219.85715,6.5050397)"
       sodipodi:nodetypes="cc" />
    <path
       style="fill:none;stroke:#800000"
       d="m 333.85542,902.32978 c -10.84819,26.83712 -12.09037,54.31463 -1.51523,82.57997"
       id="path3066"
       inkscape:connector-curvature="0"
       transform="translate(219.85715,6.5050397)"
       sodipodi:nodetypes="cc" />
    <path
       style="fill:none;stroke:#800000"
       d="m 341.6841,982.13183 c -6.38621,27.52117 -3.20085,54.49547 7.07107,81.06477"
       id="path3068"
       inkscape:connector-curvature="0"
       transform="translate(219.85715,6.5050397)"
       sodipodi:nodetypes="cc" />
    <path
       style="fill:none;stroke:#800000"
       d="m 355.32116,1054.3577 c 1.55229,29.1846 10.70004,53.1108 30.80965,69.448"
       id="path3070"
       inkscape:connector-curvature="0"
       transform="translate(219.85715,6.5050397)"
       sodipodi:nodetypes="cc" />
    <path
       style="fill:none;stroke:#800000"
       d="m 391.18157,1117.2397 c 4.461,21.1756 16.53685,40.5131 48.48733,55.0533"
       id="path3072"
       inkscape:connector-curvature="0"
       transform="translate(219.85715,6.5050397)"
       sodipodi:nodetypes="cc" />
    <path
       style="fill:none;stroke:#800000"
       d="m 445.98235,1176.0811 c 22.58455,43.306 94.58583,69.0619 144.70435,64.3972"
       id="path3074"
       inkscape:connector-curvature="0"
       transform="translate(219.85715,6.5050397)"
       sodipodi:nodetypes="cc" />
    <path
       style="fill:none;stroke:#800000"
       d="m 601.79838,1239.2157 c 22.85404,7.1981 49.6406,9.5898 81.06474,6.3134"
       id="path3076"
       inkscape:connector-curvature="0"
       transform="translate(219.85715,6.5050397)"
       sodipodi:nodetypes="cc" />
    <path
       style="fill:none;stroke:#800000"
       d="m 675.03444,1236.6903 c 25.5537,0.263 50.93562,-2.5661 76.01398,-10.8592"
       id="path3078"
       inkscape:connector-curvature="0"
       transform="translate(219.85715,6.5050397)"
       sodipodi:nodetypes="cc" />
    <path
       style="fill:none;stroke:#800000"
       d="m 747.00781,1214.972 c 23.70132,-3.7222 45.26169,-13.332 65.15484,-27.5267"
       id="path3080"
       inkscape:connector-curvature="0"
       transform="translate(219.85715,6.5050397)"
       sodipodi:nodetypes="cc" />
    <path
       style="fill:none;stroke:#800000"
       d="m 816.96087,1197.5469 c 30.17676,-9.2608 51.93614,-24.1331 62.12438,-46.7196"
       id="path3082"
       inkscape:connector-curvature="0"
       transform="translate(219.85715,6.5050397)"
       sodipodi:nodetypes="cc" />
    <path
       style="fill:none;stroke:#800000"
       d="m 869.4888,1147.7968 c 15.00929,-18.1544 24.76631,-40.2836 22.22336,-71.7208"
       id="path3084"
       inkscape:connector-curvature="0"
       transform="translate(219.85715,6.5050397)"
       sodipodi:nodetypes="cc" />
    <path
       style="fill:none;stroke:#800000"
       d="m 899.03577,1074.8133 c 1.76121,-27.2741 3.34935,-54.5482 -6.06092,-81.82233"
       id="path3086"
       inkscape:connector-curvature="0"
       transform="translate(219.85715,6.5050397)"
       sodipodi:nodetypes="cc" />
    <path
       style="fill:none;stroke:#800000"
       d="m 885.14617,1000.062 c 2.97143,-35.85736 -2.52557,-65.07731 -17.17259,-87.12562"
       id="path3088"
       inkscape:connector-curvature="0"
       transform="translate(219.85715,6.5050397)"
       sodipodi:nodetypes="cc" />
    <path
       style="fill:none;stroke:#800000"
       d="M 860.64997,916.72445 C 846.791,888.77687 828.22179,868.60118 804.83904,856.36784"
       id="path3090"
       inkscape:connector-curvature="0"
       transform="translate(219.85715,6.5050397)"
       sodipodi:nodetypes="cc" />
    <path
       style="fill:none;stroke:#800000"
       d="m 797.51544,864.44906 c -9.21293,-20.25545 -26.47852,-37.28982 -73.4886,-42.42641"
       id="path3092"
       inkscape:connector-curvature="0"
       transform="translate(219.85715,6.5050397)"
       sodipodi:nodetypes="cc" />
    <path
       style="fill:none;stroke:#800000"
       d="m 721.50146,830.35641 c -50.70207,-5.38639 -47.54281,-83.60903 3.03045,-87.3782"
       id="path3094"
       inkscape:connector-curvature="0"
       transform="translate(219.85715,6.5050397)"
       sodipodi:nodetypes="cc" />
    <path
       style="fill:none;stroke:#800000"
       d="m 728.06745,750.8069 c 47.88788,-0.8372 50.03754,-81.04811 -3.283,-87.12566"
       id="path3096"
       inkscape:connector-curvature="0"
       transform="translate(219.85715,6.5050397)"
       sodipodi:nodetypes="cc" />
    <path
       style="fill:none;stroke:#800000"
       d="m 718.21846,674.0353 c -59.09871,-91.66508 27.7652,-144.7589 88.44001,-168.57074"
       id="path3098"
       inkscape:connector-curvature="0"
       transform="translate(219.85715,6.5050397)"
       sodipodi:nodetypes="cc" />
    <path
       style="fill:none;stroke:#800000"
       d="m 806.41862,505.3779 c 27.84676,-11.62664 63.44052,-28.11097 51.20089,-40.19164"
       id="path3100"
       inkscape:connector-curvature="0"
       transform="translate(219.85715,6.5050397)"
       sodipodi:nodetypes="cc" />
    <path
       style="fill:none;stroke:#800000"
       d="m 852.06367,473.52002 c 11.12717,-0.22198 19.11376,-4.67165 17.93021,-21.46574"
       id="path3102"
       inkscape:connector-curvature="0"
       transform="translate(219.85715,6.5050397)"
       sodipodi:nodetypes="cc" />
  </g>
</svg>
