<?xml version="1.0" encoding="UTF-8" standalone="no"?>
<!-- Created with Inkscape (http://www.inkscape.org/) -->

<svg
   xmlns:dc="http://purl.org/dc/elements/1.1/"
   xmlns:cc="http://creativecommons.org/ns#"
   xmlns:rdf="http://www.w3.org/1999/02/22-rdf-syntax-ns#"
   xmlns:svg="http://www.w3.org/2000/svg"
   xmlns="http://www.w3.org/2000/svg"
   xmlns:xlink="http://www.w3.org/1999/xlink"
   xmlns:sodipodi="http://sodipodi.sourceforge.net/DTD/sodipodi-0.dtd"
   xmlns:inkscape="http://www.inkscape.org/namespaces/inkscape"
   width="1206"
   height="1566"
   id="svg2"
   version="1.1"
   inkscape:version="0.48.4 r9939"
   sodipodi:docname="New document 1">
  <defs
     id="defs4" />
  <sodipodi:namedview
     id="base"
     pagecolor="#ffffff"
     bordercolor="#666666"
     borderopacity="1.0"
     inkscape:pageopacity="0.0"
     inkscape:pageshadow="2"
     inkscape:zoom="3.959798"
     inkscape:cx="514.08348"
     inkscape:cy="1270.2042"
     inkscape:document-units="px"
     inkscape:current-layer="layer1"
     showgrid="false"
     fit-margin-top="0"
     fit-margin-left="0"
     fit-margin-right="0"
     fit-margin-bottom="0"
     inkscape:window-width="2495"
     inkscape:window-height="1056"
     inkscape:window-x="1985"
     inkscape:window-y="24"
     inkscape:window-maximized="1" />
  <metadata
     id="metadata7">
    <rdf:RDF>
      <cc:Work
         rdf:about="">
        <dc:format>image/svg+xml</dc:format>
        <dc:type
           rdf:resource="http://purl.org/dc/dcmitype/StillImage" />
        <dc:title></dc:title>
      </cc:Work>
    </rdf:RDF>
  </metadata>
  <g
     inkscape:label="Layer 1"
     inkscape:groupmode="layer"
     id="layer1"
     transform="translate(-222.71428,-0.79075402)">
    <image
       y="0.79075402"
       x="222.71428"
       id="image3098"
       xlink:href="file:///home/shawn/Desktop/danceDiagrams/raw/page-380.png"
       height="1566"
       width="1206" />
    <path
       style="fill:none;stroke:#800000"
       d="m 307.14286,818.14286 626.07143,0"
       id="path3101"
       inkscape:connector-curvature="0"
       transform="translate(222.71428,0.79075402)" />
    <path
       style="fill:none;stroke:#800000"
       d="m 620.35714,209.21428 0,1217.14282"
       id="path3103"
       inkscape:connector-curvature="0"
       transform="translate(222.71428,0.79075402)" />
    <path
       style="fill:none;stroke:#800000"
       d="m 883.21429,1328.5 c 7.30485,-10.2919 14.30427,-21.3303 13.21428,-52.1429"
       id="path3105"
       inkscape:connector-curvature="0"
       transform="translate(222.71428,0.79075402)"
       sodipodi:nodetypes="cc" />
    <path
       style="fill:none;stroke:#800000"
       d="m 903.57143,1274.2143 c -0.36734,-22.8231 -4.40705,-42.0437 -14.28571,-55.3572"
       id="path3107"
       inkscape:connector-curvature="0"
       transform="translate(222.71428,0.79075402)"
       sodipodi:nodetypes="cc" />
    <path
       style="fill:none;stroke:#800000"
       d="m 883.92857,1221.3571 c -18.82003,-26.4713 -49.27606,-46.7611 -89.64285,-61.7857"
       id="path3109"
       inkscape:connector-curvature="0"
       transform="translate(222.71428,0.79075402)"
       sodipodi:nodetypes="cc" />
    <path
       style="fill:none;stroke:#800000"
       d="M 795.8189,1151.4797 C 667.00006,1125.5421 674.40843,967.22093 794.7908,946.67096"
       id="path3111"
       inkscape:connector-curvature="0"
       transform="translate(222.71428,0.79075402)"
       sodipodi:nodetypes="cc" />
    <path
       style="fill:none;stroke:#800000"
       d="m 795.14794,939.25761 c 35.54921,-13.92657 71.21607,-27.83236 88.42349,-64.68618"
       id="path3115"
       inkscape:connector-curvature="0"
       transform="translate(222.71428,0.79075402)"
       sodipodi:nodetypes="cc" />
    <path
       style="fill:none;stroke:#800000"
       d="m 890.71429,875.28571 c 8.00511,-13.71075 12.82849,-31.73956 11.42857,-58.21428"
       id="path3117"
       inkscape:connector-curvature="0"
       transform="translate(222.71428,0.79075402)"
       sodipodi:nodetypes="cc" />
    <path
       style="fill:none;stroke:#800000"
       d="m 895.71429,816 c -0.2632,-22.37466 -2.00873,-43.96456 -13.57143,-60.35714"
       id="path3119"
       inkscape:connector-curvature="0"
       transform="translate(222.71428,0.79075402)"
       sodipodi:nodetypes="cc" />
    <path
       style="fill:none;stroke:#800000"
       d="M 887.85714,749.92857 C 870.56018,718.95282 839.55063,697.0073 794.64286,684.21428"
       id="path3121"
       inkscape:connector-curvature="0"
       transform="translate(222.71428,0.79075402)"
       sodipodi:nodetypes="cc" />
    <path
       style="fill:none;stroke:#800000"
       d="M 792.5,691.35714 C 684.78303,669.46391 661.10378,516.93307 794.28572,474.91063"
       id="path3123"
       inkscape:connector-curvature="0"
       transform="translate(222.71428,0.79075402)"
       sodipodi:nodetypes="cc" />
    <path
       style="fill:none;stroke:#800000"
       d="m 794.28572,484.21428 c 63.16441,-27.62571 135.42102,-90.60626 87.85714,-182.14285"
       id="path3125"
       inkscape:connector-curvature="0"
       transform="translate(222.71428,0.79075402)"
       sodipodi:nodetypes="cc" />
    <path
       style="fill:none;stroke:#800000"
       d="m 876.42857,307.42857 c -8.90793,-14.0662 -22.99927,-25.31601 -39.28571,-35.35714"
       id="path3127"
       inkscape:connector-curvature="0"
       transform="translate(222.71428,0.79075402)"
       sodipodi:nodetypes="cc" />
    <path
       style="fill:none;stroke:#800000"
       d="M 843.92857,268.14286 C 823.74493,257.86045 802.56108,250.57865 780.35714,246.35714"
       id="path3129"
       inkscape:connector-curvature="0"
       transform="translate(222.71428,0.79075402)"
       sodipodi:nodetypes="cc" />
    <path
       style="fill:none;stroke:#800000"
       d="m 779.64286,251.71428 c -27.51296,-11.10827 -57.32771,-18.18841 -87.5,-24.64285"
       id="path3131"
       inkscape:connector-curvature="0"
       transform="translate(222.71428,0.79075402)"
       sodipodi:nodetypes="cc" />
    <path
       style="fill:none;stroke:#800000"
       d="m 691.07143,233.14286 c -47.45766,-2.94663 -92.28859,-2.82875 -135.71429,-1.07143"
       id="path3133"
       inkscape:connector-curvature="0"
       transform="translate(222.71428,0.79075402)"
       sodipodi:nodetypes="cc" />
    <path
       style="fill:none;stroke:#800000"
       d="m 556.07143,238.14286 c -34.48074,-2.35047 -68.69208,-2.27631 -102.5,1.42857"
       id="path3135"
       inkscape:connector-curvature="0"
       transform="translate(222.71428,0.79075402)"
       sodipodi:nodetypes="cc" />
    <path
       style="fill:none;stroke:#800000"
       d="m 555,222.78571 c -37.45065,0.21194 -70.33462,6.81725 -101.07143,16.42857"
       id="path3137"
       inkscape:connector-curvature="0"
       transform="translate(222.71428,0.79075402)"
       sodipodi:nodetypes="cc" />
    <path
       style="fill:none;stroke:#800000"
       d="M 454.64286,245.28571 C 391.70536,261.7897 373.82471,276.7283 353.21429,303.5"
       id="path3139"
       inkscape:connector-curvature="0"
       transform="translate(222.71428,0.79075402)"
       sodipodi:nodetypes="cc" />
  </g>
</svg>
