<?xml version="1.0" encoding="UTF-8" standalone="no"?>
<!-- Created with Inkscape (http://www.inkscape.org/) -->

<svg
   xmlns:dc="http://purl.org/dc/elements/1.1/"
   xmlns:cc="http://creativecommons.org/ns#"
   xmlns:rdf="http://www.w3.org/1999/02/22-rdf-syntax-ns#"
   xmlns:svg="http://www.w3.org/2000/svg"
   xmlns="http://www.w3.org/2000/svg"
   xmlns:xlink="http://www.w3.org/1999/xlink"
   xmlns:sodipodi="http://sodipodi.sourceforge.net/DTD/sodipodi-0.dtd"
   xmlns:inkscape="http://www.inkscape.org/namespaces/inkscape"
   width="1206"
   height="1566"
   id="svg3114"
   version="1.1"
   inkscape:version="0.48.4 r9939"
   sodipodi:docname="starlight_waltz_lady.svg">
  <defs
     id="defs3116" />
  <sodipodi:namedview
     id="base"
     pagecolor="#ffffff"
     bordercolor="#666666"
     borderopacity="1.0"
     inkscape:pageopacity="0.0"
     inkscape:pageshadow="2"
     inkscape:zoom="3.959798"
     inkscape:cx="607.61873"
     inkscape:cy="1409.8545"
     inkscape:document-units="px"
     inkscape:current-layer="layer1"
     showgrid="false"
     fit-margin-top="0"
     fit-margin-left="0"
     fit-margin-right="0"
     fit-margin-bottom="0"
     inkscape:window-width="2495"
     inkscape:window-height="1056"
     inkscape:window-x="1985"
     inkscape:window-y="24"
     inkscape:window-maximized="1" />
  <metadata
     id="metadata3119">
    <rdf:RDF>
      <cc:Work
         rdf:about="">
        <dc:format>image/svg+xml</dc:format>
        <dc:type
           rdf:resource="http://purl.org/dc/dcmitype/StillImage" />
        <dc:title />
      </cc:Work>
    </rdf:RDF>
  </metadata>
  <g
     inkscape:label="Layer 1"
     inkscape:groupmode="layer"
     id="layer1"
     transform="translate(-219.85715,7.7806745)">
    <image
       y="-7.7806745"
       x="219.85715"
       id="image3293"
       xlink:href="file:///home/shawn/Desktop/danceDiagrams/raw/page-424.png"
       height="1566"
       width="1206" />
    <path
       style="fill:none;stroke:#800000"
       d="m 309.28571,819.92857 624.82143,0"
       id="path3309"
       inkscape:connector-curvature="0"
       transform="translate(219.85715,-7.7806745)" />
    <path
       style="fill:none;stroke:#800000"
       d="m 621.96429,211.35714 0,1215.53576"
       id="path3311"
       inkscape:connector-curvature="0"
       transform="translate(219.85715,-7.7806745)" />
    <path
       style="fill:none;stroke:#800000"
       d="m 348.57143,270.28571 c -19.41234,28.05236 -24.87006,56.76923 -14.28572,86.25"
       id="path3313"
       inkscape:connector-curvature="0"
       transform="translate(219.85715,-7.7806745)"
       sodipodi:nodetypes="cc" />
    <path
       style="fill:none;stroke:#800000"
       d="m 329.10714,358.85714 c -2.18988,22.07878 1.83408,41.34176 14.28572,56.78571"
       id="path3315"
       inkscape:connector-curvature="0"
       transform="translate(219.85715,-7.7806745)"
       sodipodi:nodetypes="cc" />
    <path
       style="fill:none;stroke:#800000"
       d="m 348.75,407.78571 c 16.22264,47.52341 57.35885,61.69387 107.5,57.14286"
       id="path3317"
       inkscape:connector-curvature="0"
       transform="translate(219.85715,-7.7806745)"
       sodipodi:nodetypes="cc" />
    <path
       style="fill:none;stroke:#800000"
       d="m 460.71429,474.03571 c 37.34495,-2.62045 67.549,13.62696 74.28571,38.39286"
       id="path3319"
       inkscape:connector-curvature="0"
       transform="translate(219.85715,-7.7806745)"
       sodipodi:nodetypes="cc" />
    <path
       style="fill:none;stroke:#800000"
       d="m 542.5,510.64285 c 11.07778,12.73135 17.23448,27.39598 15,45.35715"
       id="path3321"
       inkscape:connector-curvature="0"
       transform="translate(219.85715,-7.7806745)"
       sodipodi:nodetypes="cc" />
    <path
       style="fill:none;stroke:#800000"
       d="M 551.60714,559.03571 C 556.52438,611.70705 526.34165,643.23863 447.5,645.46428"
       id="path3323"
       inkscape:connector-curvature="0"
       transform="translate(219.85715,-7.7806745)"
       sodipodi:nodetypes="cc" />
    <path
       style="fill:none;stroke:#800000"
       d="m 443.03572,653.85714 c -33.69698,-3.57266 -63.35781,5.44745 -85.17858,38.92857"
       id="path3325"
       inkscape:connector-curvature="0"
       transform="translate(219.85715,-7.7806745)"
       sodipodi:nodetypes="cc" />
    <path
       style="fill:none;stroke:#800000"
       d="m 349.82143,690.46428 c -11.82274,13.66619 -15.15971,30.41812 -16.60714,47.85715"
       id="path3327"
       inkscape:connector-curvature="0"
       transform="translate(219.85715,-7.7806745)"
       sodipodi:nodetypes="cc" />
    <path
       style="fill:none;stroke:#800000"
       d="m 339.28572,739.92857 c -3.43219,74.74895 58.20349,98.9008 108.75,93.21429"
       id="path3329"
       inkscape:connector-curvature="0"
       transform="translate(219.85715,-7.7806745)"
       sodipodi:nodetypes="cc" />
    <path
       style="fill:none;stroke:#800000"
       d="m 446.96428,833.14285 c 61.59294,-2.76197 97.54579,17.87364 116.78572,46.42858"
       id="path3331"
       inkscape:connector-curvature="0"
       transform="translate(219.85715,-7.7806745)"
       sodipodi:nodetypes="cc" />
    <path
       style="fill:none;stroke:#800000"
       d="m 558.21429,887.42857 c 91.01106,57.10281 21.58647,212.63553 -103.39286,185.00003"
       id="path3333"
       inkscape:connector-curvature="0"
       transform="translate(219.85715,-7.7806745)"
       sodipodi:nodetypes="cc" />
    <path
       style="fill:none;stroke:#800000"
       d="m 451.78572,1082.0714 c -45.49005,6.34 -76.0456,26.5283 -95.35715,57.1429"
       id="path3335"
       inkscape:connector-curvature="0"
       transform="translate(219.85715,-7.7806745)"
       sodipodi:nodetypes="cc" />
    <path
       style="fill:none;stroke:#800000"
       d="m 351.60714,1147.4286 c -15.07092,17.2808 -21.54878,48.5656 -6.07142,63.9285"
       id="path3337"
       inkscape:connector-curvature="0"
       transform="translate(219.85715,-7.7806745)"
       sodipodi:nodetypes="cc" />
    <path
       style="fill:none;stroke:#800000"
       d="m 345.35714,1210.8214 c -9.63534,7.3636 -11.94952,19.7867 -9.64285,29.8215"
       id="path3339"
       inkscape:connector-curvature="0"
       transform="translate(219.85715,-7.7806745)"
       sodipodi:nodetypes="cc" />
    <path
       style="fill:none;stroke:#800000"
       d="m 343.39286,1243.8571 c 0.0118,52.3321 16.77716,89.866 53.92857,109.8215"
       id="path3341"
       inkscape:connector-curvature="0"
       transform="translate(219.85715,-7.7806745)"
       sodipodi:nodetypes="cc" />
    <path
       style="fill:none;stroke:#800000"
       d="m 406.07143,1358.1429 c 7.54191,15.7211 38.41888,34.9272 62.5,25.8928"
       id="path3343"
       inkscape:connector-curvature="0"
       transform="translate(219.85715,-7.7806745)"
       sodipodi:nodetypes="cc" />
    <path
       style="fill:none;stroke:#800000"
       d="m 468.21428,1383.8571 c 0.14757,9.2702 13.1598,19.6402 26.07144,20.8929"
       id="path3345"
       inkscape:connector-curvature="0"
       transform="translate(219.85715,-7.7806745)"
       sodipodi:nodetypes="cc" />
    <path
       style="fill:none;stroke:#800000"
       d="m 503.03572,1399.9286 c 35.98063,14.3175 75.27941,16.8372 119.82142,0.7143"
       id="path3347"
       inkscape:connector-curvature="0"
       transform="translate(219.85715,-7.7806745)"
       sodipodi:nodetypes="cc" />
    <path
       style="fill:none;stroke:#800000"
       d="m 630.17857,1398.1429 c 51.13044,8.3762 88.90769,-39.8917 104.28572,-22.1429"
       id="path3349"
       inkscape:connector-curvature="0"
       transform="translate(219.85715,-7.7806745)"
       sodipodi:nodetypes="cc" />
    <path
       style="fill:none;stroke:#800000"
       d="M 738.39286,1369.9286 C 813.07097,1363.7389 845.36578,1233.4114 747.5,1172.25"
       id="path3351"
       inkscape:connector-curvature="0"
       transform="translate(219.85715,-7.7806745)"
       sodipodi:nodetypes="cc" />
    <path
       style="fill:none;stroke:#800000"
       d="m 741.78572,1168.8571 c -29.37193,-69.6071 36.00128,-107.0859 85,-98.75"
       id="path3353"
       inkscape:connector-curvature="0"
       transform="translate(219.85715,-7.7806745)"
       sodipodi:nodetypes="cc" />
    <path
       style="fill:none;stroke:#800000"
       d="m 828.21429,1077.25 c 33.20678,1.9559 66.52809,-18.5436 67.85714,-45.1786"
       id="path3355"
       inkscape:connector-curvature="0"
       transform="translate(219.85715,-7.7806745)"
       sodipodi:nodetypes="cc" />
    <path
       style="fill:none;stroke:#800000"
       d="m 883.39286,1043.5 c 16.65022,-0.5737 31.42877,-4.3449 32.14286,-32.1429"
       id="path3357"
       inkscape:connector-curvature="0"
       transform="translate(219.85715,-7.7806745)"
       sodipodi:nodetypes="cc" />
    <path
       style="fill:none;stroke:#800000"
       d="M 909.82143,1008.1429 C 913.542,917.85634 845.86839,875.22254 741.42857,896.71428"
       id="path3359"
       inkscape:connector-curvature="0"
       transform="translate(219.85715,-7.7806745)"
       sodipodi:nodetypes="cc" />
    <path
       style="fill:none;stroke:#800000"
       d="M 733.92857,897.78571 C 692.98621,898.70355 667.81364,876.55047 662.5,849.57143"
       id="path3361"
       inkscape:connector-curvature="0"
       transform="translate(219.85715,-7.7806745)"
       sodipodi:nodetypes="cc" />
    <path
       style="fill:none;stroke:#800000"
       d="m 675.53572,856.53571 c -12.1454,5.75761 -34.8303,3.80902 -33.03572,-22.67857"
       id="path3363"
       inkscape:connector-curvature="0"
       transform="translate(219.85715,-7.7806745)"
       sodipodi:nodetypes="cc" />
    <path
       style="fill:none;stroke:#800000"
       d="M 648.92857,831 C 616.93962,713.09721 768.01727,714.03885 811.78572,717.96428"
       id="path3365"
       inkscape:connector-curvature="0"
       transform="translate(219.85715,-7.7806745)"
       sodipodi:nodetypes="cc" />
    <path
       style="fill:none;stroke:#800000"
       d="m 819.46429,719.75 c 35.58991,2.03421 59.25372,-21.82812 65,-49.46429"
       id="path3367"
       inkscape:connector-curvature="0"
       transform="translate(219.85715,-7.7806745)"
       sodipodi:nodetypes="cc" />
    <path
       style="fill:none;stroke:#800000"
       d="M 872.14286,681.53571 C 887.25561,680.76879 898.51948,676.03467 900,654.21428"
       id="path3369"
       inkscape:connector-curvature="0"
       transform="translate(219.85715,-7.7806745)"
       sodipodi:nodetypes="cc" />
    <path
       style="fill:none;stroke:#800000"
       d="M 895.35714,649.92857 C 894.22449,588.85705 847.72196,566.42242 791.07143,569.03571"
       id="path3371"
       inkscape:connector-curvature="0"
       transform="translate(219.85715,-7.7806745)"
       sodipodi:nodetypes="cc" />
    <path
       style="fill:none;stroke:#800000"
       d="M 790.53572,579.75 C 741.46766,575.22877 712.3616,529.63845 713.57143,476"
       id="path3375"
       inkscape:connector-curvature="0"
       transform="translate(219.85715,-7.7806745)"
       sodipodi:nodetypes="cc" />
    <path
       style="fill:none;stroke:#800000"
       d="m 715.89286,467.42857 c 6.36876,-55.43153 65.13305,-88.64652 99.46428,-82.14286"
       id="path3377"
       inkscape:connector-curvature="0"
       transform="translate(219.85715,-7.7806745)"
       sodipodi:nodetypes="cc" />
    <path
       style="fill:none;stroke:#800000"
       d="m 819.10714,377.25 c 55.18955,1.24914 90.92379,-15.42107 95,-61.25"
       id="path3379"
       inkscape:connector-curvature="0"
       transform="translate(219.85715,-7.7806745)"
       sodipodi:nodetypes="cc" />
    <path
       style="fill:none;stroke:#800000"
       d="m 907.5,313.67857 c 3.92105,-12.18938 4.15064,-25.30163 -2.67857,-40.17857"
       id="path3381"
       inkscape:connector-curvature="0"
       transform="translate(219.85715,-7.7806745)"
       sodipodi:nodetypes="cc" />
    <path
       style="fill:none;stroke:#800000"
       d="M 899.28572,274.21428 C 871.82108,194.69038 766.04084,210.95835 730.35714,269.75"
       id="path3383"
       inkscape:connector-curvature="0"
       transform="translate(219.85715,-7.7806745)"
       sodipodi:nodetypes="cc" />
    <path
       style="fill:none;stroke:#800000"
       d="m 738.03572,271.71428 c -14.07569,122.51753 -198.10798,142.0482 -214.10715,3.75"
       id="path3385"
       inkscape:connector-curvature="0"
       transform="translate(219.85715,-7.7806745)"
       sodipodi:nodetypes="cc" />
    <path
       style="fill:none;stroke:#800000"
       d="M 517.14286,275.46428 C 503.10075,244.86048 444.58865,202.44833 410,226"
       id="path3387"
       inkscape:connector-curvature="0"
       transform="translate(219.85715,-7.7806745)"
       sodipodi:nodetypes="cc" />
    <path
       style="fill:none;stroke:#800000"
       d="m 411.25,225.83412 c -30.1154,-14.8498 -54.62193,11.17216 -64.10714,29.63016"
       id="path3389"
       inkscape:connector-curvature="0"
       transform="translate(219.85715,-7.7806745)"
       sodipodi:nodetypes="cc" />
  </g>
</svg>
