<?xml version="1.0" encoding="UTF-8" standalone="no"?>
<!-- Created with Inkscape (http://www.inkscape.org/) -->

<svg
   xmlns:dc="http://purl.org/dc/elements/1.1/"
   xmlns:cc="http://creativecommons.org/ns#"
   xmlns:rdf="http://www.w3.org/1999/02/22-rdf-syntax-ns#"
   xmlns:svg="http://www.w3.org/2000/svg"
   xmlns="http://www.w3.org/2000/svg"
   xmlns:xlink="http://www.w3.org/1999/xlink"
   xmlns:sodipodi="http://sodipodi.sourceforge.net/DTD/sodipodi-0.dtd"
   xmlns:inkscape="http://www.inkscape.org/namespaces/inkscape"
   width="1206"
   height="1566"
   id="svg2"
   version="1.1"
   inkscape:version="0.48.4 r9939"
   sodipodi:docname="starlight_waltz_man.svg">
  <defs
     id="defs4" />
  <sodipodi:namedview
     id="base"
     pagecolor="#ffffff"
     bordercolor="#666666"
     borderopacity="1.0"
     inkscape:pageopacity="0.0"
     inkscape:pageshadow="2"
     inkscape:zoom="5.6"
     inkscape:cx="471.04896"
     inkscape:cy="1311.621"
     inkscape:document-units="px"
     inkscape:current-layer="layer1"
     showgrid="false"
     fit-margin-top="0"
     fit-margin-left="0"
     fit-margin-right="0"
     fit-margin-bottom="0"
     inkscape:window-width="2495"
     inkscape:window-height="1056"
     inkscape:window-x="1985"
     inkscape:window-y="24"
     inkscape:window-maximized="1" />
  <metadata
     id="metadata7">
    <rdf:RDF>
      <cc:Work
         rdf:about="">
        <dc:format>image/svg+xml</dc:format>
        <dc:type
           rdf:resource="http://purl.org/dc/dcmitype/StillImage" />
        <dc:title />
      </cc:Work>
    </rdf:RDF>
  </metadata>
  <g
     inkscape:label="Layer 1"
     inkscape:groupmode="layer"
     id="layer1"
     transform="translate(-151.28572,16.352102)">
    <image
       y="-16.352102"
       x="151.28572"
       id="image3092"
       xlink:href="file:///home/shawn/Desktop/danceDiagrams/raw/page-423.png"
       height="1566"
       width="1206" />
    <path
       style="fill:none;stroke:#800000"
       d="m 273.21429,815.28571 624.64285,0"
       id="path3221"
       inkscape:connector-curvature="0"
       transform="translate(151.28572,-16.352102)" />
    <path
       style="fill:none;stroke:#800000"
       d="m 585.35714,207.07143 0,1216.07147"
       id="path3223"
       inkscape:connector-curvature="0"
       transform="translate(151.28572,-16.352102)" />
    <path
       style="fill:none;stroke:#800000"
       d="m 306.5813,261.38799 c -19.1457,27.11125 -23.95409,55.88962 -14.14214,86.36804"
       id="path3225"
       inkscape:connector-curvature="0"
       transform="translate(151.28572,-16.352102)"
       sodipodi:nodetypes="cc" />
    <path
       style="fill:none;stroke:#800000"
       d="m 287.13586,350.28141 c -2.84943,22.806 1.44525,39.97413 14.89975,56.316"
       id="path3227"
       inkscape:connector-curvature="0"
       transform="translate(151.28572,-16.352102)"
       sodipodi:nodetypes="cc" />
    <path
       style="fill:none;stroke:#800000"
       d="m 306.83384,399.27381 c 12.7486,41.53389 49.29321,60.32161 107.83378,58.08377"
       id="path3229"
       inkscape:connector-curvature="0"
       transform="translate(151.28572,-16.352102)"
       sodipodi:nodetypes="cc" />
    <path
       style="fill:none;stroke:#800000"
       d="m 419.21331,465.94388 c 39.23117,-5.46784 66.99727,14.40866 75.25636,38.63833"
       id="path3231"
       inkscape:connector-curvature="0"
       transform="translate(151.28572,-16.352102)"
       sodipodi:nodetypes="cc" />
    <path
       style="fill:none;stroke:#800000"
       d="m 501.03566,502.05683 c 10.40068,12.95107 18.34483,27.00757 15.40483,45.96194"
       id="path3233"
       inkscape:connector-curvature="0"
       transform="translate(151.28572,-16.352102)"
       sodipodi:nodetypes="cc" />
    <path
       style="fill:none;stroke:#800000"
       d="m 510.37957,549.78654 c 4.84059,67.97601 -47.07069,86.96289 -104.04571,87.88327"
       id="path3235"
       inkscape:connector-curvature="0"
       transform="translate(151.28572,-16.352102)"
       sodipodi:nodetypes="cc" />
    <path
       style="fill:none;stroke:#800000"
       d="m 401.2831,645.49849 c -35.77267,-4.02894 -65.22494,6.42639 -84.85281,39.39595"
       id="path3237"
       inkscape:connector-curvature="0"
       transform="translate(151.28572,-16.352102)"
       sodipodi:nodetypes="cc" />
    <path
       style="fill:none;stroke:#800000"
       d="m 308.09653,682.36906 c -11.26492,14.36503 -15.20153,30.68428 -16.41498,47.72971"
       id="path3239"
       inkscape:connector-curvature="0"
       transform="translate(151.28572,-16.352102)"
       sodipodi:nodetypes="cc" />
    <path
       style="fill:none;stroke:#800000"
       d="m 297.48992,731.36146 c -2.02142,68.42464 61.53069,95.18865 121.21831,93.69165"
       id="path3241"
       inkscape:connector-curvature="0"
       transform="translate(151.28572,-16.352102)"
       sodipodi:nodetypes="cc" />
    <path
       style="fill:none;stroke:#800000"
       d="m 417.69808,825.05311 c 49.00073,-1.35253 81.59739,16.64742 105.05586,46.21448"
       id="path3243"
       inkscape:connector-curvature="0"
       transform="translate(151.28572,-16.352102)"
       sodipodi:nodetypes="cc" />
    <path
       style="fill:none;stroke:#800000"
       d="m 516.94557,878.84373 c 88.18986,58.689 27.35194,209.87787 -103.2881,186.12057"
       id="path3245"
       inkscape:connector-curvature="0"
       transform="translate(151.28572,-16.352102)"
       sodipodi:nodetypes="cc" />
    <path
       style="fill:none;stroke:#800000"
       d="m 411.38462,1073.2981 c -24.08316,-0.8119 -52.06194,3.2661 -56.56854,31.3147"
       id="path3247"
       inkscape:connector-curvature="0"
       transform="translate(151.28572,-16.352102)"
       sodipodi:nodetypes="cc" />
    <path
       style="fill:none;stroke:#800000"
       d="m 354.56355,1104.1078 c -6.38824,-8.8384 -24.74568,-0.5484 -28.28428,9.8489"
       id="path3249"
       inkscape:connector-curvature="0"
       transform="translate(151.28572,-16.352102)"
       sodipodi:nodetypes="cc" />
    <path
       style="fill:none;stroke:#800000"
       d="m 331.0775,1119.7651 c -24.7344,22.2606 -48.19939,62.5827 -36.11296,120.7132"
       id="path3251"
       inkscape:connector-curvature="0"
       transform="translate(151.28572,-16.352102)"
       sodipodi:nodetypes="cc" />
    <path
       style="fill:none;stroke:#800000"
       d="m 298.75262,1249.0646 c -1.10482,26.3219 16.08924,53.143 38.63833,57.0737"
       id="path3253"
       inkscape:connector-curvature="0"
       transform="translate(151.28572,-16.352102)"
       sodipodi:nodetypes="cc" />
    <path
       style="fill:none;stroke:#800000"
       d="m 336.88588,1306.2645 c -6.28762,9.1953 -6.16311,24.9182 9.34391,32.7037"
       id="path3255"
       inkscape:connector-curvature="0"
       transform="translate(151.28572,-16.352102)"
       sodipodi:nodetypes="cc" />
    <path
       style="fill:none;stroke:#800000"
       d="m 353.04831,1333.9175 c 25.75885,37.523 63.97093,58.566 105.05587,67.4276"
       id="path3257"
       inkscape:connector-curvature="0"
       transform="translate(151.28572,-16.352102)"
       sodipodi:nodetypes="cc" />
    <path
       style="fill:none;stroke:#800000"
       d="m 465.42779,1404.1231 c 18.51253,11.6508 58.00295,12.6909 66.16499,-7.5762"
       id="path3259"
       inkscape:connector-curvature="0"
       transform="translate(151.28572,-16.352102)"
       sodipodi:nodetypes="cc" />
    <path
       style="fill:none;stroke:#800000"
       d="m 531.34024,1396.7995 c 10.21205,13.9168 27.4637,12.7254 34.59772,4.7982"
       id="path3261"
       inkscape:connector-curvature="0"
       transform="translate(151.28572,-16.352102)"
       sodipodi:nodetypes="cc" />
    <path
       style="fill:none;stroke:#800000"
       d="m 571.99888,1392.7588 c 28.17851,4.4538 61.60926,-2.9959 76.26652,-12.6269"
       id="path3263"
       inkscape:connector-curvature="0"
       transform="translate(151.28572,-16.352102)"
       sodipodi:nodetypes="cc" />
    <path
       style="fill:none;stroke:#800000"
       d="m 651.80093,1386.9505 c 16.55508,1.5331 31.16894,-5.3458 44.69925,-16.9201"
       id="path3265"
       inkscape:connector-curvature="0"
       transform="translate(151.28572,-16.352102)"
       sodipodi:nodetypes="cc" />
    <path
       style="fill:none;stroke:#800000"
       d="m 696.75272,1361.9492 c 80.03317,-10.8951 102.65806,-145.6487 9.34391,-197.4848"
       id="path3267"
       inkscape:connector-curvature="0"
       transform="translate(151.28572,-16.352102)"
       sodipodi:nodetypes="cc" />
    <path
       style="fill:none;stroke:#800000"
       d="m 700.94127,1160.8549 c -24.66787,-47.5589 8.73551,-103.8946 84.45233,-99.1736"
       id="path3269"
       inkscape:connector-curvature="0"
       transform="translate(151.28572,-16.352102)"
       sodipodi:nodetypes="cc" />
    <path
       style="fill:none;stroke:#800000"
       d="m 787.16137,1071.5303 c 36.89707,-0.6187 84.86344,-28.7733 87.3782,-68.4378"
       id="path3271"
       inkscape:connector-curvature="0"
       transform="translate(151.28572,-16.352102)"
       sodipodi:nodetypes="cc" />
    <path
       style="fill:none;stroke:#800000"
       d="M 869.23627,1000.3146 C 872.96033,900.98219 791.93113,869.78984 700.03571,888.18764"
       id="path3273"
       inkscape:connector-curvature="0"
       transform="translate(151.28572,-16.352102)"
       sodipodi:nodetypes="cc" />
    <path
       style="fill:none;stroke:#800000"
       d="m 695.74257,879.85388 c -31.98249,4.53685 -51.13497,-6.25972 -63.63961,-25.00127"
       id="path3275"
       inkscape:connector-curvature="0"
       transform="translate(151.28572,-16.352102)"
       sodipodi:nodetypes="cc" />
    <path
       style="fill:none;stroke:#800000"
       d="m 625.7895,857.63053 c -15.48704,-6.38321 -22.85545,-17.57746 -25.50635,-31.56727"
       id="path3277"
       inkscape:connector-curvature="0"
       transform="translate(151.28572,-16.352102)"
       sodipodi:nodetypes="cc" />
    <path
       style="fill:none;stroke:#800000"
       d="M 609.37452,822.27519 C 576.60844,728.16395 685.01121,700.19454 771.25147,710.65333"
       id="path3279"
       inkscape:connector-curvature="0"
       transform="translate(151.28572,-16.352102)"
       sodipodi:nodetypes="cc" />
    <path
       style="fill:none;stroke:#800000"
       d="m 770.99893,702.06703 c 26.57648,3.35389 51.5555,3.26711 65.91245,-19.69797"
       id="path3281"
       inkscape:connector-curvature="0"
       transform="translate(151.28572,-16.352102)"
       sodipodi:nodetypes="cc" />
    <path
       style="fill:none;stroke:#800000"
       d="m 843.72991,685.14698 c 12.43971,-9.60561 20.58741,-21.86216 16.92006,-41.41625"
       id="path3283"
       inkscape:connector-curvature="0"
       transform="translate(151.28572,-16.352102)"
       sodipodi:nodetypes="cc" />
    <path
       style="fill:none;stroke:#800000"
       d="m 854.08398,641.45788 c -0.86223,-62.34765 -47.47702,-81.6011 -104.29825,-81.56982"
       id="path3285"
       inkscape:connector-curvature="0"
       transform="translate(151.28572,-16.352102)"
       sodipodi:nodetypes="cc" />
    <path
       style="fill:none;stroke:#800000"
       d="M 749.02811,571.25228 C 696.32694,546.41422 701.14182,451.59703 765.94817,435.89184"
       id="path3287"
       inkscape:connector-curvature="0"
       transform="translate(151.28572,-16.352102)"
       sodipodi:nodetypes="cc" />
    <path
       style="fill:none;stroke:#800000"
       d="m 767.96847,444.2256 c 28.37161,2.89829 79.57134,-20.05983 73.23606,-54.80078"
       id="path3289"
       inkscape:connector-curvature="0"
       transform="translate(151.28572,-16.352102)"
       sodipodi:nodetypes="cc" />
    <path
       style="fill:none;stroke:#800000"
       d="m 841.45707,390.12116 c 16.78188,6.04661 29.46211,-7.09499 33.33504,-27.46538"
       id="path3291"
       inkscape:connector-curvature="0"
       transform="translate(151.28572,-16.352102)"
       sodipodi:nodetypes="cc" />
    <path
       style="fill:none;stroke:#800000"
       d="M 870.49896,355.58471 C 888.96772,319.09559 875.16907,268.872 845.24514,245.47808"
       id="path3293"
       inkscape:connector-curvature="0"
       transform="translate(151.28572,-16.352102)"
       sodipodi:nodetypes="cc" />
    <path
       style="fill:none;stroke:#800000"
       d="M 840.69946,239.41717 C 807.25221,200.0603 722.04656,200.14372 688.92404,261.64052"
       id="path3295"
       inkscape:connector-curvature="0"
       transform="translate(151.28572,-16.352102)"
       sodipodi:nodetypes="cc" />
    <path
       style="fill:none;stroke:#800000"
       d="M 698.01541,263.40829 C 676.88702,393.38704 499.94117,399.26848 482.0953,266.94383"
       id="path3297"
       inkscape:connector-curvature="0"
       transform="translate(151.28572,-16.352102)"
       sodipodi:nodetypes="cc" />
    <path
       style="fill:none;stroke:#800000"
       d="M 472.49885,270.47936 C 453.98212,238.5628 426.36813,226.57491 389.66634,224.51742"
       id="path3299"
       inkscape:connector-curvature="0"
       transform="translate(151.28572,-16.352102)"
       sodipodi:nodetypes="cc" />
    <path
       style="fill:none;stroke:#800000"
       d="m 382.84782,218.96158 c -28.54196,-3.82399 -54.633,3.73128 -76.51906,30.80965"
       id="path3301"
       inkscape:connector-curvature="0"
       transform="translate(151.28572,-16.352102)"
       sodipodi:nodetypes="cc" />
  </g>
</svg>
