<?xml version="1.0" encoding="UTF-8" standalone="no"?>
<!-- Created with Inkscape (http://www.inkscape.org/) -->

<svg
   xmlns:dc="http://purl.org/dc/elements/1.1/"
   xmlns:cc="http://creativecommons.org/ns#"
   xmlns:rdf="http://www.w3.org/1999/02/22-rdf-syntax-ns#"
   xmlns:svg="http://www.w3.org/2000/svg"
   xmlns="http://www.w3.org/2000/svg"
   xmlns:xlink="http://www.w3.org/1999/xlink"
   xmlns:sodipodi="http://sodipodi.sourceforge.net/DTD/sodipodi-0.dtd"
   xmlns:inkscape="http://www.inkscape.org/namespaces/inkscape"
   width="1206"
   height="1566"
   id="svg2"
   version="1.1"
   inkscape:version="0.48.4 r9939"
   sodipodi:docname="New document 1">
  <defs
     id="defs4" />
  <sodipodi:namedview
     id="base"
     pagecolor="#ffffff"
     bordercolor="#666666"
     borderopacity="1.0"
     inkscape:pageopacity="0.0"
     inkscape:pageshadow="2"
     inkscape:zoom="3.959798"
     inkscape:cx="538.24658"
     inkscape:cy="1050.4626"
     inkscape:document-units="px"
     inkscape:current-layer="layer1"
     showgrid="false"
     fit-margin-top="0"
     fit-margin-left="0"
     fit-margin-right="0"
     fit-margin-bottom="0"
     inkscape:window-width="2495"
     inkscape:window-height="1056"
     inkscape:window-x="1985"
     inkscape:window-y="24"
     inkscape:window-maximized="1" />
  <metadata
     id="metadata7">
    <rdf:RDF>
      <cc:Work
         rdf:about="">
        <dc:format>image/svg+xml</dc:format>
        <dc:type
           rdf:resource="http://purl.org/dc/dcmitype/StillImage" />
        <dc:title></dc:title>
      </cc:Work>
    </rdf:RDF>
  </metadata>
  <g
     inkscape:label="Layer 1"
     inkscape:groupmode="layer"
     id="layer1"
     transform="translate(-185.57143,-6.5050397)">
    <image
       y="6.5050397"
       x="185.57143"
       id="image3092"
       xlink:href="file:///home/shawn/Desktop/danceDiagrams/raw/page-382.png"
       height="1566"
       width="1206" />
    <path
       style="fill:none;stroke:#800000"
       d="m 305,816.71428 622.14286,0"
       id="path3095"
       inkscape:connector-curvature="0"
       transform="translate(185.57143,6.5050397)" />
    <path
       style="fill:none;stroke:#800000"
       d="m 616.42857,212.42857 0,1208.57143"
       id="path3097"
       inkscape:connector-curvature="0"
       transform="translate(185.57143,6.5050397)" />
    <path
       style="fill:none;stroke:#800000"
       d="m 806.07143,1153.8571 c 27.1774,-0.2288 47.08836,-10.7518 62.85714,-27.1428"
       id="path3099"
       inkscape:connector-curvature="0"
       transform="translate(185.57143,6.5050397)"
       sodipodi:nodetypes="cc" />
    <path
       style="fill:none;stroke:#800000"
       d="m 873.57143,1130.6429 c 15.78019,-14.981 22.59099,-34.0285 23.21429,-59.6429"
       id="path3101"
       inkscape:connector-curvature="0"
       transform="translate(185.57143,6.5050397)"
       sodipodi:nodetypes="cc" />
    <path
       style="fill:none;stroke:#800000"
       d="M 892.5,1068.8571 C 882.47437,1019.5767 858.50196,993.43551 798.92857,991"
       id="path3103"
       inkscape:connector-curvature="0"
       transform="translate(185.57143,6.5050397)"
       sodipodi:nodetypes="cc" />
    <path
       style="fill:none;stroke:#800000"
       d="m 807.14286,984.75 c -19.72219,0.7091 -38.75003,-6.26467 -60.53572,-24.28572"
       id="path3105"
       inkscape:connector-curvature="0"
       transform="translate(185.57143,6.5050397)"
       sodipodi:nodetypes="cc" />
    <path
       style="fill:none;stroke:#800000"
       d="M 740,964.92857 C 727.88999,953.09261 717.09838,937.85656 713.92857,902.96428"
       id="path3107"
       inkscape:connector-curvature="0"
       transform="translate(185.57143,6.5050397)"
       sodipodi:nodetypes="cc" />
    <path
       style="fill:none;stroke:#800000"
       d="m 721.07143,899.21428 c 5.18169,-34.61098 28.62344,-77.27324 93.75,-76.60714"
       id="path3109"
       inkscape:connector-curvature="0"
       transform="translate(185.57143,6.5050397)"
       sodipodi:nodetypes="cc" />
    <path
       style="fill:none;stroke:#800000"
       d="M 806.42857,815.10714 C 922.41338,807.83739 916.37903,655.10427 806.60714,648.5"
       id="path3111"
       inkscape:connector-curvature="0"
       transform="translate(185.57143,6.5050397)"
       sodipodi:nodetypes="cc" />
    <path
       style="fill:none;stroke:#800000"
       d="M 806.35427,641.20534 C 689.92974,630.68193 694.17612,481.36305 807.8695,475.03525"
       id="path3113"
       inkscape:connector-curvature="0"
       transform="translate(185.57143,6.5050397)"
       sodipodi:nodetypes="cc" />
    <path
       style="fill:none;stroke:#800000"
       d="m 802.5662,467.20657 c 27.02889,-6.34095 53.76539,-14.10732 75.5089,-46.21448"
       id="path3115"
       inkscape:connector-curvature="0"
       transform="translate(185.57143,6.5050397)"
       sodipodi:nodetypes="cc" />
    <path
       style="fill:none;stroke:#800000"
       d="m 886.6614,423.51747 c 14.73727,-20.77675 25.65292,-45.58743 16.41498,-91.67134"
       id="path3117"
       inkscape:connector-curvature="0"
       transform="translate(185.57143,6.5050397)"
       sodipodi:nodetypes="cc" />
    <path
       style="fill:none;stroke:#800000"
       d="M 898.27815,333.10882 C 888.0928,289.57452 858.43513,268.55509 827.0624,249.51869"
       id="path3119"
       inkscape:connector-curvature="0"
       transform="translate(185.57143,6.5050397)"
       sodipodi:nodetypes="cc" />
    <path
       style="fill:none;stroke:#800000"
       d="M 831.60808,243.45778 C 770.93162,214.23853 718.45805,225.80206 697.00526,235.12402"
       id="path3121"
       inkscape:connector-curvature="0"
       transform="translate(185.57143,6.5050397)"
       sodipodi:nodetypes="cc" />
    <path
       style="fill:none;stroke:#800000"
       d="m 721.50146,232.85118 c -58.84873,-15.13714 -94.61634,6.55729 -121.97592,41.66879"
       id="path3123"
       inkscape:connector-curvature="0"
       transform="translate(185.57143,6.5050397)"
       sodipodi:nodetypes="cc" />
    <path
       style="fill:none;stroke:#800000"
       d="M 601.04077,281.59104 C 576.53062,308.6957 563.0987,349.9722 559.87705,373.26238"
       id="path3125"
       inkscape:connector-curvature="0"
       transform="translate(185.57143,6.5050397)"
       sodipodi:nodetypes="cc" />
    <path
       style="fill:none;stroke:#800000"
       d="m 551.29075,373.00984 c -12.82624,54.5276 -55.18389,85.94757 -123.74368,89.90358"
       id="path3127"
       inkscape:connector-curvature="0"
       transform="translate(185.57143,6.5050397)"
       sodipodi:nodetypes="cc" />
    <path
       style="fill:none;stroke:#800000"
       d="m 426.53691,472.50987 c -35.31887,2.03994 -48.20677,14.71631 -62.62946,27.52666"
       id="path3129"
       inkscape:connector-curvature="0"
       transform="translate(185.57143,6.5050397)"
       sodipodi:nodetypes="cc" />
    <path
       style="fill:none;stroke:#800000"
       d="m 358.60415,497.00607 c -21.17931,25.65621 -20.98001,40.92249 -21.97081,57.32616"
       id="path3131"
       inkscape:connector-curvature="0"
       transform="translate(185.57143,6.5050397)"
       sodipodi:nodetypes="cc" />
    <path
       style="fill:none;stroke:#800000"
       d="m 341.17902,557.86776 c 10.55324,54.37391 40.7954,76.69768 93.18657,78.28682"
       id="path3133"
       inkscape:connector-curvature="0"
       transform="translate(185.57143,6.5050397)"
       sodipodi:nodetypes="cc" />
    <path
       style="fill:none;stroke:#800000"
       d="m 426.28437,642.2155 c 19.86788,1.30439 39.82399,4.99101 60.35662,24.24366"
       id="path3135"
       inkscape:connector-curvature="0"
       transform="translate(185.57143,6.5050397)"
       sodipodi:nodetypes="cc" />
    <path
       style="fill:none;stroke:#800000"
       d="m 493.45952,662.16601 c 17.83557,19.47254 25.42072,40.12783 25.75889,61.6193"
       id="path3137"
       inkscape:connector-curvature="0"
       transform="translate(185.57143,6.5050397)"
       sodipodi:nodetypes="cc" />
    <path
       style="fill:none;stroke:#800000"
       d="m 512.14734,727.82592 c -11.2686,57.36177 -47.10546,75.78514 -93.94419,76.7716"
       id="path3139"
       inkscape:connector-curvature="0"
       transform="translate(185.57143,6.5050397)"
       sodipodi:nodetypes="cc" />
    <path
       style="fill:none;stroke:#800000"
       d="M 426.28437,810.65843 C 313.47549,819.93721 312.0307,969.8942 426.03184,977.83868"
       id="path3141"
       inkscape:connector-curvature="0"
       transform="translate(185.57143,6.5050397)"
       sodipodi:nodetypes="cc" />
    <path
       style="fill:none;stroke:#800000"
       d="m 426.28437,985.66736 c 113.48168,8.14984 114.11289,161.15534 -1.01015,166.17014"
       id="path3143"
       inkscape:connector-curvature="0"
       transform="translate(185.57143,6.5050397)"
       sodipodi:nodetypes="cc" />
    <path
       style="fill:none;stroke:#800000"
       d="m 430.07245,1159.1611 c -33.64979,6.7501 -51.80797,28.0805 -62.62946,56.316"
       id="path3145"
       inkscape:connector-curvature="0"
       transform="translate(185.57143,6.5050397)"
       sodipodi:nodetypes="cc" />
    <path
       style="fill:none;stroke:#800000"
       d="m 359.86684,1211.689 c -17.54178,25.3037 -19.89688,50.1176 -16.66751,74.7513"
       id="path3147"
       inkscape:connector-curvature="0"
       transform="translate(185.57143,6.5050397)"
       sodipodi:nodetypes="cc" />
    <path
       style="fill:none;stroke:#800000"
       d="m 338.90618,1290.7334 c 8.44523,44.4749 50.7009,73.2404 71.46829,82.8325"
       id="path3149"
       inkscape:connector-curvature="0"
       transform="translate(185.57143,6.5050397)"
       sodipodi:nodetypes="cc" />
    <path
       style="fill:none;stroke:#800000"
       d="m 414.16254,1370.0304 c 26.35136,10.3525 57.50678,18.3954 118.44039,12.1218"
       id="path3151"
       inkscape:connector-curvature="0"
       transform="translate(185.57143,6.5050397)"
       sodipodi:nodetypes="cc" />
    <path
       style="fill:none;stroke:#800000"
       d="m 531.0877,1387.4555 c 33.19298,-1.2995 66.68262,-5.8623 102.53048,-36.3655"
       id="path3153"
       inkscape:connector-curvature="0"
       transform="translate(185.57143,6.5050397)"
       sodipodi:nodetypes="cc" />
    <path
       style="fill:none;stroke:#800000"
       d="m 631.85042,1345.0291 c 14.47626,-17.508 29.00672,-33.2819 42.17387,-92.6815"
       id="path3155"
       inkscape:connector-curvature="0"
       transform="translate(185.57143,6.5050397)"
       sodipodi:nodetypes="cc" />
    <path
       style="fill:none;stroke:#800000"
       d="m 682.35804,1254.368 c 15.63171,-59.7386 58.965,-86.966 122.481,-90.4087"
       id="path3157"
       inkscape:connector-curvature="0"
       transform="translate(185.57143,6.5050397)"
       sodipodi:nodetypes="cc" />
  </g>
</svg>
