<?xml version="1.0" encoding="UTF-8" standalone="no"?>
<!-- Created with Inkscape (http://www.inkscape.org/) -->

<svg
   xmlns:dc="http://purl.org/dc/elements/1.1/"
   xmlns:cc="http://creativecommons.org/ns#"
   xmlns:rdf="http://www.w3.org/1999/02/22-rdf-syntax-ns#"
   xmlns:svg="http://www.w3.org/2000/svg"
   xmlns="http://www.w3.org/2000/svg"
   xmlns:xlink="http://www.w3.org/1999/xlink"
   xmlns:sodipodi="http://sodipodi.sourceforge.net/DTD/sodipodi-0.dtd"
   xmlns:inkscape="http://www.inkscape.org/namespaces/inkscape"
   width="1206"
   height="1566"
   id="svg3186"
   version="1.1"
   inkscape:version="0.48.4 r9939"
   sodipodi:docname="ten_fox.svg">
  <defs
     id="defs3188" />
  <sodipodi:namedview
     id="base"
     pagecolor="#ffffff"
     bordercolor="#666666"
     borderopacity="1.0"
     inkscape:pageopacity="0.0"
     inkscape:pageshadow="2"
     inkscape:zoom="5.6"
     inkscape:cx="860.24064"
     inkscape:cy="517.84184"
     inkscape:document-units="px"
     inkscape:current-layer="layer1"
     showgrid="false"
     fit-margin-top="0"
     fit-margin-left="0"
     fit-margin-right="0"
     fit-margin-bottom="0"
     inkscape:window-width="2495"
     inkscape:window-height="1056"
     inkscape:window-x="1985"
     inkscape:window-y="24"
     inkscape:window-maximized="1" />
  <metadata
     id="metadata3191">
    <rdf:RDF>
      <cc:Work
         rdf:about="">
        <dc:format>image/svg+xml</dc:format>
        <dc:type
           rdf:resource="http://purl.org/dc/dcmitype/StillImage" />
        <dc:title></dc:title>
      </cc:Work>
    </rdf:RDF>
  </metadata>
  <g
     inkscape:label="Layer 1"
     inkscape:groupmode="layer"
     id="layer1"
     transform="translate(-194.14285,-6.5050397)">
    <image
       y="6.5050397"
       x="194.14285"
       id="image3573"
       xlink:href="file:///home/shawn/Desktop/danceDiagrams/raw/page-392.png"
       height="1566"
       width="1206" />
    <path
       style="fill:none;stroke:#800000"
       d="m 312.85714,815.28571 611.07143,0"
       id="path3611"
       inkscape:connector-curvature="0"
       transform="translate(194.14285,6.5050397)" />
    <path
       style="fill:none;stroke:#800000"
       d="m 618.92857,219.57143 0,1189.28567"
       id="path3613"
       inkscape:connector-curvature="0"
       transform="translate(194.14285,6.5050397)" />
    <path
       style="fill:none;stroke:#800000"
       d="m 373.92857,286.71428 c -14.02801,13.0272 -23.23298,29.35438 -28.21428,48.57143"
       id="path3615"
       inkscape:connector-curvature="0"
       transform="translate(194.14285,6.5050397)"
       sodipodi:nodetypes="cc" />
    <path
       style="fill:none;stroke:#800000"
       d="m 340.35714,330.64286 c -9.26204,13.64174 -10.18814,31.99511 -8.57143,51.78571"
       id="path3617"
       inkscape:connector-curvature="0"
       transform="translate(194.14285,6.5050397)"
       sodipodi:nodetypes="cc" />
    <path
       style="fill:none;stroke:#800000"
       d="m 336.78571,376.71428 c 1.00521,40.52887 32.70699,63.18785 85,85.35715"
       id="path3619"
       inkscape:connector-curvature="0"
       transform="translate(194.14285,6.5050397)"
       sodipodi:nodetypes="cc" />
    <path
       style="fill:none;stroke:#800000"
       d="m 417.5,468.14286 c 83.64633,28.64488 73.86311,156.53419 -1.25,177.14285"
       id="path3621"
       inkscape:connector-curvature="0"
       transform="translate(194.14285,6.5050397)"
       sodipodi:nodetypes="cc" />
    <path
       style="fill:none;stroke:#800000"
       d="M 416.42857,652.07143 C 385.14001,663.6288 362.00954,683.61621 345,709.92857"
       id="path3623"
       inkscape:connector-curvature="0"
       transform="translate(194.14285,6.5050397)"
       sodipodi:nodetypes="cc" />
    <path
       style="fill:none;stroke:#800000"
       d="m 351.07143,712.07143 c -10.7612,14.02511 -11.46614,30.44457 -12.5,46.78571"
       id="path3625"
       inkscape:connector-curvature="0"
       transform="translate(194.14285,6.5050397)"
       sodipodi:nodetypes="cc" />
    <path
       style="fill:none;stroke:#800000"
       d="m 331.07143,754.92857 c 0.4163,19.23456 3.79638,36.44836 14.64286,48.57143"
       id="path3627"
       inkscape:connector-curvature="0"
       transform="translate(194.14285,6.5050397)"
       sodipodi:nodetypes="cc" />
    <path
       style="fill:none;stroke:#800000"
       d="M 351.42857,798.14286 C 368.21695,818.90344 395.40269,838.04762 423.21429,851"
       id="path3629"
       inkscape:connector-curvature="0"
       transform="translate(194.14285,6.5050397)"
       sodipodi:nodetypes="cc" />
    <path
       style="fill:none;stroke:#800000"
       d="M 416.78571,857.07143 C 478.52647,884.81608 506.50268,1016.1327 405,1047.7857"
       id="path3631"
       inkscape:connector-curvature="0"
       transform="translate(194.14285,6.5050397)"
       sodipodi:nodetypes="cc" />
    <path
       style="fill:none;stroke:#800000"
       d="m 412.14286,1053.1429 c -14.63719,10.0524 -25.19017,24.501 -26.07143,42.1429"
       id="path3633"
       inkscape:connector-curvature="0"
       transform="translate(194.14285,6.5050397)"
       sodipodi:nodetypes="cc" />
    <path
       style="fill:none;stroke:#800000"
       d="m 386.78571,1094.9286 c -14.9876,2.4088 -24.17638,26.3787 -23.57142,33.2143"
       id="path3635"
       inkscape:connector-curvature="0"
       transform="translate(194.14285,6.5050397)"
       sodipodi:nodetypes="cc" />
    <path
       style="fill:none;stroke:#800000"
       d="m 370,1134.2143 c -14.42586,14.7067 -23.04835,30.0581 -28.92857,45.7143"
       id="path3637"
       inkscape:connector-curvature="0"
       transform="translate(194.14285,6.5050397)"
       sodipodi:nodetypes="cc" />
    <path
       style="fill:none;stroke:#800000"
       d="m 335.35714,1178.5 c -5.88543,14.2683 -9.81568,29.1884 -10,45.3571"
       id="path3639"
       inkscape:connector-curvature="0"
       transform="translate(194.14285,6.5050397)"
       sodipodi:nodetypes="cc" />
    <path
       style="fill:none;stroke:#800000"
       d="m 331.07143,1226 c -0.22497,37.9316 6.31941,68.7483 42.14286,71.6072"
       id="path3641"
       inkscape:connector-curvature="0"
       transform="translate(194.14285,6.5050397)"
       sodipodi:nodetypes="cc" />
    <path
       style="fill:none;stroke:#800000"
       d="m 363.92857,1303.8571 c 9.72151,10.7783 21.58907,20.0543 36.07143,27.5"
       id="path3643"
       inkscape:connector-curvature="0"
       transform="translate(194.14285,6.5050397)"
       sodipodi:nodetypes="cc" />
    <path
       style="fill:none;stroke:#800000"
       d="m 395.71429,1333.8571 c 15.62235,10.8612 32.96992,19.7097 54.28571,23.9286"
       id="path3645"
       inkscape:connector-curvature="0"
       transform="translate(194.14285,6.5050397)"
       sodipodi:nodetypes="cc" />
    <path
       style="fill:none;stroke:#800000"
       d="m 451.78572,1351.7143 c 16.4457,6.3222 34.90342,11.5126 58.92857,13.5714"
       id="path3647"
       inkscape:connector-curvature="0"
       transform="translate(194.14285,6.5050397)"
       sodipodi:nodetypes="cc" />
    <path
       style="fill:none;stroke:#800000"
       d="m 509.64286,1374.5714 c 22.79641,4.8226 46.88655,8.3515 75.35714,7.5"
       id="path3649"
       inkscape:connector-curvature="0"
       transform="translate(194.14285,6.5050397)"
       sodipodi:nodetypes="cc" />
    <path
       style="fill:none;stroke:#800000"
       d="m 586.07143,1373.5 c 16.16786,14.4823 74.48681,-4.0061 84.28571,14.2857"
       id="path3651"
       inkscape:connector-curvature="0"
       transform="translate(194.14285,6.5050397)"
       sodipodi:nodetypes="cc" />
    <path
       style="fill:none;stroke:#800000"
       d="m 645.35714,1387.7857 c 0.37157,-13.9737 63.45716,-0.4119 82.14286,-23.5714"
       id="path3653"
       inkscape:connector-curvature="0"
       transform="translate(194.14285,6.5050397)"
       sodipodi:nodetypes="cc" />
    <path
       style="fill:none;stroke:#800000"
       d="m 729.28572,1376 c 40.55035,-2.4493 80.99387,-8.7443 121.07142,-28.2143"
       id="path3655"
       inkscape:connector-curvature="0"
       transform="translate(194.14285,6.5050397)"
       sodipodi:nodetypes="cc" />
    <path
       style="fill:none;stroke:#800000"
       d="m 865,1348.8571 c 12.68515,-13.0304 23.97742,-27.1883 26.78572,-48.2142"
       id="path3657"
       inkscape:connector-curvature="0"
       transform="translate(194.14285,6.5050397)"
       sodipodi:nodetypes="cc" />
    <path
       style="fill:none;stroke:#800000"
       d="m 897.85714,1304.5714 c 7.93078,-14.4213 12.04018,-31.0718 8.57143,-52.1428"
       id="path3659"
       inkscape:connector-curvature="0"
       transform="translate(194.14285,6.5050397)"
       sodipodi:nodetypes="cc" />
    <path
       style="fill:none;stroke:#800000"
       d="m 901.07143,1257.4286 c -1.00914,-44.4897 -41.968,-65.0097 -85,-84.2857"
       id="path3661"
       inkscape:connector-curvature="0"
       transform="translate(194.14285,6.5050397)"
       sodipodi:nodetypes="cc" />
    <path
       style="fill:none;stroke:#800000"
       d="m 820.71429,1168.3214 c -82.33144,-29.1895 -76.6096,-168.0363 3.39285,-186.24997"
       id="path3720"
       inkscape:connector-curvature="0"
       transform="translate(194.14285,6.5050397)"
       sodipodi:nodetypes="cc" />
    <path
       style="fill:none;stroke:#800000"
       d="m 823.57142,982.42857 c 27.45491,-5.3806 51.94985,-25.21468 68.92858,-56.78571"
       id="path3722"
       inkscape:connector-curvature="0"
       transform="translate(194.14285,6.5050397)"
       sodipodi:nodetypes="cc" />
    <path
       style="fill:none;stroke:#800000"
       d="m 886.42857,923.14286 c 7.23943,-11.71462 15.39969,-22.25654 12.85715,-46.42858"
       id="path3665"
       inkscape:connector-curvature="0"
       transform="translate(194.14285,6.5050397)"
       sodipodi:nodetypes="cc" />
    <path
       style="fill:none;stroke:#800000"
       d="m 906.42857,879.57143 c 1.3113,-17.92325 -1.28151,-33.61719 -13.74999,-48.21429"
       id="path3667"
       inkscape:connector-curvature="0"
       transform="translate(194.14285,6.5050397)"
       sodipodi:nodetypes="cc" />
    <path
       style="fill:none;stroke:#800000"
       d="M 886.78572,836.71428 C 880.40622,823.22443 853.71082,804.95436 815,783.85714"
       id="path3669"
       inkscape:connector-curvature="0"
       transform="translate(194.14285,6.5050397)"
       sodipodi:nodetypes="cc" />
    <path
       style="fill:none;stroke:#800000"
       d="M 824.28572,778.14286 C 808.3433,769.63553 797.3225,756.47318 794.64286,737.07143"
       id="path3671"
       inkscape:connector-curvature="0"
       transform="translate(194.14285,6.5050397)"
       sodipodi:nodetypes="cc" />
    <path
       style="fill:none;stroke:#800000"
       d="m 795.17857,737.78571 c -16.92425,-3.93845 -30.03762,-19.52126 -38.39285,-49.64285"
       id="path3673"
       inkscape:connector-curvature="0"
       transform="translate(194.14285,6.5050397)"
       sodipodi:nodetypes="cc" />
    <path
       style="fill:none;stroke:#800000"
       d="m 766.07143,688.5 c -0.76749,-57.29964 21.96328,-86.50353 65,-91.42857"
       id="path3675"
       inkscape:connector-curvature="0"
       transform="translate(194.14285,6.5050397)"
       sodipodi:nodetypes="cc" />
    <path
       style="fill:none;stroke:#800000"
       d="M 826.07143,587.07143 C 851.04694,571.90864 873.48417,553.44608 875,507.78571"
       id="path3677"
       inkscape:connector-curvature="0"
       transform="translate(194.14285,6.5050397)"
       sodipodi:nodetypes="cc" />
    <path
       style="fill:none;stroke:#800000"
       d="m 868.21429,501.35714 c 10.76713,-13.04112 22.04036,-25.22186 28.21428,-46.07143"
       id="path3679"
       inkscape:connector-curvature="0"
       transform="translate(194.14285,6.5050397)"
       sodipodi:nodetypes="cc" />
    <path
       style="fill:none;stroke:#800000"
       d="m 902.14286,457.42857 c 7.11303,-10.44352 11.53525,-35.59524 10,-46.42857"
       id="path3681"
       inkscape:connector-curvature="0"
       transform="translate(194.14285,6.5050397)"
       sodipodi:nodetypes="cc" />
    <path
       style="fill:none;stroke:#800000"
       d="M 908.21429,409.57143 C 905.89723,376.71563 893.46161,351.61674 865,337.78571"
       id="path3683"
       inkscape:connector-curvature="0"
       transform="translate(194.14285,6.5050397)"
       sodipodi:nodetypes="cc" />
    <path
       style="fill:none;stroke:#800000"
       d="m 874.64286,332.07143 c -8.88905,-18.48982 -26.58743,-27.93847 -53.57143,-27.85715"
       id="path3685"
       inkscape:connector-curvature="0"
       transform="translate(194.14285,6.5050397)"
       sodipodi:nodetypes="cc" />
    <path
       style="fill:none;stroke:#800000"
       d="M 843.57143,318.5 C 832.22582,288.46843 810.58911,280.66562 787.5,276"
       id="path3687"
       inkscape:connector-curvature="0"
       transform="translate(194.14285,6.5050397)"
       sodipodi:nodetypes="cc" />
    <path
       style="fill:none;stroke:#800000"
       d="M 787.14286,284.57143 C 767.6337,276.27106 747.8421,271.92481 727.85714,270.28571"
       id="path3689"
       inkscape:connector-curvature="0"
       transform="translate(194.14285,6.5050397)"
       sodipodi:nodetypes="cc" />
    <path
       style="fill:none;stroke:#800000"
       d="M 728.92857,261.71428 C 705.50202,255.4865 679.855,252.46606 652.14286,252.42857"
       id="path3691"
       inkscape:connector-curvature="0"
       transform="translate(194.14285,6.5050397)"
       sodipodi:nodetypes="cc" />
    <path
       style="fill:none;stroke:#800000"
       d="m 652.5,259.57143 c -22.02381,-5.97268 -44.04762,-7.01606 -66.07143,-7.85715"
       id="path3693"
       inkscape:connector-curvature="0"
       transform="translate(194.14285,6.5050397)"
       sodipodi:nodetypes="cc" />
    <path
       style="fill:none;stroke:#800000"
       d="m 585.35714,262.78571 c -18.31552,-13.22109 -61.18806,2.42027 -76.42857,-12.85714"
       id="path3695"
       inkscape:connector-curvature="0"
       transform="translate(194.14285,6.5050397)"
       sodipodi:nodetypes="cc" />
    <path
       style="fill:none;stroke:#800000"
       d="M 508.57143,260.28571 C 462.34689,262.36899 422.29767,271.65681 387.5,287.07143"
       id="path3697"
       inkscape:connector-curvature="0"
       transform="translate(194.14285,6.5050397)"
       sodipodi:nodetypes="cc" />
  </g>
</svg>
