<?xml version="1.0" encoding="UTF-8" standalone="no"?>
<!-- Created with Inkscape (http://www.inkscape.org/) -->

<svg
   xmlns:dc="http://purl.org/dc/elements/1.1/"
   xmlns:cc="http://creativecommons.org/ns#"
   xmlns:rdf="http://www.w3.org/1999/02/22-rdf-syntax-ns#"
   xmlns:svg="http://www.w3.org/2000/svg"
   xmlns="http://www.w3.org/2000/svg"
   xmlns:xlink="http://www.w3.org/1999/xlink"
   xmlns:sodipodi="http://sodipodi.sourceforge.net/DTD/sodipodi-0.dtd"
   xmlns:inkscape="http://www.inkscape.org/namespaces/inkscape"
   width="1206"
   height="1566"
   id="svg3892"
   version="1.1"
   inkscape:version="0.48.4 r9939"
   sodipodi:docname="viennese_waltz_man.svg">
  <defs
     id="defs3894" />
  <sodipodi:namedview
     id="base"
     pagecolor="#ffffff"
     bordercolor="#666666"
     borderopacity="1.0"
     inkscape:pageopacity="0.0"
     inkscape:pageshadow="2"
     inkscape:zoom="5.6"
     inkscape:cx="403.01746"
     inkscape:cy="1074.5412"
     inkscape:document-units="px"
     inkscape:current-layer="layer1"
     showgrid="false"
     fit-margin-top="0"
     fit-margin-left="0"
     fit-margin-right="0"
     fit-margin-bottom="0"
     inkscape:window-width="2495"
     inkscape:window-height="1056"
     inkscape:window-x="1985"
     inkscape:window-y="24"
     inkscape:window-maximized="1" />
  <metadata
     id="metadata3897">
    <rdf:RDF>
      <cc:Work
         rdf:about="">
        <dc:format>image/svg+xml</dc:format>
        <dc:type
           rdf:resource="http://purl.org/dc/dcmitype/StillImage" />
        <dc:title></dc:title>
      </cc:Work>
    </rdf:RDF>
  </metadata>
  <g
     inkscape:label="Layer 1"
     inkscape:groupmode="layer"
     id="layer1"
     transform="translate(-222.71428,-3.647897)">
    <image
       y="3.647897"
       x="222.71428"
       id="image4039"
       xlink:href="file:///home/shawn/Desktop/danceDiagrams/raw/page-427.png"
       height="1566"
       width="1206" />
    <path
       style="fill:none;stroke:#800000"
       d="m 272.5,817.07143 626.42857,0"
       id="path4042"
       inkscape:connector-curvature="0"
       transform="translate(222.71428,3.647897)" />
    <path
       style="fill:none;stroke:#800000"
       d="m 585,206.71428 0,1219.64282"
       id="path4044"
       inkscape:connector-curvature="0"
       transform="translate(222.71428,3.647897)" />
    <path
       style="fill:none;stroke:#800000"
       d="m 370,639.21428 c -24.05049,5.76022 -40.39301,21.52666 -52.5,38.57143"
       id="path4046"
       inkscape:connector-curvature="0"
       transform="translate(222.71428,3.647897)"
       sodipodi:nodetypes="cc" />
    <path
       style="fill:none;stroke:#800000"
       d="m 309.28571,674.21428 c -16.64496,20.35074 -23.04575,41.11961 -23.21428,62.14286"
       id="path4048"
       inkscape:connector-curvature="0"
       transform="translate(222.71428,3.647897)"
       sodipodi:nodetypes="cc" />
    <path
       style="fill:none;stroke:#800000"
       d="m 294.64286,735.64286 c -4.71991,71.14509 27.18484,118.11644 107.14285,129.28571"
       id="path4050"
       inkscape:connector-curvature="0"
       transform="translate(222.71428,3.647897)"
       sodipodi:nodetypes="cc" />
    <path
       style="fill:none;stroke:#800000"
       d="m 402.14286,853.85714 c 21.17018,2.25789 41.14293,11.30117 59.28571,30.71429"
       id="path4052"
       inkscape:connector-curvature="0"
       transform="translate(222.71428,3.647897)"
       sodipodi:nodetypes="cc" />
    <path
       style="fill:none;stroke:#800000"
       d="m 452.85714,888.5 c 34.98399,24.58415 32.00227,114.1544 -37.5,120.7143"
       id="path4054"
       inkscape:connector-curvature="0"
       transform="translate(222.71428,3.647897)"
       sodipodi:nodetypes="cc" />
    <path
       style="fill:none;stroke:#800000"
       d="m 415.73595,1009.0663 c -40.85024,0.1355 -65.4394,18.1296 -76.4428,32.6913"
       id="path4056"
       inkscape:connector-curvature="0"
       transform="translate(222.71428,3.647897)"
       sodipodi:nodetypes="cc" />
    <path
       style="fill:none;stroke:#800000"
       d="m 341.78571,1050.2857 c -46.40855,34.8228 -68.779,86.7608 -55.71428,163.9286"
       id="path4058"
       inkscape:connector-curvature="0"
       transform="translate(222.71428,3.647897)"
       sodipodi:nodetypes="cc" />
    <path
       style="fill:none;stroke:#800000"
       d="m 293.57143,1211.7143 c -1.50124,21.9314 8.95659,74.0689 60,83.5714"
       id="path4060"
       inkscape:connector-curvature="0"
       transform="translate(222.71428,3.647897)"
       sodipodi:nodetypes="cc" />
    <path
       style="fill:none;stroke:#800000"
       d="m 352.32143,1294.7501 c 7.61903,17.9762 29.4643,27.619 63.03571,22.8571"
       id="path4062"
       inkscape:connector-curvature="0"
       transform="translate(222.71428,3.647897)"
       sodipodi:nodetypes="cc" />
    <path
       style="fill:none;stroke:#800000"
       d="M 420.71429,1316 C 503.14858,1322.0882 530.73396,1263.1986 525,1211"
       id="path4064"
       inkscape:connector-curvature="0"
       transform="translate(222.71428,3.647897)"
       sodipodi:nodetypes="cc" />
    <path
       style="fill:none;stroke:#800000"
       d="m 532.5,1214.2143 c 10.82864,-72.2984 150.57384,-62.1275 143.57143,34.2857"
       id="path4066"
       inkscape:connector-curvature="0"
       transform="translate(222.71428,3.647897)"
       sodipodi:nodetypes="cc" />
    <path
       style="fill:none;stroke:#800000"
       d="m 675.89286,1248.5 c -5.78262,0.5776 -11.04507,0.5887 -16.96429,0.7143"
       id="path4068"
       inkscape:connector-curvature="0"
       transform="translate(222.71428,3.647897)"
       sodipodi:nodetypes="cc" />
    <path
       style="fill:none;stroke:#800000"
       d="m 684.28572,1252.7857 c -0.0594,52.0953 32.92868,87.2213 77.85714,95.3572"
       id="path4070"
       inkscape:connector-curvature="0"
       transform="translate(222.71428,3.647897)"
       sodipodi:nodetypes="cc" />
    <path
       style="fill:none;stroke:#800000"
       d="m 768.21429,1342.0714 c 18.09524,5.6622 36.19047,3.4988 54.28571,-4.6428"
       id="path4072"
       inkscape:connector-curvature="0"
       transform="translate(222.71428,3.647897)"
       sodipodi:nodetypes="cc" />
    <path
       style="fill:none;stroke:#800000"
       d="m 824.28572,1344.9286 c 60.69195,-19.1421 71.36321,-70.8318 62.85714,-135"
       id="path4074"
       inkscape:connector-curvature="0"
       transform="translate(222.71428,3.647897)"
       sodipodi:nodetypes="cc" />
    <path
       style="fill:none;stroke:#800000"
       d="M 877.85714,1209.9286 C 881.35567,1135.4298 813.48328,1089.9724 748.57143,1106"
       id="path4076"
       inkscape:connector-curvature="0"
       transform="translate(222.71428,3.647897)"
       sodipodi:nodetypes="cc" />
    <path
       style="fill:none;stroke:#800000"
       d="m 753.21429,1116.7143 c -41.64536,14.3385 -91.47865,8.1407 -100.89286,-31.0714"
       id="path4078"
       inkscape:connector-curvature="0"
       transform="translate(222.71428,3.647897)"
       sodipodi:nodetypes="cc" />
    <path
       style="fill:none;stroke:#800000"
       d="m 652.85715,1085.6428 c -18.4937,-0.035 -39.98595,-3.5049 -51.78572,-41.0714"
       id="path4080"
       inkscape:connector-curvature="0"
       transform="translate(222.71428,3.647897)"
       sodipodi:nodetypes="cc" />
    <path
       style="fill:none;stroke:#800000"
       d="m 606.42857,1038.8571 c -6.5601,-65.97328 18.22149,-123.28757 102.85715,-128.92853"
       id="path4082"
       inkscape:connector-curvature="0"
       transform="translate(222.71428,3.647897)"
       sodipodi:nodetypes="cc" />
    <path
       style="fill:none;stroke:#800000"
       d="M 706.78572,896.35714 C 730.99774,895.54882 753.80203,892.00786 770,875.64286"
       id="path4084"
       inkscape:connector-curvature="0"
       transform="translate(222.71428,3.647897)"
       sodipodi:nodetypes="cc" />
    <path
       style="fill:none;stroke:#800000"
       d="m 776.42857,882.07143 c 18.43378,-10.84013 34.23518,-25.5716 41.78572,-52.5"
       id="path4086"
       inkscape:connector-curvature="0"
       transform="translate(222.71428,3.647897)"
       sodipodi:nodetypes="cc" />
    <path
       style="fill:none;stroke:#800000"
       d="M 808.75,828.14286 C 835.43662,769.20313 825.93956,715.68882 748.57143,672.42857"
       id="path4088"
       inkscape:connector-curvature="0"
       transform="translate(222.71428,3.647897)"
       sodipodi:nodetypes="cc" />
    <path
       style="fill:none;stroke:#800000"
       d="M 744.28572,682.78571 C 724.09396,672.06174 707.03199,658.33839 698.21429,636.71428"
       id="path4090"
       inkscape:connector-curvature="0"
       transform="translate(222.71428,3.647897)"
       sodipodi:nodetypes="cc" />
    <path
       style="fill:none;stroke:#800000"
       d="M 708.57143,634.57143 C 665.17058,605.4188 688.02361,510.98319 753.21429,515.64286"
       id="path4092"
       inkscape:connector-curvature="0"
       transform="translate(222.71428,3.647897)"
       sodipodi:nodetypes="cc" />
    <path
       style="fill:none;stroke:#800000"
       d="m 753.21428,515.64285 c 26.58154,-0.78165 56.14766,-14.35564 71.07144,-33.21428"
       id="path4094"
       inkscape:connector-curvature="0"
       transform="translate(222.71428,3.647897)"
       sodipodi:nodetypes="cc" />
    <path
       style="fill:none;stroke:#800000"
       d="m 821.07143,475.64286 c 64.20315,-28.02304 96.01382,-150.90954 33.21429,-200.35715"
       id="path4096"
       inkscape:connector-curvature="0"
       transform="translate(222.71428,3.647897)"
       sodipodi:nodetypes="cc" />
    <path
       style="fill:none;stroke:#800000"
       d="M 843.57143,279.57143 C 767.74233,231.59582 665.2561,300.97375 690.35714,380.28571"
       id="path4100"
       inkscape:connector-curvature="0"
       transform="translate(222.71428,3.647897)"
       sodipodi:nodetypes="cc" />
    <path
       style="fill:none;stroke:#800000"
       d="m 700.35714,375.64286 c 23.32506,67.36245 15.48376,121.08961 -22.14285,161.78571"
       id="path4102"
       inkscape:connector-curvature="0"
       transform="translate(222.71428,3.647897)"
       sodipodi:nodetypes="cc" />
    <path
       style="fill:none;stroke:#800000"
       d="M 673.21429,546.35714 C 616.01919,638.12789 510.9328,715.79113 382.5,637.07143"
       id="path4104"
       inkscape:connector-curvature="0"
       transform="translate(222.71428,3.647897)"
       sodipodi:nodetypes="cc" />
  </g>
</svg>
