<?xml version="1.0" encoding="UTF-8" standalone="no"?>
<!-- Created with Inkscape (http://www.inkscape.org/) -->

<svg
   xmlns:dc="http://purl.org/dc/elements/1.1/"
   xmlns:cc="http://creativecommons.org/ns#"
   xmlns:rdf="http://www.w3.org/1999/02/22-rdf-syntax-ns#"
   xmlns:svg="http://www.w3.org/2000/svg"
   xmlns="http://www.w3.org/2000/svg"
   xmlns:xlink="http://www.w3.org/1999/xlink"
   xmlns:sodipodi="http://sodipodi.sourceforge.net/DTD/sodipodi-0.dtd"
   xmlns:inkscape="http://www.inkscape.org/namespaces/inkscape"
   width="1206"
   height="1566"
   id="svg3477"
   version="1.1"
   inkscape:version="0.48.4 r9939"
   sodipodi:docname="viennese_waltz_lady.svg">
  <defs
     id="defs3479" />
  <sodipodi:namedview
     id="base"
     pagecolor="#ffffff"
     bordercolor="#666666"
     borderopacity="1.0"
     inkscape:pageopacity="0.0"
     inkscape:pageshadow="2"
     inkscape:zoom="1.4"
     inkscape:cx="699.00374"
     inkscape:cy="1277.0712"
     inkscape:document-units="px"
     inkscape:current-layer="layer1"
     showgrid="false"
     fit-margin-top="0"
     fit-margin-left="0"
     fit-margin-right="0"
     fit-margin-bottom="0"
     inkscape:window-width="2495"
     inkscape:window-height="1056"
     inkscape:window-x="1985"
     inkscape:window-y="24"
     inkscape:window-maximized="1" />
  <metadata
     id="metadata3482">
    <rdf:RDF>
      <cc:Work
         rdf:about="">
        <dc:format>image/svg+xml</dc:format>
        <dc:type
           rdf:resource="http://purl.org/dc/dcmitype/StillImage" />
        <dc:title />
      </cc:Work>
    </rdf:RDF>
  </metadata>
  <g
     inkscape:label="Layer 1"
     inkscape:groupmode="layer"
     id="layer1"
     transform="translate(-259.85715,-20.790754)">
    <image
       y="20.790754"
       x="259.85715"
       id="image3544"
       xlink:href="file:///home/shawn/Desktop/danceDiagrams/raw/page-428.png"
       height="1566"
       width="1206" />
    <path
       style="fill:none;stroke:#800000"
       d="m 309.61176,817.7295 622.25396,0"
       id="path3574"
       inkscape:connector-curvature="0"
       transform="translate(259.85715,20.790754)" />
    <path
       style="fill:none;stroke:#800000"
       d="m 620.73874,211.1329 0,1211.4254"
       id="path3576"
       inkscape:connector-curvature="0"
       transform="translate(259.85715,20.790754)" />
    <path
       style="fill:none;stroke:#800000"
       d="m 406.33386,641.45788 c -23.52728,4.62564 -39.64693,19.76535 -52.78047,39.14341"
       id="path3578"
       inkscape:connector-curvature="0"
       transform="translate(259.85715,20.790754)"
       sodipodi:nodetypes="cc" />
    <path
       style="fill:none;stroke:#800000"
       d="m 345.97725,675.80307 c -14.80881,15.12152 -23.07015,35.38749 -23.73859,61.6193"
       id="path3580"
       inkscape:connector-curvature="0"
       transform="translate(259.85715,20.790754)"
       sodipodi:nodetypes="cc" />
    <path
       style="fill:none;stroke:#800000"
       d="m 331.33004,737.16984 c -5.15177,88.41488 47.30613,118.64883 105.81347,128.28937"
       id="path3582"
       inkscape:connector-curvature="0"
       transform="translate(259.85715,20.790754)"
       sodipodi:nodetypes="cc" />
    <path
       style="fill:none;stroke:#800000"
       d="m 436.89098,854.60007 c 22.7042,3.02711 43.03019,11.81196 59.34646,30.30458"
       id="path3584"
       inkscape:connector-curvature="0"
       transform="translate(259.85715,20.790754)"
       sodipodi:nodetypes="cc" />
    <path
       style="fill:none;stroke:#800000"
       d="m 488.40876,888.94526 c 42.0669,32.22455 19.70914,122.88594 -39.90103,119.45054"
       id="path3586"
       inkscape:connector-curvature="0"
       transform="translate(259.85715,20.790754)"
       sodipodi:nodetypes="cc" />
    <path
       style="fill:none;stroke:#800000"
       d="m 448.76027,1008.2695 c -27.84288,0.7761 -56.877,12.4082 -75.76144,33.2088"
       id="path3588"
       inkscape:connector-curvature="0"
       transform="translate(259.85715,20.790754)"
       sodipodi:nodetypes="cc" />
    <path
       style="fill:none;stroke:#800000"
       d="m 378.55467,1049.307 c -39.55025,31.093 -70.4194,71.6974 -55.81093,162.1295"
       id="path3590"
       inkscape:connector-curvature="0"
       transform="translate(259.85715,20.790754)"
       sodipodi:nodetypes="cc" />
    <path
       style="fill:none;stroke:#800000"
       d="m 331.33004,1206.3857 c 4.33523,58.1461 49.04351,106.9846 118.44038,109.6015"
       id="path3592"
       inkscape:connector-curvature="0"
       transform="translate(259.85715,20.790754)"
       sodipodi:nodetypes="cc" />
    <path
       style="fill:none;stroke:#800000"
       d="m 456.08387,1313.4619 c 83.42076,2.6835 104.94839,-42.6176 104.04572,-105.3084"
       id="path3594"
       inkscape:connector-curvature="0"
       transform="translate(259.85715,20.790754)"
       sodipodi:nodetypes="cc" />
    <path
       style="fill:none;stroke:#800000"
       d="m 571.4938,1209.4162 c 10.74885,-67.7488 140.10924,-63.7056 139.14852,39.3959"
       id="path3596"
       inkscape:connector-curvature="0"
       transform="translate(259.85715,20.790754)"
       sodipodi:nodetypes="cc" />
    <path
       style="fill:none;stroke:#800000"
       d="m 719.22861,1251.59 c -11.20496,79.8305 67.70188,73.1189 75.76144,94.9544"
       id="path3598"
       inkscape:connector-curvature="0"
       transform="translate(259.85715,20.790754)"
       sodipodi:nodetypes="cc" />
    <path
       style="fill:none;stroke:#800000"
       d="m 801.80858,1340.736 c 18.8446,4.5295 36.87907,2.0379 54.2957,-5.8084"
       id="path3600"
       inkscape:connector-curvature="0"
       transform="translate(259.85715,20.790754)"
       sodipodi:nodetypes="cc" />
    <path
       style="fill:none;stroke:#800000"
       d="m 857.87205,1343.7664 c 46.25544,-17.5369 75.2126,-53.6807 61.36677,-135.8655"
       id="path3602"
       inkscape:connector-curvature="0"
       transform="translate(259.85715,20.790754)"
       sodipodi:nodetypes="cc" />
    <path
       style="fill:none;stroke:#800000"
       d="m 910.39998,1208.6585 c 4.65747,-75.3038 -61.45911,-116.9687 -128.79445,-104.0457"
       id="path3604"
       inkscape:connector-curvature="0"
       transform="translate(259.85715,20.790754)"
       sodipodi:nodetypes="cc" />
    <path
       style="fill:none;stroke:#800000"
       d="m 785.64614,1115.472 c -57.95543,15.0172 -123.12154,-12.3372 -141.92643,-68.1853"
       id="path3606"
       inkscape:connector-curvature="0"
       transform="translate(259.85715,20.790754)"
       sodipodi:nodetypes="cc" />
    <path
       style="fill:none;stroke:#800000"
       d="M 640.94179,1038.7004 C 630.79759,958.93498 674.92992,913.70506 742.9672,909.90592"
       id="path3608"
       inkscape:connector-curvature="0"
       transform="translate(259.85715,20.790754)"
       sodipodi:nodetypes="cc" />
    <path
       style="fill:none;stroke:#800000"
       d="m 741.45197,896.77394 c 22.76401,0.25456 40.95845,-2.34896 61.87184,-20.45559"
       id="path3610"
       inkscape:connector-curvature="0"
       transform="translate(259.85715,20.790754)"
       sodipodi:nodetypes="cc" />
    <path
       style="fill:none;stroke:#800000"
       d="m 809.63727,882.37926 c 22.1996,-11.66391 34.41992,-29.87672 41.41625,-51.51778"
       id="path3612"
       inkscape:connector-curvature="0"
       transform="translate(259.85715,20.790754)"
       sodipodi:nodetypes="cc" />
    <path
       style="fill:none;stroke:#800000"
       d="M 841.96215,829.59879 C 864.67301,781.9787 863.03759,713.04902 781.35299,674.54038"
       id="path3614"
       inkscape:connector-curvature="0"
       transform="translate(259.85715,20.790754)"
       sodipodi:nodetypes="cc" />
    <path
       style="fill:none;stroke:#800000"
       d="m 777.81746,684.6419 c -21.76357,-8.74955 -34.95855,-23.40846 -42.93148,-41.66879"
       id="path3616"
       inkscape:connector-curvature="0"
       transform="translate(259.85715,20.790754)"
       sodipodi:nodetypes="cc" />
    <path
       style="fill:none;stroke:#800000"
       d="m 742.9672,637.16473 c -39.92347,-30.0862 -25.02587,-117.58208 39.90102,-119.198"
       id="path3618"
       inkscape:connector-curvature="0"
       transform="translate(259.85715,20.790754)"
       sodipodi:nodetypes="cc" />
    <path
       style="fill:none;stroke:#800000"
       d="m 782.38853,518.2499 c 24.3988,-0.56696 56.92156,-11.94543 74.72591,-32.35551"
       id="path3620"
       inkscape:connector-curvature="0"
       transform="translate(259.85715,20.790754)"
       sodipodi:nodetypes="cc" />
    <path
       style="fill:none;stroke:#800000"
       d="m 852.31621,478.82332 c 60.37432,-25.56399 100.28441,-141.28368 35.1028,-198.74751"
       id="path3622"
       inkscape:connector-curvature="0"
       transform="translate(259.85715,20.790754)"
       sodipodi:nodetypes="cc" />
    <path
       style="fill:none;stroke:#800000"
       d="M 877.82256,282.85373 C 816.39136,243.397 703.08624,287.40177 724.27938,383.36391"
       id="path3624"
       inkscape:connector-curvature="0"
       transform="translate(259.85715,20.790754)"
       sodipodi:nodetypes="cc" />
    <path
       style="fill:none;stroke:#800000"
       d="m 734.12836,380.33345 c 10.9113,27.55301 20.12315,99.20884 -17.42513,125.25891"
       id="path3626"
       inkscape:connector-curvature="0"
       transform="translate(259.85715,20.790754)"
       sodipodi:nodetypes="cc" />
    <path
       style="fill:none;stroke:#800000"
       d="m 717.14703,505.33983 c 10.60275,15.94781 5.17552,37.98259 -1.95903,45.96194"
       id="path3628"
       inkscape:connector-curvature="0"
       transform="translate(259.85715,20.790754)"
       sodipodi:nodetypes="cc" />
    <path
       style="fill:none;stroke:#800000"
       d="M 706.34917,548.27131 C 662.40588,628.66413 545.94023,721.19209 417.69808,637.92235"
       id="path3630"
       inkscape:connector-curvature="0"
       transform="translate(259.85715,20.790754)"
       sodipodi:nodetypes="cc" />
  </g>
</svg>
