<?xml version="1.0" encoding="UTF-8" standalone="no"?>
<!-- Created with Inkscape (http://www.inkscape.org/) -->

<svg
   xmlns:dc="http://purl.org/dc/elements/1.1/"
   xmlns:cc="http://creativecommons.org/ns#"
   xmlns:rdf="http://www.w3.org/1999/02/22-rdf-syntax-ns#"
   xmlns:svg="http://www.w3.org/2000/svg"
   xmlns="http://www.w3.org/2000/svg"
   xmlns:xlink="http://www.w3.org/1999/xlink"
   xmlns:sodipodi="http://sodipodi.sourceforge.net/DTD/sodipodi-0.dtd"
   xmlns:inkscape="http://www.inkscape.org/namespaces/inkscape"
   width="1206"
   height="1566"
   id="svg3603"
   version="1.1"
   inkscape:version="0.48.4 r9939"
   sodipodi:docname="westminster_waltz_man.svg">
  <defs
     id="defs3605" />
  <sodipodi:namedview
     id="base"
     pagecolor="#ffffff"
     bordercolor="#666666"
     borderopacity="1.0"
     inkscape:pageopacity="0.0"
     inkscape:pageshadow="2"
     inkscape:zoom="2.8"
     inkscape:cx="736.67752"
     inkscape:cy="988.77967"
     inkscape:document-units="px"
     inkscape:current-layer="layer1"
     showgrid="false"
     fit-margin-top="0"
     fit-margin-left="0"
     fit-margin-right="0"
     fit-margin-bottom="0"
     inkscape:window-width="2495"
     inkscape:window-height="1056"
     inkscape:window-x="1985"
     inkscape:window-y="24"
     inkscape:window-maximized="1" />
  <metadata
     id="metadata3608">
    <rdf:RDF>
      <cc:Work
         rdf:about="">
        <dc:format>image/svg+xml</dc:format>
        <dc:type
           rdf:resource="http://purl.org/dc/dcmitype/StillImage" />
        <dc:title />
      </cc:Work>
    </rdf:RDF>
  </metadata>
  <g
     inkscape:label="Layer 1"
     inkscape:groupmode="layer"
     id="layer1"
     transform="translate(-168.42857,-0.79075402)">
    <image
       y="0.79075402"
       x="168.42857"
       id="image3734"
       xlink:href="file:///home/shawn/Desktop/danceDiagrams/raw/page-431.png"
       height="1566"
       width="1206" />
    <path
       style="fill:none;stroke:#800000"
       d="m 272.74119,818.48712 625.7895,0"
       id="path3638"
       inkscape:connector-curvature="0"
       transform="translate(168.42857,0.79075402)" />
    <path
       style="fill:none;stroke:#800000"
       d="m 585.25713,207.97617 0,1219.00163"
       id="path3640"
       inkscape:connector-curvature="0"
       transform="translate(168.42857,0.79075402)" />
    <path
       style="fill:none;stroke:#800000"
       d="M 479.56992,275.78266 C 437.58273,233.09341 397.2397,244.49851 372.24121,268.71159"
       id="path3642"
       inkscape:connector-curvature="0"
       transform="translate(168.42857,0.79075402)"
       sodipodi:nodetypes="cc" />
    <path
       style="fill:none;stroke:#800000"
       d="m 363.65492,266.43875 c -22.82454,1.63778 -39.12632,14.78631 -50.50763,36.61803"
       id="path3644"
       inkscape:connector-curvature="0"
       transform="translate(168.42857,0.79075402)"
       sodipodi:nodetypes="cc" />
    <path
       style="fill:none;stroke:#800000"
       d="m 322.4912,307.855 c -36.41037,30.42449 -34.05221,62.96693 -2.4641,96.08442"
       id="path3646"
       inkscape:connector-curvature="0"
       transform="translate(168.42857,0.79075402)"
       sodipodi:nodetypes="cc" />
    <path
       style="fill:none;stroke:#800000"
       d="m 319.53471,403.40108 c 13.4267,12.75655 20.49535,26.89273 12.3004,38.0466"
       id="path3648"
       inkscape:connector-curvature="0"
       transform="translate(168.42857,0.79075402)"
       sodipodi:nodetypes="cc" />
    <path
       style="fill:none;stroke:#800000"
       d="m 319.96582,437.40707 c -34.93018,50.73381 -25.42101,142.22478 64.14469,137.63328"
       id="path3650"
       inkscape:connector-curvature="0"
       transform="translate(168.42857,0.79075402)"
       sodipodi:nodetypes="cc" />
    <path
       style="fill:none;stroke:#800000"
       d="m 386.38335,568.22182 c 38.49645,-8.68487 111.1262,24.929 113.13708,68.69038"
       id="path3652"
       inkscape:connector-curvature="0"
       transform="translate(168.42857,0.79075402)"
       sodipodi:nodetypes="cc" />
    <path
       style="fill:none;stroke:#800000"
       d="m 492.19683,628.83098 c 41.50363,3.01759 75.99186,44.72964 71.72083,92.17641"
       id="path3654"
       inkscape:connector-curvature="0"
       transform="translate(168.42857,0.79075402)"
       sodipodi:nodetypes="cc" />
    <path
       style="fill:none;stroke:#800000"
       d="M 555.33136,722.01755 C 595.0075,845.18071 515.16299,899.90923 411.38462,894.50109"
       id="path3656"
       inkscape:connector-curvature="0"
       transform="translate(168.42857,0.79075402)"
       sodipodi:nodetypes="cc" />
    <path
       style="fill:none;stroke:#800000"
       d="m 400.77802,891.97571 c -50.39645,-0.85552 -111.75437,17.31812 -112.63201,89.3985"
       id="path3658"
       inkscape:connector-curvature="0"
       transform="translate(168.42857,0.79075402)"
       sodipodi:nodetypes="cc" />
    <path
       style="fill:none;stroke:#800000"
       d="m 295.21708,983.14198 c -7.56053,46.94712 9.05051,88.75472 78.28682,93.69162"
       id="path3660"
       inkscape:connector-curvature="0"
       transform="translate(168.42857,0.79075402)"
       sodipodi:nodetypes="cc" />
    <path
       style="fill:none;stroke:#800000"
       d="m 375.52421,1062.944 c 125.11246,17.364 134.05188,184.7525 39.39595,200.2628"
       id="path3662"
       inkscape:connector-curvature="0"
       transform="translate(168.42857,0.79075402)"
       sodipodi:nodetypes="cc" />
    <path
       style="fill:none;stroke:#800000"
       d="m 411.38462,1271.7931 c -27.90911,6.0305 -56.82916,46.7969 -37.62818,93.9442"
       id="path3664"
       inkscape:connector-curvature="0"
       transform="translate(168.42857,0.79075402)"
       sodipodi:nodetypes="cc" />
    <path
       style="fill:none;stroke:#800000"
       d="m 382.84782,1362.4543 c 4.39279,25.3119 17.7466,43.0415 39.64848,53.538"
       id="path3666"
       inkscape:connector-curvature="0"
       transform="translate(168.42857,0.79075402)"
       sodipodi:nodetypes="cc" />
    <path
       style="fill:none;stroke:#800000"
       d="m 425.27422,1409.9314 c 103.96759,11.7523 202.18124,20.4973 175.26147,-137.8858"
       id="path3668"
       inkscape:connector-curvature="0"
       transform="translate(168.42857,0.79075402)"
       sodipodi:nodetypes="cc" />
    <path
       style="fill:none;stroke:#800000"
       d="m 600.59697,1272.6426 c -3.62478,-19.6293 -5.86425,-50.3759 5.24202,-55.6503"
       id="path3670"
       inkscape:connector-curvature="0"
       transform="translate(168.42857,0.79075402)"
       sodipodi:nodetypes="cc" />
    <path
       style="fill:none;stroke:#800000"
       d="m 605.03805,1217.3367 c -24.69204,-36.2106 32.99772,-84.5073 66.46086,-84.4396"
       id="path3672"
       inkscape:connector-curvature="0"
       transform="translate(168.42857,0.79075402)"
       sodipodi:nodetypes="cc" />
    <path
       style="fill:none;stroke:#800000"
       d="m 667.71083,1125.321 c 28.43982,-27.2723 69.16298,-38.3375 131.82491,-20.4556"
       id="path3674"
       inkscape:connector-curvature="0"
       transform="translate(168.42857,0.79075402)"
       sodipodi:nodetypes="cc" />
    <path
       style="fill:none;stroke:#800000"
       d="m 812.16265,1105.1179 c 83.17459,-13.2102 83.62724,-141.99491 -4.79823,-166.42263"
       id="path3676"
       inkscape:connector-curvature="0"
       transform="translate(168.42857,0.79075402)"
       sodipodi:nodetypes="cc" />
    <path
       style="fill:none;stroke:#800000"
       d="m 800.79843,948.54426 c -54.26214,14.17036 -77.08104,-16.19739 -80.05459,-52.2754"
       id="path3678"
       inkscape:connector-curvature="0"
       transform="translate(168.42857,0.79075402)"
       sodipodi:nodetypes="cc" />
    <path
       style="fill:none;stroke:#800000"
       d="m 713.92531,894.75363 c 5.59639,-24.9901 19.73359,-36.86397 38.63834,-41.41625"
       id="path3680"
       inkscape:connector-curvature="0"
       transform="translate(168.42857,0.79075402)"
       sodipodi:nodetypes="cc" />
    <path
       style="fill:none;stroke:#800000"
       d="m 781.60553,853.33738 c 67.70064,1.00956 92.41391,-45.38532 89.65104,-69.70053"
       id="path3682"
       inkscape:connector-curvature="0"
       transform="translate(168.42857,0.79075402)"
       sodipodi:nodetypes="cc" />
    <path
       style="fill:none;stroke:#800000"
       d="M 861.15505,786.16223 C 873.22952,736.0309 839.80573,704.71724 801.30351,703.07719"
       id="path3684"
       inkscape:connector-curvature="0"
       transform="translate(168.42857,0.79075402)"
       sodipodi:nodetypes="cc" />
    <path
       style="fill:none;stroke:#800000"
       d="m 802.5662,717.47186 c -22.87795,5.82605 -52.30238,-0.0954 -53.28555,-19.95051"
       id="path3686"
       inkscape:connector-curvature="0"
       transform="translate(168.42857,0.79075402)"
       sodipodi:nodetypes="cc" />
    <path
       style="fill:none;stroke:#800000"
       d="M 749.20668,698.03912 C 725.17529,702.299 704.50987,686.96891 700.28825,669.99469"
       id="path3688"
       inkscape:connector-curvature="0"
       transform="translate(168.42857,0.79075402)"
       sodipodi:nodetypes="cc" />
    <path
       style="fill:none;stroke:#800000"
       d="M 708.62201,663.17616 C 624.52034,632.08439 565.97394,580.68912 552.04837,520.49211"
       id="path3690"
       inkscape:connector-curvature="0"
       transform="translate(168.42857,0.79075402)"
       sodipodi:nodetypes="cc" />
    <path
       style="fill:none;stroke:#800000"
       d="M 475.14416,331.65487 C 433.3602,398.1002 454.12381,475.1022 551.54329,512.15836"
       id="path3692"
       inkscape:connector-curvature="0"
       transform="translate(168.42857,0.79075402)"
       sodipodi:nodetypes="cc" />
    <path
       style="fill:none;stroke:#800000"
       d="m 474.96296,331.7901 c 10.21141,-15.45036 11.34028,-31.18491 9.91026,-46.15845"
       id="path3694"
       inkscape:connector-curvature="0"
       transform="translate(168.42857,0.79075402)"
       sodipodi:nodetypes="cc" />
  </g>
</svg>
