<?xml version="1.0" encoding="UTF-8" standalone="no"?>
<!-- Created with Inkscape (http://www.inkscape.org/) -->

<svg
   xmlns:dc="http://purl.org/dc/elements/1.1/"
   xmlns:cc="http://creativecommons.org/ns#"
   xmlns:rdf="http://www.w3.org/1999/02/22-rdf-syntax-ns#"
   xmlns:svg="http://www.w3.org/2000/svg"
   xmlns="http://www.w3.org/2000/svg"
   xmlns:xlink="http://www.w3.org/1999/xlink"
   xmlns:sodipodi="http://sodipodi.sourceforge.net/DTD/sodipodi-0.dtd"
   xmlns:inkscape="http://www.inkscape.org/namespaces/inkscape"
   width="1206"
   height="1566"
   id="svg3756"
   version="1.1"
   inkscape:version="0.48.4 r9939"
   sodipodi:docname="westminster_waltz_lady.svg">
  <defs
     id="defs3758" />
  <sodipodi:namedview
     id="base"
     pagecolor="#ffffff"
     bordercolor="#666666"
     borderopacity="1.0"
     inkscape:pageopacity="0.0"
     inkscape:pageshadow="2"
     inkscape:zoom="15.839192"
     inkscape:cx="557.37197"
     inkscape:cy="1200.199"
     inkscape:document-units="px"
     inkscape:current-layer="layer1"
     showgrid="false"
     fit-margin-top="0"
     fit-margin-left="0"
     fit-margin-right="0"
     fit-margin-bottom="0"
     inkscape:window-width="2495"
     inkscape:window-height="1056"
     inkscape:window-x="1985"
     inkscape:window-y="24"
     inkscape:window-maximized="1" />
  <metadata
     id="metadata3761">
    <rdf:RDF>
      <cc:Work
         rdf:about="">
        <dc:format>image/svg+xml</dc:format>
        <dc:type
           rdf:resource="http://purl.org/dc/dcmitype/StillImage" />
        <dc:title />
      </cc:Work>
    </rdf:RDF>
  </metadata>
  <g
     inkscape:label="Layer 1"
     inkscape:groupmode="layer"
     id="layer1"
     transform="translate(-214.14285,-26.505039)">
    <image
       y="26.505039"
       x="214.14285"
       id="image3903"
       xlink:href="file:///home/shawn/Desktop/danceDiagrams/raw/page-432.png"
       height="1566"
       width="1206" />
    <path
       style="fill:none;stroke:#800000"
       d="m 306.32876,818.99219 623.67124,0"
       id="path3731"
       inkscape:connector-curvature="0"
       transform="translate(214.14285,26.505039)" />
    <path
       style="fill:none;stroke:#800000"
       d="m 618.03572,210.46428 0,1215.53572"
       id="path3733"
       inkscape:connector-curvature="0"
       transform="translate(214.14285,26.505039)" />
    <path
       style="fill:none;stroke:#800000"
       d="M 512.14286,274.57143 C 492.86837,253.66476 451.26701,226.55761 405,267.78571"
       id="path3735"
       inkscape:connector-curvature="0"
       transform="translate(214.14285,26.505039)"
       sodipodi:nodetypes="cc" />
    <path
       style="fill:none;stroke:#800000"
       d="m 398.57143,265.28571 c -22.90449,3.73851 -40.89298,14.85101 -51.42857,37.14286"
       id="path3737"
       inkscape:connector-curvature="0"
       transform="translate(214.14285,26.505039)"
       sodipodi:nodetypes="cc" />
    <path
       style="fill:none;stroke:#800000"
       d="m 356.42857,308.14286 c -30.92671,26.05981 -40.32097,55.39629 -5.71428,91.42857"
       id="path3739"
       inkscape:connector-curvature="0"
       transform="translate(214.14285,26.505039)"
       sodipodi:nodetypes="cc" />
    <path
       style="fill:none;stroke:#800000"
       d="m 350.20277,399.09261 c 15.70387,16.25198 25.01822,31.1345 14.4623,41.09238"
       id="path3741"
       inkscape:connector-curvature="0"
       transform="translate(214.14285,26.505039)"
       sodipodi:nodetypes="cc" />
    <path
       style="fill:none;stroke:#800000"
       d="m 353.9322,436.77572 c -38.9757,56.47394 -17.07816,142.20809 64.14469,137.63329"
       id="path3743"
       inkscape:connector-curvature="0"
       transform="translate(214.14285,26.505039)"
       sodipodi:nodetypes="cc" />
    <path
       style="fill:none;stroke:#800000"
       d="m 419.21331,566.83286 c 39.78455,-4.91551 109.38567,21.58909 113.26335,69.57426"
       id="path3745"
       inkscape:connector-curvature="0"
       transform="translate(214.14285,26.505039)"
       sodipodi:nodetypes="cc" />
    <path
       style="fill:none;stroke:#800000"
       d="m 525.15306,629.20978 c 38.54675,1.19085 77.15546,43.42743 71.08948,89.77731"
       id="path3747"
       inkscape:connector-curvature="0"
       transform="translate(214.14285,26.505039)"
       sodipodi:nodetypes="cc" />
    <path
       style="fill:none;stroke:#800000"
       d="M 588.03505,719.87097 C 622.8316,826.66968 571.29202,897.66909 445.09847,892.10198"
       id="path3749"
       inkscape:connector-curvature="0"
       transform="translate(214.14285,26.505039)"
       sodipodi:nodetypes="cc" />
    <path
       style="fill:none;stroke:#800000"
       d="m 434.7444,889.45033 c -58.93663,1.03988 -109.22757,19.00692 -113.38962,89.65104"
       id="path3751"
       inkscape:connector-curvature="0"
       transform="translate(214.14285,26.505039)"
       sodipodi:nodetypes="cc" />
    <path
       style="fill:none;stroke:#800000"
       d="m 329.56227,981.37421 c -5.84969,40.02199 2.0985,88.04049 77.02413,92.05019"
       id="path3753"
       inkscape:connector-curvature="0"
       transform="translate(214.14285,26.505039)"
       sodipodi:nodetypes="cc" />
    <path
       style="fill:none;stroke:#800000"
       d="m 405.95505,1059.7873 c 30.41521,-1.0455 86.83748,22.3728 77.52921,60.8617"
       id="path3755"
       inkscape:connector-curvature="0"
       transform="translate(214.14285,26.505039)"
       sodipodi:nodetypes="cc" />
    <path
       style="fill:none;stroke:#800000"
       d="m 483.75847,1120.4055 c 18.65216,2.7856 33.2098,11.1442 34.82859,37.1141"
       id="path3757"
       inkscape:connector-curvature="0"
       transform="translate(214.14285,26.505039)"
       sodipodi:nodetypes="cc" />
    <path
       style="fill:none;stroke:#800000"
       d="m 508.233,1156.6357 c 8.30731,58.4652 -19.89044,91.4968 -61.11423,103.2881"
       id="path3759"
       inkscape:connector-curvature="0"
       transform="translate(214.14285,26.505039)"
       sodipodi:nodetypes="cc" />
    <path
       style="fill:none;stroke:#800000"
       d="m 444.46712,1269.6465 c -31.52176,2.878 -56.12075,53.6274 -36.61803,91.9239"
       id="path3761"
       inkscape:connector-curvature="0"
       transform="translate(214.14285,26.505039)"
       sodipodi:nodetypes="cc" />
    <path
       style="fill:none;stroke:#800000"
       d="m 403.05087,1366.3686 c 8.76671,20.8786 27.7226,35.1642 52.6542,45.5831"
       id="path3763"
       inkscape:connector-curvature="0"
       transform="translate(214.14285,26.505039)"
       sodipodi:nodetypes="cc" />
    <path
       style="fill:none;stroke:#800000"
       d="m 458.35672,1405.0069 c 129.00968,42.7611 247.03002,-73.0516 178.797,-190.6663"
       id="path3765"
       inkscape:connector-curvature="0"
       transform="translate(214.14285,26.505039)"
       sodipodi:nodetypes="cc" />
    <path
       style="fill:none;stroke:#800000"
       d="m 637.27999,1214.4669 c 11.47979,-6.6247 16.23824,-21.1626 15.65736,-30.4308"
       id="path3769"
       inkscape:connector-curvature="0"
       transform="translate(214.14285,26.505039)"
       sodipodi:nodetypes="cc" />
    <path
       style="fill:none;stroke:#800000"
       d="m 652.81108,1185.2988 c 0.56402,-21.6314 34.77592,-47.8235 51.13898,-54.8008"
       id="path3771"
       inkscape:connector-curvature="0"
       transform="translate(214.14285,26.505039)"
       sodipodi:nodetypes="cc" />
    <path
       style="fill:none;stroke:#800000"
       d="m 700.54079,1122.543 c 29.16011,-29.9395 75.4337,-36.855 130.30968,-20.7081"
       id="path3773"
       inkscape:connector-curvature="0"
       transform="translate(214.14285,26.505039)"
       sodipodi:nodetypes="cc" />
    <path
       style="fill:none;stroke:#800000"
       d="m 844.48753,1102.0874 c 51.37061,1.7146 81.18829,-69.9316 42.42641,-100.5101"
       id="path3775"
       inkscape:connector-curvature="0"
       transform="translate(214.14285,26.505039)"
       sodipodi:nodetypes="cc" />
    <path
       style="fill:none;stroke:#800000"
       d="m 887.29274,1001.8298 c 28.36732,-25.64491 -9.70691,-73.21084 -49.11866,-65.15484"
       id="path3777"
       inkscape:connector-curvature="0"
       transform="translate(214.14285,26.505039)"
       sodipodi:nodetypes="cc" />
    <path
       style="fill:none;stroke:#800000"
       d="m 832.87077,946.01887 c -35.76234,9.71783 -74.73973,1.25238 -79.54951,-52.27539"
       id="path3779"
       inkscape:connector-curvature="0"
       transform="translate(214.14285,26.505039)"
       sodipodi:nodetypes="cc" />
    <path
       style="fill:none;stroke:#800000"
       d="m 747.00781,892.22825 c 3.75508,-22.25075 16.95702,-35.23987 37.88072,-40.65864"
       id="path3781"
       inkscape:connector-curvature="0"
       transform="translate(214.14285,26.505039)"
       sodipodi:nodetypes="cc" />
    <path
       style="fill:none;stroke:#800000"
       d="m 813.93041,851.56961 c 38.10241,3.39314 89.31575,-20.07307 89.3985,-69.70052"
       id="path3783"
       inkscape:connector-curvature="0"
       transform="translate(214.14285,26.505039)"
       sodipodi:nodetypes="cc" />
    <path
       style="fill:none;stroke:#800000"
       d="m 893.73247,784.64701 c 10.78304,-44.55887 -15.8773,-81.45616 -60.10408,-83.08505"
       id="path3785"
       inkscape:connector-curvature="0"
       transform="translate(214.14285,26.505039)"
       sodipodi:nodetypes="cc" />
    <path
       style="fill:none;stroke:#800000"
       d="m 835.64869,716.20917 c -45.47601,4.22875 -82.7035,-17.02623 -97.22718,-49.49747"
       id="path3787"
       inkscape:connector-curvature="0"
       transform="translate(214.14285,26.505039)"
       sodipodi:nodetypes="cc" />
    <path
       style="fill:none;stroke:#800000"
       d="m 734.63344,660.90332 c -17.53015,0.26253 -46.36312,-14.14934 -50.50763,-35.1028"
       id="path3789"
       inkscape:connector-curvature="0"
       transform="translate(214.14285,26.505039)"
       sodipodi:nodetypes="cc" />
    <path
       style="fill:none;stroke:#800000"
       d="m 684.37835,626.55814 c -16.36342,4.53727 -28.69632,-4.74438 -40.4061,-16.16245"
       id="path3791"
       inkscape:connector-curvature="0"
       transform="translate(214.14285,26.505039)"
       sodipodi:nodetypes="cc" />
    <path
       style="fill:none;stroke:#800000"
       d="M 649.78063,603.07209 C 605.66733,587.74278 591.99414,555.2909 585.63594,518.72435"
       id="path3793"
       inkscape:connector-curvature="0"
       transform="translate(214.14285,26.505039)"
       sodipodi:nodetypes="cc" />
    <path
       style="fill:none;stroke:#800000"
       d="M 583.86817,510.89567 C 498.49475,482.89186 466.2214,397.12602 507.60166,332.22494"
       id="path3795"
       inkscape:connector-curvature="0"
       transform="translate(214.14285,26.505039)"
       sodipodi:nodetypes="cc" />
    <path
       style="fill:none;stroke:#800000"
       d="m 507.34912,332.47747 c 8.24431,-11.45419 13.2742,-26.98358 10.10152,-47.60344"
       id="path3797"
       inkscape:connector-curvature="0"
       transform="translate(214.14285,26.505039)"
       sodipodi:nodetypes="cc" />
  </g>
</svg>
