<?xml version="1.0" encoding="UTF-8" standalone="no"?>
<!-- Created with Inkscape (http://www.inkscape.org/) -->

<svg
   xmlns:dc="http://purl.org/dc/elements/1.1/"
   xmlns:cc="http://creativecommons.org/ns#"
   xmlns:rdf="http://www.w3.org/1999/02/22-rdf-syntax-ns#"
   xmlns:svg="http://www.w3.org/2000/svg"
   xmlns="http://www.w3.org/2000/svg"
   xmlns:xlink="http://www.w3.org/1999/xlink"
   xmlns:sodipodi="http://sodipodi.sourceforge.net/DTD/sodipodi-0.dtd"
   xmlns:inkscape="http://www.inkscape.org/namespaces/inkscape"
   width="1206"
   height="1566"
   id="svg2"
   version="1.1"
   inkscape:version="0.48.4 r9939"
   sodipodi:docname="willow_waltz.svg">
  <defs
     id="defs4" />
  <sodipodi:namedview
     id="base"
     pagecolor="#ffffff"
     bordercolor="#666666"
     borderopacity="1.0"
     inkscape:pageopacity="0.0"
     inkscape:pageshadow="2"
     inkscape:zoom="2.8"
     inkscape:cx="624.98286"
     inkscape:cy="135.15475"
     inkscape:document-units="px"
     inkscape:current-layer="layer1"
     showgrid="false"
     inkscape:window-width="1855"
     inkscape:window-height="1056"
     inkscape:window-x="65"
     inkscape:window-y="24"
     inkscape:window-maximized="1" />
  <metadata
     id="metadata7">
    <rdf:RDF>
      <cc:Work
         rdf:about="">
        <dc:format>image/svg+xml</dc:format>
        <dc:type
           rdf:resource="http://purl.org/dc/dcmitype/StillImage" />
        <dc:title />
      </cc:Work>
    </rdf:RDF>
  </metadata>
  <g
     inkscape:label="Layer 1"
     inkscape:groupmode="layer"
     id="layer1"
     transform="translate(0,513.63782)">
    <image
       y="-513.63782"
       x="0"
       id="image3643"
       xlink:href="file:///home/shawn/Desktop/danceDiagrams/raw/page-390.png"
       height="1566"
       width="1206" />
    <path
       style="fill:#800000;stroke:#800000"
       d="m 312.14286,816.35714 617.85714,0"
       id="path3665"
       inkscape:connector-curvature="0"
       transform="translate(0,-513.63782)" />
    <path
       style="fill:#800000;stroke:#800000"
       d="m 621.24382,215.42605 0,1203.09165"
       id="path3667"
       inkscape:connector-curvature="0"
       transform="translate(0,-513.63782)" />
    <path
       style="fill:none;stroke:#800000"
       d="m 718.21428,271.89286 c -16.68166,17.29144 -31.35619,25.20428 -52.32142,33.92857"
       id="path3673"
       inkscape:connector-curvature="0"
       transform="translate(0,-513.63782)"
       sodipodi:nodetypes="cc" />
    <path
       style="fill:none;stroke:#800000"
       d="m 666.96429,314.39285 c -14.39714,5.06939 -20.92941,5.67272 -43.39286,6.07143"
       id="path3675"
       inkscape:connector-curvature="0"
       transform="translate(0,-513.63782)"
       sodipodi:nodetypes="cc" />
    <path
       style="fill:none;stroke:#800000"
       d="m 621.78572,312.78571 c -33.26825,-5.07823 -68.71755,-33.78707 -80.35715,-48.75"
       id="path3677"
       inkscape:connector-curvature="0"
       transform="translate(0,-513.63782)"
       sodipodi:nodetypes="cc" />
    <path
       style="fill:none;stroke:#800000"
       d="M 534.64286,271 C 515.43674,248.14456 451.83532,218.86276 439.82143,244.03571"
       id="path3679"
       inkscape:connector-curvature="0"
       transform="translate(0,-513.63782)"
       sodipodi:nodetypes="cc" />
    <path
       style="fill:none;stroke:#800000"
       d="m 437.14286,233.67857 c -35.24144,1.5947 -61.06151,19.07115 -79.64286,48.75"
       id="path3681"
       inkscape:connector-curvature="0"
       transform="translate(0,-513.63782)"
       sodipodi:nodetypes="cc" />
    <path
       style="fill:none;stroke:#800000"
       d="m 349.28572,278.67857 c -21.66777,28.41509 -23.1082,94.5491 -5.71429,117.14286"
       id="path3683"
       inkscape:connector-curvature="0"
       transform="translate(0,-513.63782)"
       sodipodi:nodetypes="cc" />
    <path
       style="fill:none;stroke:#800000"
       d="m 352.14286,391.53571 c 21.81893,36.21448 51.17746,57.24392 93.57143,69.28572"
       id="path3685"
       inkscape:connector-curvature="0"
       transform="translate(0,-513.63782)"
       sodipodi:nodetypes="cc" />
    <path
       style="fill:none;stroke:#800000"
       d="m 436.78572,467.25 c 32.68393,12.03588 60.94425,25.90018 58.39285,52.5"
       id="path3689"
       inkscape:connector-curvature="0"
       transform="translate(0,-513.63782)"
       sodipodi:nodetypes="cc" />
    <path
       style="fill:none;stroke:#800000"
       d="m 494.97475,519.41883 c 22.55201,-1.42256 32.46634,9.89217 35.22907,26.39023"
       id="path3691"
       inkscape:connector-curvature="0"
       transform="translate(0,-513.63782)"
       sodipodi:nodetypes="cc" />
    <path
       style="fill:none;stroke:#800000"
       d="m 523.21429,547.42857 c 7.39145,23.28003 9.91315,46.74043 8.21428,70.35714"
       id="path3693"
       inkscape:connector-curvature="0"
       transform="translate(0,-513.63782)"
       sodipodi:nodetypes="cc" />
    <path
       style="fill:none;stroke:#800000"
       d="m 539.16892,619.23453 c -0.90606,16.53501 -4.93985,28.52329 -11.49048,39.90102"
       id="path3695"
       inkscape:connector-curvature="0"
       transform="translate(0,-513.63782)"
       sodipodi:nodetypes="cc" />
    <path
       style="fill:none;stroke:#800000"
       d="m 521.23871,655.60002 c -22.43432,41.99512 -53.22096,59.37551 -84.22146,73.48859"
       id="path3697"
       inkscape:connector-curvature="0"
       transform="translate(0,-513.63782)"
       sodipodi:nodetypes="cc" />
    <path
       style="fill:none;stroke:#800000"
       d="m 438.0274,737.54864 c -39.56599,9.81047 -53.39711,25.11105 -68.43784,40.15357"
       id="path3699"
       inkscape:connector-curvature="0"
       transform="translate(0,-513.63782)"
       sodipodi:nodetypes="cc" />
    <path
       style="fill:none;stroke:#800000"
       d="m 363.27611,769.36845 c -15.5382,12.61063 -25.7371,27.00478 -25.63262,44.57298"
       id="path3703"
       inkscape:connector-curvature="0"
       transform="translate(0,-513.63782)"
       sodipodi:nodetypes="cc" />
    <path
       style="fill:none;stroke:#800000"
       d="m 344.58829,822.02265 c -4.93029,14.63979 -19.64879,90.23425 15.78363,96.09076"
       id="path3705"
       inkscape:connector-curvature="0"
       transform="translate(0,-513.63782)"
       sodipodi:nodetypes="cc" />
    <path
       style="fill:none;stroke:#800000"
       d="m 355.44743,922.78537 c 17.86917,31.88494 53.12195,52.90762 101.39406,63.13453"
       id="path3707"
       inkscape:connector-curvature="0"
       transform="translate(0,-513.63782)"
       sodipodi:nodetypes="cc" />
    <path
       style="fill:none;stroke:#800000"
       d="m 456.46268,996.27396 c 57.59039,14.26564 82.00427,35.82094 80.30713,86.49434"
       id="path3709"
       inkscape:connector-curvature="0"
       transform="translate(0,-513.63782)"
       sodipodi:nodetypes="cc" />
    <path
       style="fill:none;stroke:#800000"
       d="m 541.6943,1088.0716 c -5.35299,43.9153 -41.12011,74.8923 -97.47972,82.9588"
       id="path3711"
       inkscape:connector-curvature="0"
       transform="translate(0,-513.63782)"
       sodipodi:nodetypes="cc" />
    <path
       style="fill:none;stroke:#800000"
       d="m 436.3859,1162.3178 c -46.82252,0.8533 -87.90069,32.3671 -89.27223,90.0298"
       id="path3713"
       inkscape:connector-curvature="0"
       transform="translate(0,-513.63782)"
       sodipodi:nodetypes="cc" />
    <path
       style="fill:none;stroke:#800000"
       d="m 361.42857,1222.6071 c -42.8818,30.3193 -47.95574,103.1713 -18.39285,131.0715"
       id="path3715"
       inkscape:connector-curvature="0"
       transform="translate(0,-513.63782)"
       sodipodi:nodetypes="cc" />
    <path
       style="fill:none;stroke:#800000"
       d="m 348.21429,1345.8214 c 11.08876,23.8693 31.07441,37.6554 56.42857,45.3572"
       id="path3717"
       inkscape:connector-curvature="0"
       transform="translate(0,-513.63782)"
       sodipodi:nodetypes="cc" />
    <path
       style="fill:none;stroke:#800000"
       d="m 401.25,1400.2857 c 25.92622,7.4326 33.43545,7.1107 41.78572,7.1429"
       id="path3719"
       inkscape:connector-curvature="0"
       transform="translate(0,-513.63782)"
       sodipodi:nodetypes="cc" />
    <path
       style="fill:none;stroke:#800000"
       d="m 441.25,1399.5714 c 25.31126,-3.7487 46.22605,-2.0536 81.25,-34.4643"
       id="path3721"
       inkscape:connector-curvature="0"
       transform="translate(0,-513.63782)"
       sodipodi:nodetypes="cc" />
    <path
       style="fill:none;stroke:#800000"
       d="m 527.14286,1371.1786 c 13.92276,-20.2219 48.265,-38.0062 64.64286,-40.3572"
       id="path3723"
       inkscape:connector-curvature="0"
       transform="translate(0,-513.63782)"
       sodipodi:nodetypes="cc" />
    <path
       style="fill:none;stroke:#800000"
       d="m 587.5,1322.4286 c 5.47918,-3.192 16.49142,-5.7825 43.75,-6.6072"
       id="path3725"
       inkscape:connector-curvature="0"
       transform="translate(0,-513.63782)"
       sodipodi:nodetypes="cc" />
    <path
       style="fill:none;stroke:#800000"
       d="m 628.39286,1324.5714 c 40.38045,1.4854 64.47576,12.8776 89.64286,47.5"
       id="path3727"
       inkscape:connector-curvature="0"
       transform="translate(0,-513.63782)"
       sodipodi:nodetypes="cc" />
    <path
       style="fill:none;stroke:#800000"
       d="m 724.10714,1363.8571 c 22.57889,26.0872 51.6952,37.7561 96.60715,34.2858"
       id="path3729"
       inkscape:connector-curvature="0"
       transform="translate(0,-513.63782)"
       sodipodi:nodetypes="cc" />
    <path
       style="fill:none;stroke:#800000"
       d="m 820.89286,1407.9643 c 60.18174,-5.8499 78.06142,-33.8743 79.46428,-70.5357"
       id="path3731"
       inkscape:connector-curvature="0"
       transform="translate(0,-513.63782)"
       sodipodi:nodetypes="cc" />
    <path
       style="fill:none;stroke:#800000"
       d="m 883.21429,1364.75 c 27.79338,-19.0106 52.85208,-56.5266 23.57143,-120"
       id="path3733"
       inkscape:connector-curvature="0"
       transform="translate(0,-513.63782)"
       sodipodi:nodetypes="cc" />
    <path
       style="fill:none;stroke:#800000"
       d="m 898.92857,1249.3929 c -13.09387,-30.5813 -34.15471,-57.9962 -84.10714,-73.9286"
       id="path3735"
       inkscape:connector-curvature="0"
       transform="translate(0,-513.63782)"
       sodipodi:nodetypes="cc" />
    <path
       style="fill:none;stroke:#800000"
       d="M 817.32143,1164.75 C 761.28095,1144.8147 720.78208,1102.4554 743.75,1088.8571"
       id="path3737"
       inkscape:connector-curvature="0"
       transform="translate(0,-513.63782)"
       sodipodi:nodetypes="cc" />
    <path
       style="fill:none;stroke:#800000"
       d="m 729.28572,1086.1786 c -10.79107,-12.8446 -18.3522,-31.2262 -15.89286,-66.7857"
       id="path3739"
       inkscape:connector-curvature="0"
       transform="translate(0,-513.63782)"
       sodipodi:nodetypes="cc" />
    <path
       style="fill:none;stroke:#800000"
       d="m 704.82143,1015.6429 c 0.46292,-15.8438 4.42864,-30.58146 13.92857,-43.57147"
       id="path3741"
       inkscape:connector-curvature="0"
       transform="translate(0,-513.63782)"
       sodipodi:nodetypes="cc" />
    <path
       style="fill:none;stroke:#800000"
       d="m 728.57143,977.25 c 13.70667,-43.57529 43.68185,-69.92509 81.60714,-87.85714"
       id="path3743"
       inkscape:connector-curvature="0"
       transform="translate(0,-513.63782)"
       sodipodi:nodetypes="cc" />
    <path
       style="fill:none;stroke:#800000"
       d="m 809.82143,880.10714 c 29.11637,-6.47532 50.94467,-16.28729 64.64286,-29.82143"
       id="path3745"
       inkscape:connector-curvature="0"
       transform="translate(0,-513.63782)"
       sodipodi:nodetypes="cc" />
    <path
       style="fill:none;stroke:#800000"
       d="m 881.96429,854.75 c 11.1551,-10.54075 17.1749,-17.43717 26.25,-33.03572"
       id="path3747"
       inkscape:connector-curvature="0"
       transform="translate(0,-513.63782)"
       sodipodi:nodetypes="cc" />
    <path
       style="fill:none;stroke:#800000"
       d="m 901.78572,814.03571 c 16.44701,-41.67362 14.10988,-61.94266 -0.17858,-69.82143"
       id="path3749"
       inkscape:connector-curvature="0"
       transform="translate(0,-513.63782)"
       sodipodi:nodetypes="cc" />
    <path
       style="fill:none;stroke:#800000"
       d="m 901.75055,744.99852 c 7.13838,-5.92199 10.63039,-21.33026 -4.16688,-42.48954"
       id="path3751"
       inkscape:connector-curvature="0"
       transform="translate(0,-513.63782)"
       sodipodi:nodetypes="cc" />
    <path
       style="fill:none;stroke:#800000"
       d="M 890.17857,708.85714 C 871.52743,676.67016 831.80433,650.4497 782.85714,639.03571"
       id="path3753"
       inkscape:connector-curvature="0"
       transform="translate(0,-513.63782)"
       sodipodi:nodetypes="cc" />
    <path
       style="fill:none;stroke:#800000"
       d="m 783.75,625.82143 c -65.92603,-13.87456 -79.84869,-43.80898 -81.60714,-77.5"
       id="path3755"
       inkscape:connector-curvature="0"
       transform="translate(0,-513.63782)"
       sodipodi:nodetypes="cc" />
    <path
       style="fill:none;stroke:#800000"
       d="m 694.10714,546.89285 c -0.45474,-98.20734 93.52424,-71.08937 90,-110.35714"
       id="path3757"
       inkscape:connector-curvature="0"
       transform="translate(0,-513.63782)"
       sodipodi:nodetypes="cc" />
    <path
       style="fill:none;stroke:#800000"
       d="m 790,450.28571 c 56.35362,-0.65765 92.63194,-18.63025 110.89286,-52.14286"
       id="path3759"
       inkscape:connector-curvature="0"
       transform="translate(0,-513.63782)"
       sodipodi:nodetypes="cc" />
    <path
       style="fill:none;stroke:#800000"
       d="m 911.60714,402.07143 c 12.55686,-24.93402 19.77517,-64.66915 1.07143,-111.96429"
       id="path3761"
       inkscape:connector-curvature="0"
       transform="translate(0,-513.63782)"
       sodipodi:nodetypes="cc" />
    <path
       style="fill:none;stroke:#800000"
       d="M 907.67857,295.46428 C 896.32706,274.98836 883.248,259.17683 867.14286,251.53571"
       id="path3763"
       inkscape:connector-curvature="0"
       transform="translate(0,-513.63782)"
       sodipodi:nodetypes="cc" />
    <path
       style="fill:none;stroke:#800000"
       d="m 871.42857,247.25 c -7.7254,-7.1724 -20.90596,-12.11315 -39.10714,-15"
       id="path3765"
       inkscape:connector-curvature="0"
       transform="translate(0,-513.63782)"
       sodipodi:nodetypes="cc" />
    <path
       style="fill:none;stroke:#800000"
       d="M 833.39286,240.46428 C 807.63877,230.3049 750.53892,235.25323 726.60715,269.75"
       id="path3767"
       inkscape:connector-curvature="0"
       transform="translate(0,-513.63782)"
       sodipodi:nodetypes="cc" />
  </g>
</svg>
