<?xml version="1.0" encoding="UTF-8" standalone="no"?>

<svg xmlns="http://www.w3.org/2000/svg" xml:space="preserve" version="1.1" xmlns:cc="http://creativecommons.org/ns#" width="24" height="24" viewBox="0 0 24 24"><path stroke-linejoin="round" d="m13.265 1.5128c3.729 0 6.7519 3.0229 6.7519 6.7519s-3.0229 6.7519-6.7519 6.7519-6.7519-3.0229-6.7519-6.7519 3.0229-6.7519 6.7519-6.7519zm0 1.688c-2.7967 0-5.0639 2.2672-5.0639 5.0639s2.2672 5.0639 5.0639 5.0639 5.0639-2.2672 5.0639-5.0639-2.2672-5.0639-5.0639-5.0639zm-0.84398 1.688h1.266v3.1918l1.9674 1.9674-0.89521 0.89521-2.3382-2.3383v-3.7161zm-10.128 8.4402c-0.46612 0-0.84398-0.37785-0.84398-0.84398s0.37786-0.84398 0.84398-0.84398h3.2342c0.26329 0.6026 0.59492 1.1685 0.98508 1.688h-4.2193zm0.84398-4.2199c-0.46612 0-0.84398-0.37785-0.84398-0.84398s0.37786-0.84398 0.84398-0.84398h1.7296l-0.041668 0.84398 0.041676 0.84398h-1.7297zm0.844-4.2204c-0.46612 0-0.84398-0.37787-0.84398-0.84398 0-0.46612 0.37787-0.84398 0.84398-0.84398l2.5313-0.0000169c-0.3901 0.5195-0.7218 1.0854-0.9851 1.688l-1.5463 0.0000084z" stroke-width=".2"/><g><path d="m13.092 16.63h3.7383l-0.22266 1.1055h-2.5391l-0.17969 0.90234c0.11979-0.03125 0.23958-0.05468 0.35938-0.07031 0.11979-0.01822 0.24218-0.02734 0.36719-0.02734 0.71093 0.000004 1.2279 0.17839 1.5508 0.53516 0.32552 0.35417 0.42447 0.84896 0.29688 1.4844-0.125 0.63021-0.43881 1.1237-0.94141 1.4805-0.50261 0.35677-1.1367 0.53516-1.9023 0.53516-0.33073 0-0.65234-0.03255-0.96484-0.09766-0.3099-0.0625-0.61198-0.15885-0.90625-0.28906l0.23828-1.1836c0.28125 0.18229 0.55469 0.31901 0.82031 0.41016 0.26823 0.09115 0.52864 0.13672 0.78125 0.13672 0.36458 0.000001 0.66927-0.08854 0.91406-0.26562 0.24479-0.17969 0.39713-0.42187 0.45703-0.72656 0.0625-0.30729 0.0065-0.54948-0.16797-0.72656-0.17448-0.17708-0.44401-0.26562-0.80859-0.26562-0.21615 0.000003-0.45183 0.02865-0.70703 0.08594-0.25521 0.05469-0.53516 0.14063-0.83984 0.25781l0.65625-3.2812"/><path d="m20.904 19.54c0.14583-0.72916 0.17968-1.2422 0.10156-1.5391-0.07813-0.29947-0.27865-0.44921-0.60156-0.44922-0.32292 0.000005-0.58334 0.14974-0.78125 0.44922-0.19532 0.29688-0.36589 0.8099-0.51172 1.5391-0.14844 0.73698-0.1836 1.2565-0.10547 1.5586 0.07812 0.30208 0.27864 0.45313 0.60156 0.45312 0.32031 0.000001 0.57942-0.15104 0.77734-0.45312 0.19791-0.30208 0.37109-0.82161 0.51953-1.5586m1.5 0.01172c-0.19271 0.96615-0.55079 1.7122-1.0742 2.2383-0.52084 0.52344-1.1641 0.78516-1.9297 0.78516-0.76823 0-1.3086-0.26172-1.6211-0.78516-0.3099-0.52604-0.36849-1.2721-0.17578-2.2383 0.19271-0.96875 0.54948-1.7148 1.0703-2.2383 0.52344-0.52604 1.1693-0.78906 1.9375-0.78906 0.76562 0.000006 1.3034 0.26303 1.6133 0.78906 0.31249 0.52344 0.37239 1.2695 0.17969 2.2383"/></g></svg>
