<?xml version="1.0" encoding="UTF-8" standalone="no"?>

<svg xmlns="http://www.w3.org/2000/svg" xml:space="preserve" version="1.1" xmlns:cc="http://creativecommons.org/ns#" width="24" height="24" viewBox="0 0 24 24"><path stroke-linejoin="round" d="m13.265 1.5128c3.729 0 6.7519 3.0229 6.7519 6.7519s-3.0229 6.7519-6.7519 6.7519-6.7519-3.0229-6.7519-6.7519 3.0229-6.7519 6.7519-6.7519zm0 1.688c-2.7967 0-5.0639 2.2672-5.0639 5.0639s2.2672 5.0639 5.0639 5.0639 5.0639-2.2672 5.0639-5.0639-2.2672-5.0639-5.0639-5.0639zm-0.84398 1.688h1.266v3.1918l1.9674 1.9674-0.89521 0.89521-2.3382-2.3383v-3.7161zm-10.128 8.4402c-0.46612 0-0.84398-0.37785-0.84398-0.84398s0.37786-0.84398 0.84398-0.84398h3.2342c0.26329 0.6026 0.59492 1.1685 0.98508 1.688h-4.2193zm0.84398-4.2199c-0.46612 0-0.84398-0.37785-0.84398-0.84398s0.37786-0.84398 0.84398-0.84398h1.7296l-0.041668 0.84398 0.041676 0.84398h-1.7297zm0.844-4.2204c-0.46612 0-0.84398-0.37787-0.84398-0.84398 0-0.46612 0.37787-0.84398 0.84398-0.84398l2.5313-0.0000169c-0.3901 0.5195-0.7218 1.0854-0.9851 1.688l-1.5463 0.0000084z" stroke-width=".2"/><g><path d="m12.779 16.63h4.3945l-0.17188 0.84766-3.2695 4.9844h-1.4648l3.0977-4.7266h-2.8086l0.22266-1.1055"/><path d="m18.654 16.63h3.7383l-0.22266 1.1055h-2.5391l-0.17969 0.90234c0.11979-0.03125 0.23958-0.05468 0.35938-0.07031 0.11979-0.01822 0.24218-0.02734 0.36719-0.02734 0.71093 0.000004 1.2279 0.17839 1.5508 0.53516 0.32552 0.35417 0.42447 0.84896 0.29688 1.4844-0.125 0.63021-0.43881 1.1237-0.94141 1.4805-0.50261 0.35677-1.1367 0.53516-1.9023 0.53516-0.33073 0-0.65234-0.03255-0.96484-0.09766-0.3099-0.0625-0.61198-0.15885-0.90625-0.28906l0.23828-1.1836c0.28125 0.18229 0.55469 0.31901 0.82031 0.41016 0.26823 0.09115 0.52864 0.13672 0.78125 0.13672 0.36458 0.000001 0.66927-0.08854 0.91406-0.26562 0.24479-0.17969 0.39713-0.42187 0.45703-0.72656 0.0625-0.30729 0.0065-0.54948-0.16797-0.72656-0.17448-0.17708-0.44401-0.26562-0.80859-0.26562-0.21615 0.000003-0.45183 0.02865-0.70703 0.08594-0.25521 0.05469-0.53516 0.14063-0.83984 0.25781l0.65625-3.2812"/></g></svg>
