<?xml version="1.0" encoding="utf-8"?>
<!DOCTYPE svg PUBLIC "-//W3C//DTD SVG 1.1//EN" "http://www.w3.org/Graphics/SVG/1.1/DTD/svg11.dtd">
<svg xmlns="http://www.w3.org/2000/svg" xmlns:xlink="http://www.w3.org/1999/xlink" version="1.1" baseProfile="full" width="24" height="24" viewBox="0 0 24.00 24.00" enable-background="new 0 0 24.00 24.00" xml:space="preserve">
	<path fill="#000000" fill-opacity="1" stroke-width="1.33333" stroke-linejoin="miter" d="m 16.850847,8.9661017 0,2.9423733 -2.942372,0 0,2.942372 -2.942373,0 0,2.942373 -2.9423732,0 0,2.20678 5.1491522,0 0,-2.942373 2.942373,0 0,-2.942373 2.942373,0 0,-2.942373 2.942373,0 0,-2.2067793 -5.149153,0 z" /><g><path d="m 5.5996754,5.4151058 q -0.515625,0 -0.7998047,0.3808594 -0.2841797,0.3808594 -0.2841797,1.0722656 0,0.6884766 0.2841797,1.069336 0.2841797,0.3808593 0.7998047,0.3808593 0.5185547,0 0.8027344,-0.3808593 0.2841797,-0.3808594 0.2841797,-1.069336 0,-0.6914062 -0.2841797,-1.0722656 Q 6.1182301,5.4151058 5.5996754,5.4151058 Z m 0,-0.8173828 q 1.0546875,0 1.6523438,0.6035156 0.5976562,0.6035157 0.5976562,1.6669922 0,1.0605469 -0.5976562,1.6640625 -0.5976563,0.6035156 -1.6523438,0.6035156 -1.0517578,0 -1.6523437,-0.6035156 -0.5976563,-0.6035156 -0.5976563,-1.6640625 0,-1.0634765 0.5976563,-1.6669922 Q 4.5479176,4.597723 5.5996754,4.597723 Z" /><path d="m 8.6992848,4.6768246 1.8720702,0 q 0.834961,0 1.280274,0.3720703 0.448242,0.3691406 0.448242,1.0546875 0,0.6884765 -0.448242,1.0605469 -0.445313,0.3691406 -1.280274,0.3691406 l -0.7441405,0 0,1.5175781 -1.1279297,0 0,-4.3740234 z m 1.1279297,0.8173828 0,1.2216797 0.6240235,0 q 0.328125,0 0.506836,-0.1582032 0.178711,-0.1611328 0.178711,-0.4541015 0,-0.2929688 -0.178711,-0.4511719 -0.178711,-0.1582031 -0.506836,-0.1582031 l -0.6240235,0 z" /><path d="m 12.572332,4.6768246 4.03125,0 0,0.852539 -1.450196,0 0,3.5214844 -1.127929,0 0,-3.5214844 -1.453125,0 0,-0.852539 z" /></g>
</svg>
